<?xml version="1.0" encoding="utf-8"?><svg viewBox="0 0 500 500" xmlns="http://www.w3.org/2000/svg" xmlns:xlink="http://www.w3.org/1999/xlink"><style>:root>svg{display:none}:root>svg:target{display:block}</style><svg viewBox="0 0 500 500" id="5" xmlns="http://www.w3.org/2000/svg"><path fill="#fff" d="M0-.004h500v500H0z"/><path d="M110.787 411.335H55.685a1.753 1.753 0 0 1-1.753-1.753v-.963c0-.968.785-1.753 1.753-1.753h55.101c.968 0 1.753.785 1.753 1.753v.963a1.752 1.752 0 0 1-1.752 1.753zm349.154 0h-15.076a1.753 1.753 0 0 1-1.753-1.753v-.963c0-.968.785-1.753 1.753-1.753h15.076c.968 0 1.753.785 1.753 1.753v.963a1.754 1.754 0 0 1-1.753 1.753zm-245.459 0H159.38a1.753 1.753 0 0 1-1.753-1.753v-.963c0-.968.785-1.753 1.753-1.753h55.102c.968 0 1.753.785 1.753 1.753v.963c0 .968-.784 1.753-1.753 1.753zm80.908 0h-55.101a1.753 1.753 0 0 1-1.753-1.753v-.963c0-.968.785-1.753 1.753-1.753h55.101c.968 0 1.753.785 1.753 1.753v.963c0 .968-.785 1.753-1.753 1.753zm99.089 0h-75.114a1.753 1.753 0 0 1-1.753-1.753v-.963c0-.968.785-1.753 1.753-1.753h75.114c.968 0 1.753.785 1.753 1.753v.963c0 .968-.785 1.753-1.753 1.753z" fill="#adbec4"/><path d="M129.256 161.062s-5.82-3.959-14.332-.91c-8.512 3.05-10.424 14.513-8.327 23.816 2.097 9.303-9.622 41.065-9.622 41.065s6.091 8.566 27.378 5.288c0 0 15.873-28.846 14.695-49.555s-9.792-19.704-9.792-19.704z" fill="#0e3944"/><path d="M135.976 196.846c8-2.558 12.896 4.103 17.48 16.501 4.584 12.398 6.126 13.641 6.126 13.641l17.693 11.368-1.471 6.626s-16.839-6.593-20.91-10.787c-4.071-4.193-15.783-25.436-15.783-25.436l-3.135-11.913z" fill="#ef6e4b"/><path d="M96.984 276.941s-3.471 17.579-2.899 44.04c0 0-13.678 20.17-2.39 77.718h5.921s4.837-48.963 8.538-62.23c3.701-13.267 17.367-17.338 18.107-57.678l-27.277-1.85zm-27.062 51.69c-3.441-11.339-12.284-30.33-34.969-56.072 0 0-1.353-.697-3.182.421-1.931 1.18-1.931 2.566-1.931 2.566s11.375 24.79 18.629 42.953a16.083 16.083 0 0 0 14.934 10.132h6.519z" fill="#ff8b66"/><path d="M111.224 350.556s.078 8.46-5.473 8.604c-7.838.211-8.127-8.327-17.009-8.049-8.882.277-27.201 2.498-33.03-11.38-3.009-7.172 1.11-16.376-8.604-23.315-9.715-6.939-4.996-14.711 0-18.874 4.996-4.152-2.154-8.704 3.053-10.825 1.243-.5 2.465-.444 3.597-.067a8.35 8.35 0 0 1 1.887.955c2.753 1.832 4.685 5.018 4.685 5.018 14.711-40.291 40.902-45.609 40.902-45.609l25.902 8.938c.621 62.685-15.91 94.604-15.91 94.604z" fill="#164353"/><path d="M135.976 196.846s-6.043 2.039-14.639.734c-8.596-1.305-11.39-6.702-17.432-3.228-9.071 5.215-4.826 23.164-2.548 32.497.849 3.48 1.925 12.622-.123 20.167 0 0 12.078 9.398 25.902 8.931l7.542-16.403c-.001-.001 16.401-19.626 1.298-42.698z" fill="#cfd8dc"/><path d="M120.628 181.79s1.005 8.491-2.136 16.216c0 0 4.485 6.621 8.765 2.264 0 0 .391-7.782 5.199-16.586 3.219-5.896-11.828-1.894-11.828-1.894z" fill="#ef6e4b"/><path d="M113.755 182.079s-3.783-2.393-3.356 1.299c.495 4.278 4.668 5.112 5.112 3.616.444-1.495-1.756-4.915-1.756-4.915zm21.702-4.631s2.401-3.778 3.59-.256c1.377 4.081-2.042 6.614-3.082 5.451-1.039-1.163-.508-5.195-.508-5.195z" fill="#ff8b66"/><path d="M127.646 194.866c-6.861 1.536-11.737-2.078-14.747-15.52-1.553-6.934 1.023-11.977 8.708-13.697 7.686-1.721 11.874 1.807 13.427 8.741 3.234 14.443-.3 18.889-7.388 20.476z" fill="#ff8b66"/><path d="M133.835 179.692c.275.663-.174 1.479-1.003 1.822-.829.343-1.724.085-1.998-.578-.275-.663.174-1.479 1.003-1.822.828-.343 1.723-.084 1.998.578zm-14.029 3.536c.111.709-.518 1.396-1.404 1.534-.886.139-1.695-.323-1.806-1.032-.111-.709.518-1.396 1.404-1.534.887-.139 1.695.323 1.806 1.032z" fill="#db614d"/><path d="M129.057 173.429a.353.353 0 0 1-.195-.059c-1.173-.783-2.835-.367-2.853-.363a.352.352 0 0 1-.175-.681c.081-.02 1.987-.497 3.419.46a.35.35 0 0 1-.196.643zm-12.919 2.893a.351.351 0 0 1-.3-.532c.887-1.475 2.815-1.858 2.897-1.874a.356.356 0 0 1 .41.279.352.352 0 0 1-.279.411c-.017.004-1.703.343-2.427 1.546a.35.35 0 0 1-.301.17z" fill="#0e3944"/><path d="M129.358 177.194c.19.852-.039 1.629-.512 1.734-.473.106-1.012-.499-1.203-1.351-.191-.852.038-1.629.512-1.735.473-.105 1.012.499 1.203 1.352zm-9.533 2.051c.191.852-.038 1.629-.512 1.734-.473.106-1.012-.499-1.203-1.351-.191-.852.038-1.629.512-1.735.474-.105 1.012.5 1.203 1.352zm3.082 8.07s4.407-.359 6.349-1.999c0 0-.535 3.443-2.932 3.681-2.398.24-3.417-1.682-3.417-1.682z" fill="#1a4850"/><path d="M126.956 177.287s.155-2.239 1.013-2.273c.858-.034 1.886 1.624 1.886 1.624l1.073-.918-1.182.432s-1.054-1.733-1.87-1.554c-1.161.254-.92 2.689-.92 2.689zm-6.605 1.749s-1.095-1.959-1.886-1.624c-.791.335-1.013 2.273-1.013 2.273l-1.363-.372 1.254-.114s.215-2.017 1.029-2.203c1.16-.266 1.979 2.04 1.979 2.04z" fill="#1a4850"/><path d="m125.13 183.34-.353-.67c.571-.301.62-.708.56-.994-.084-.406-.414-.728-.653-.747-.137-.007-.255.11-.347.354l-.71-.265c.304-.817.879-.862 1.115-.845.603.046 1.19.638 1.339 1.348.153.744-.202 1.424-.951 1.819z" fill="#db614d"/><path d="M114.298 184.499s-2.116-7.786-.86-13.292c0 0 5.969-8.312 17.491-4.202 0 0 3.416 5.502 5.109 13.202 0 0 .43-2.766-.716-8.926s-6.611-9.987-14.106-8.755c-7.494 1.232-15.514 8.688-6.918 21.973z" fill="#0e3944"/><path d="M126.378 165.276s.457 2.032-1.52 7.265c0 0-1.422-1.486-3.087 0-1.665 1.486-5.047.99-6.201 1.793-1.154.803-1.154 2.639-1.154 2.639s-.999-2.286 0-5.028c0 0-2.247 2.856-1.949 6.383 0 0-3.047-.492-2.909-5.52.139-5.027 7.284-13.16 15.3-12.632 8.016.527 9.924 13.219 9.924 13.219s-.731-.575-1.875-.319c0 0-.177-2.688-1.979-6.074 0 0 .83 2.444 0 5.081 0 0-2.233-1.171-3.993-.805 0 .002 1.087-2.124-.557-6.002z" fill="#0e3944"/><path d="M101.87 195.955c3.901-3.076 6.939.837 7.683 6.247.745 5.411-6.31 37.33-11.75 36.154-2.1-.454-2.956-8.815-2.956-8.815s2.128-8.975 3.505-22.483c.633-6.208 1.484-9.499 3.518-11.103z" fill="#ff8b66"/><path d="M90.519 233.845c-5.252-5.006-14.669-21.611-17.061-30.07l3.986-1.603s12.002 17.17 17.473 21.499c5.471 4.33 7.395 9.151 4.952 13.28-2.443 4.129-8.244-2.053-9.35-3.106z" fill="#ff8b66"/><path d="M75.095 192.698c-.275 5.43 4.15 6.717 2.187 10.885-.405.86-1.022 1.317-1.663 1.544-1.216.43-2.567.024-3.474-.893-2.104-2.126-5.356-4.379-7.087-5.367-1.968-1.136-.853-1.445-.853-1.445-.191-.09-.376-.165-.562-.24-1.404-.588-2.527-.81-1.509-1.435 1.146-.712 5.208.772 5.208.772-5.287-3.522-6.722-2.663-5.757-3.411 1.317-1.024 6.344 1.331 6.494 1.402-2.794-2.641-4.819-3.24-3.711-3.638 1.123-.404 6.65 3.599 8.667 5.101.455.337.733.554.733.554-.068-4.437 1.327-3.829 1.327-3.829z" fill="#ff8b66"/><path d="M73.037 195.975c.455.337.733.554.733.554s-.946 1.592.279 3.654c0-.001-2.25-1.478-1.012-4.208zm-4.636 3.118c-.468-.257-3.135-1.759-4.196-1.67-.191-.09-.376-.165-.562-.24.713-.941 4.228 1.525 4.758 1.91z" fill="#ef6e4b"/><g fill="#6097b2"><path d="M89.365 279.668a1.067 1.067 0 1 1-2.133 0 1.067 1.067 0 0 1 2.133 0zm19.04 7.345a1.067 1.067 0 1 1-2.133 0 1.067 1.067 0 0 1 2.133 0zm16.224 3.939a1.067 1.067 0 1 1-2.135 0 1.067 1.067 0 0 1 2.135 0zm-24.928-25.22a1.067 1.067 0 1 1-2.133 0 1.067 1.067 0 0 1 2.133 0z"/><circle cx="102.228" cy="275.874" r="1.067"/><path d="M120.178 281.654a1.067 1.067 0 1 1-2.133 0 1.067 1.067 0 0 1 2.133 0zm2.317-17.494a1.067 1.067 0 1 1-2.135 0 1.067 1.067 0 0 1 2.135 0z"/><circle cx="110.365" cy="260.52" r="1.067"/><path d="M79.921 300.487a1.067 1.067 0 1 1-2.133 0 1.067 1.067 0 0 1 2.133 0zm-15.21-4.538a1.067 1.067 0 1 1-2.135 0 1.067 1.067 0 0 1 2.135 0zm-9.067-8.344a1.07 1.07 0 0 1-.899.477 1.066 1.066 0 0 1-1.066-1.066c0-.133.022-.255.078-.366a8.35 8.35 0 0 1 1.887.955z"/><circle cx="84.303" cy="314.406" r="1.067"/><path d="M58.072 329.534a1.067 1.067 0 1 1-2.133 0 1.067 1.067 0 0 1 2.133 0z"/><circle cx="68.157" cy="320.364" r="1.067"/><circle cx="51.548" cy="312.251" r="1.067"/><path d="M66.022 344.198a1.067 1.067 0 1 1-2.135 0 1.067 1.067 0 0 1 2.135 0zm10.162-56.117a1.067 1.067 0 1 1-2.133 0 1.067 1.067 0 0 1 2.133 0zm10.254-17.975a1.067 1.067 0 1 1-2.133 0 1.067 1.067 0 0 1 2.133 0zm11.605-14.959a1.067 1.067 0 1 1-2.135 0 1.067 1.067 0 0 1 2.135 0zm-23.518 21.794a1.067 1.067 0 1 1-2.133 0 1.067 1.067 0 0 1 2.133 0zm12.981-17.489a1.067 1.067 0 1 1-2.135 0 1.067 1.067 0 0 1 2.135 0zM67.09 307.51a1.067 1.067 0 1 1-2.133 0 1.067 1.067 0 0 1 2.133 0zm-13.408-9.426a1.067 1.067 0 1 1-2.133 0 1.067 1.067 0 0 1 2.133 0z"/><circle cx="91.5" cy="294.882" r="1.067"/><circle cx="113.567" cy="300.487" r="1.067"/><path d="M113.567 270.106a1.067 1.067 0 1 1-2.133 0 1.067 1.067 0 0 1 2.133 0zm12.829 2.238a1.067 1.067 0 1 1-2.133 0 1.067 1.067 0 0 1 2.133 0zm-25.628 36.234a1.067 1.067 0 1 1-2.133 0 1.067 1.067 0 0 1 2.133 0z"/><circle cx="90.433" cy="327.563" r="1.067"/><circle cx="74.049" cy="330.601" r="1.067"/><circle cx="119.111" cy="314.406" r="1.067"/><path d="M105.43 322.499a1.067 1.067 0 1 1-2.133 0 1.067 1.067 0 0 1 2.133 0zm-22.194 23.834a1.067 1.067 0 1 1-2.135 0 1.067 1.067 0 0 1 2.135 0z"/><circle cx="98.634" cy="340.775" r="1.067"/><circle cx="114.495" cy="334.487" r="1.067"/><path d="M108.405 352.849a1.067 1.067 0 1 1-2.133 0 1.067 1.067 0 0 1 2.133 0z"/></g><path d="M107.238 409.056H89.707c-1.144-3.264.966-6.539.611-9.415-.611-4.863 2.22-2.176 2.22-2.176.5-5.229 7.85-6.217 7.772-3.886-.122 3.431.544 5.551 1.521 6.972 1.976 2.853 5.218 2.831 5.773 4.874.056.2.1.4.133.577.544 2.554-.499 3.054-.499 3.054z" fill="#164353"/><path d="M107.737 406.003c-3.631.844-12.002-.255-12.335-2.365-.322-2.043 4.186-2.998 6.428-3.087 1.976 2.853 5.218 2.831 5.773 4.874.057.2.101.4.134.578z" fill="#205260"/><path d="M35.171 273.26c-1.865-1.699-4.896 1.11-4.896 1.11s1.632 2.42.577 3.397c-1.055.977-2.276-1.255-4.352-.278a4.003 4.003 0 0 0-.511.289c-1.621.966-3.309 2.998-4.674 4.541-.278.311-.544.6-.788.855-1.588 1.665-5.684 2.642-6.451-1.799-.766-4.441 4.23-9.648 9.715-14.433 5.485-4.785 9.026-1.943 9.026-1.943s1.243 2.01 1.243 3.264c0 1.243 1.11 1.865 1.732 3.053.623 1.178-.621 1.944-.621 1.944z" fill="#164353"/><path d="M25.989 277.779c-1.621.966-3.309 2.998-4.674 4.541-2.054.488-3.897.344-4.186-1.588-.7-4.663 8.604-10.592 7.861-7.317-.377 1.644.267 3.209.999 4.364z" fill="#205260"/><path d="M350.621 401.475c-.865-.454-1.661-1.452-2.377-2.714 0-.001-.616-3.733 0-7.654.616-3.922-1.091-7.124-6.643-8.327-5.397-1.169-8.599 1.431-7.353 12.281l.001.004c-.821 4.507-.991 9.654.882 13.991h16.613s2.62-5.616-1.123-7.581z" fill="#cfd8dc"/><path d="M365.195 342.996s0 10.825-6.106 21.927c-6.218 11.306-13.905 26.822-13.905 26.822s-5.122 4.997-8.376-3.28c0 0 2.297-28.816 7.571-39.364 5.272-10.546 20.816-6.105 20.816-6.105zm79.661-35.251s9.895 41.61 16.189 52.586c0 0-1.448 4.592-8.263 5.98 0 0-21.526-31.642-22.914-44.965-1.389-13.324 14.988-13.601 14.988-13.601z" fill="#ff8b66"/><path d="M449.641 317.526c-2.631 6.339-22.96 6.684-22.96 6.684l-1.554-2.287-.411-.599-3.175-4.685s-33.685-33.041-40.247-30.266h-.011a3.157 3.157 0 0 0-.555.322c-4.508 3.22-4.93 20.862-10.259 50.472-.511 2.809-1.643 6.084-2.498 8.349-.1.244-.189.478-.278.7a66.8 66.8 0 0 1-.833 2.054c-20.562 8.327-27.346-8.127-27.346-8.127s.244-.477.599-1.243c.078-.167.167-.355.255-.555 1.077-2.376 2.798-6.495 2.776-8.671-.022-2.387-.044-4.685-.055-6.895 0-.2 0-.389-.011-.577-.033-7.117-.022-13.301.022-18.674v-.566c.022-2.343.056-4.53.1-6.573v-.577c.178-9.359.477-15.61.799-19.774.011-.189.033-.389.045-.566.566-7.006 1.166-7.694 1.166-7.694l-4.119-28.634h44.943s6.75 6.761 15.51 15.688c.189.178.366.355.544.544 3.175 3.231 6.606 6.739 10.048 10.303.144.144.277.277.4.411l4.052 4.186c.167.166.322.344.489.511a994.084 994.084 0 0 1 12.624 13.312c.133.133.255.267.378.4 5.118 5.54 9.015 9.97 10.359 12.035 3.564 5.451 6.339 12.546 7.872 16.931v.011c.078.2.144.378.211.566.72 2.13 1.12 3.484 1.12 3.484z" fill="#8b383e"/><path d="M351.938 272.061c-1.832 2.165-4.497 3.497-7.938 3.975.011-.189.033-.389.045-.566 3.242-.466 5.751-1.732 7.472-3.775 3.086-3.642 2.587-8.56 2.576-8.604l.555-.067c.021.211.532 5.207-2.71 9.037zm50.151-16.687c-.178.011-.344.022-.522.022-4.996 0-10.214-5.462-10.481-5.74l.4-.389c.067.078 5.263 5.518 10.059 5.562.188.179.366.356.544.545zm-34.119 90.142c-.1.244-.189.478-.278.7-3.331 1.221-6.384 1.721-9.171 1.721-8.882 0-15.033-5.141-18.408-9.038.078-.167.167-.355.255-.555 4.32 5.062 13.547 12.534 27.602 7.172zm12.069-69.458a46.675 46.675 0 0 1 1.243 10.314 3.157 3.157 0 0 0-.555.322c-.022-16.765-9.726-29.844-9.837-29.988l.444-.333c.089.111 5.84 7.883 8.56 19.108a5.088 5.088 0 0 0 2.22-3.186c1.399-5.884-4.963-15.499-5.018-15.599l.455-.311c.266.411 6.551 9.915 5.107 16.032-.376 1.598-1.265 2.808-2.619 3.641zm50.039 8.438a92.25 92.25 0 0 1-3.353 3.464l-.3.3-.144-.4c-2.176-5.696-16.165-18.042-16.31-18.164l-.167-.156 2.332-3.864c.144.144.277.277.4.411l-1.954 3.242c2.72.944 4.652 1.11 6.006.944.167.166.322.344.489.511a8.63 8.63 0 0 1-1.454.122c-1.255 0-2.687-.255-4.297-.744 3.175 2.864 13.046 12.013 15.311 17.109a100.4 100.4 0 0 0 3.064-3.175c.133.134.255.267.377.4zm-76.763 38.182-.222.044c-.211.056-2.731.577-5.629.577-1.454 0-2.987-.133-4.374-.522 0-.2 0-.389-.011-.577 3.664 1.055 8.56.244 9.67.033l-.932-23.104c-.522 1.266-1.554 2.998-3.486 3.952-.922.466-1.954.688-3.086.688a9.951 9.951 0 0 1-2.143-.244v-.566c1.921.444 3.586.322 4.974-.378 2.354-1.166 3.286-3.664 3.575-4.652-1.854.277-5.596-.666-8.449-1.543v-.577c3.075.933 7.239 2.01 8.738 1.488l.355-.122 1.02 25.503zm95.204-8.638c-3.231 3.186-9.848 8.06-20.029 8.06a32.03 32.03 0 0 1-3.364-.178l-.411-.599c12.379 1.421 20.14-4.386 23.593-7.85.078.201.145.378.211.567z" fill="#662c33"/><path d="M394.339 117.405s-1.235-2.844-6.453-2.845c-4.021-.001-5.56 2.22-5.56 2.22-2.406 7.032-4.991 33.955-5.917 34.913-.469.486-30.296 20.574-30.296 20.574 16.186.303 26.285 20.255 26.285 20.255.523-6.556 18.803-32.536 18.999-34.853.371-4.369 8.104-23.887 2.942-40.264zm-51.78 140.775s-.15 5.617 1.667 5.987c1.817.37 16.62 4.745 33.644-2.993 17.024-7.739 19.985-13.475 14.988-17.731-4.996-4.256-50.299 14.737-50.299 14.737z" fill="#ce364c"/><path d="M335.738 176.155s-15.489-1.835-24.371 2.009c0 0-2.477 10.992 9.725 35.59 12.202 24.599 9.372 40.092 23.134 45.924 12.2 5.171 48.17-10.216 49.3-15.319 2.844-12.846-19.152-35.391-20.54-48.455-1.388-13.063-14.156-32.704-37.248-19.749z" fill="#f24052"/><path d="M311.367 178.164c-10.825 3.844-23.003 15.998-23.02 21.856-.017 5.858 10.157 8.117 10.157 8.117l16.681-8.117s4.771-3.331 1.734-13.041c-3.038-9.709-5.552-8.815-5.552-8.815z" fill="#ce364c"/><path d="M355.845 188.996c-3.234 0-7.246-1.165-9.739-2.942-1.374-.979-2.193-2.083-2.37-3.194-.612-3.845 3.132-5.8 3.293-5.881l.504.988c-.13.067-3.183 1.677-2.7 4.718.128.81.792 1.662 1.917 2.464 2.791 1.99 7.618 3.157 10.761 2.603 1.416-.25 2.343-.76 2.754-1.514.503-.923.074-1.967.069-1.978l1.02-.439c.027.062.647 1.532-.107 2.933-.578 1.073-1.77 1.776-3.543 2.089-.574.104-1.201.153-1.859.153zm-13.727 11.715c-2.395 0-6.372-.999-6.929-4.931-.284-2.001-.101-3.67.06-5.142.237-2.168.425-3.881-.838-5.933-2.086-3.387-4.926-3.615-5.046-3.623l.067-1.108c.142.008 3.52.247 5.924 4.149 1.463 2.377 1.236 4.446.996 6.636-.161 1.476-.328 3.002-.064 4.865.602 4.243 6.01 3.977 6.239 3.965l.066 1.108c-.15.009-.309.014-.475.014z" fill="#cfd8dc"/><path d="M345.488 180.785s8.188-5.577 6.245-11.614c-1.943-6.037-28.311-5.621-35.112 1.596-6.8 7.217 14.711 12.007 14.711 12.007 1.665-3.356 12.305-3.726 14.156-1.989z" fill="#ce364c"/><path d="M330.766 179.84c-3.885-1.319-6.189-4.123-5.356-7.362.833-3.238 17.536-3.324 20.703-.737 3.168 2.588-1.294 12.87-15.347 8.099z" fill="#a02e44"/><path d="M328.917 170.739s3.437 5.872 1.849 9.101c0 0 11.792 4.071 11.792-2.527 0 0-2.222-4.945-1.385-8.142l-12.256 1.568z" fill="#ef6e4b"/><path d="M324.985 165.61s-5.794-9.279-5.257-18.143c.269-4.432 2.548-6.168 2.548-6.168s-1.84-2.558.132-6.467c0 0 2.729 3.158 12.307 2.162 9.236-.96 10.157 5.624 10.157 5.624 6.602.981 2.148 20.951-2.459 22.993h-17.428z" fill="#ffb878"/><path d="M322.527 157.042s-3.33-3.323-3.74.562c-.475 4.501 3.613 6.314 4.412 4.882.798-1.432-.672-5.444-.672-5.444zm23.319.234s3.33-3.323 3.74.562c.475 4.501-3.613 6.314-4.412 4.882-.799-1.431.672-5.444.672-5.444z" fill="#ff8b66"/><path d="M333.835 173.345c-7.389 0-11.559-4.827-11.559-19.302 0-7.467 3.799-12.047 12.076-12.047 8.276 0 11.762 4.58 11.762 12.047 0 15.554-4.645 19.302-12.279 19.302z" fill="#ff8b66"/><path d="M343.667 159.205c.13.743-.518 1.476-1.447 1.638-.928.162-1.787-.309-1.916-1.051-.129-.743.518-1.476 1.447-1.638.928-.162 1.786.309 1.916 1.051zm-15.199.405c-.049.752-.852 1.312-1.792 1.251-.941-.061-1.664-.721-1.615-1.473.049-.752.851-1.313 1.792-1.251.942.061 1.664.72 1.615 1.473z" fill="#db614d"/><path d="M340.413 151.444a.366.366 0 0 1-.281-.072c-1.176-.904-2.941-.584-2.968-.58a.374.374 0 0 1-.43-.295.368.368 0 0 1 .295-.431c.077-.017 2.118-.383 3.553.721a.37.37 0 0 1-.169.657zm-14.142.051a.368.368 0 0 1-.189-.652c1.4-1.147 3.45-.843 3.529-.829a.37.37 0 0 1 .308.421.377.377 0 0 1-.421.309c-.013-.005-1.811-.261-2.947.671a.374.374 0 0 1-.28.08z" fill="#ffb878"/><path d="M339.649 155.615c0 .917-.413 1.662-.923 1.661-.51 0-.923-.744-.923-1.661 0-.918.413-1.662.923-1.662s.923.744.923 1.662zm-9.868 0c0 .917-.413 1.662-.923 1.661-.51 0-.923-.744-.923-1.661 0-.918.413-1.662.923-1.662s.923.744.923 1.662z" fill="#1a4850"/><path d="M324.543 143.599s7.875 2.883 19.164 2.072c0 0 2.407 3 2.115 13.587 0 0 6.611-19.07-12.687-19.07s-10.604 18.647-10.604 18.647-1.578-11.663 2.012-15.236z" fill="#ffb878"/><path d="m334.303 160.549-.553-.557 1.462-1.452c-1.417-2.004-1.41-6.641-1.408-6.848l.785.004c0 .05-.008 5.039 1.439 6.607l.257.278-1.982 1.968z" fill="#db614d"/><path d="M329.399 162.966s7.273.307 10.944-.664c0 0 .649 5.289-4.987 5.551-5.957.277-5.957-4.887-5.957-4.887z" fill="#1a4850"/><path d="M360.476 182.96c1.388-.258 1.249 3.374 0 2.321-1.249-1.052-1.388-2.063 0-2.321zm-16.736 17.599c-.211 1.396-3.597.074-2.193-.761 1.403-.835 2.404-.635 2.193.761z" fill="#cfd8dc"/><path d="M328.843 208.137s-2.204 5.651-2.078 8.844c.126 3.193 1.17 2.776 1.17 2.776s-1.671.658-1.988 2.498c-.316 1.84 4.33 3.192 4.649 3.192.319 0 3.598-1.249 3.598-1.249l.687-10.443-2.903-1.823-3.135-3.795z" fill="#ef6e4b"/><path d="M330.596 207.406s4.012 2.498 5.566 4.025c1.554 1.527.667 13.323 0 13.878-.667.555-5.782 1.7-6.763 1.058-.981-.642.382-4.111.382-4.111s2.569-.555 2.198.416c-.37.972 0 1.804 0 1.804l1.055-.416s-.518-2.637 0-4.58-3.617-3.992-4.117-7.547c-.5-3.556 1.679-4.527 1.679-4.527z" fill="#ff8b66"/><path d="M289.013 201.658c-1.285-5.547 4.221-7.51 11.88-6.564 8.882 1.097 27.122 3.42 31.087 13.043 0 0 1.295 3.795-2.056 5.618-9.37 5.096-38.499-1.678-40.911-12.097z" fill="#ce364c"/><path d="M316.798 197.983s-10.585-4.397-15.859-4.843c-5.274-.445 7.292 4.163 15.859 4.843z" fill="#a02e44"/><path d="M396.149 102.681c-.799.91-2.121 4.452-2.121 4.452-.555 2.975-.877 4.619-1.921 5.984-1.033 1.366-.489 3.775-.489 3.775s-4.041 2.076-7.439-.489c0 0 .355-2.387 0-3.064-.699-1.354-2.942-2.076-3.708-4.807-.766-2.742-3.064-5.796-3.064-5.796s.655-1.421 1.854-.555c1.21.877 1.976 3.064 2.631 3.286.133.044.267.078.4.089 0 0 .011 0 .033.011.5.067 1.01-.044 1.321-.344a.203.203 0 0 0 .078-.067c1.099-1.277 1.355-5.03 1.31-6.706-.067-2.331.022-5.551 1.443-5.007 1.421.544.122 1.843 1.221 6.984l.533.067c.1.366 1.077-3.12 1.31-6.395.167-2.254 1.643-1.421 1.965-.711.333.711-.167 2.953-.266 4.585a311.195 311.195 0 0 1-.222 2.865l.622.344c2.243-3.908 1.477-5.529 2.787-5.607 1.299-.078.833 3.22.133 4.474-.3.544-.588 1.676-.822 2.787 2.298-2.654 2.043-4.041 3.098-3.875 1.089.178.112 2.809-.687 3.72z" fill="#ff8b66"/><path d="M386.223 108.798c-.777-2.143-3.553-3.12-3.897-3.231.5.067 1.01-.044 1.321-.344 2.72 1.221 2.576 3.575 2.576 3.575z" fill="#ef6e4b"/><path d="M337.993 392.771s-1.536-3.135-.167-4.482c1.369-1.347 2.982 1.151 5.321.596 2.34-.555 2.882-2.218 3.49.047.609 2.266-.132 9.39-8.644 3.839z" fill="#cfd8dc"/><path d="M346.8 392.632s-6.284 2.226-9.541 0l.828 2.72s6.83.723 7.772-.998l.941-1.722zm-.085 3.38s-5.753-.798-8.529.63v1.349s7.501-1.751 9.926 0l-1.397-1.979z" fill="#adbec4"/><path d="M337.91 400.791s1.116-2.719 4.616-2.914c3.5-.195 5.862 1.732 5.862 1.732s-5.551-2.287-10.478 1.182z" fill="#adbec4"/><path d="M486.002 363.013c-11.047 14.744-26.08 17.575-26.08 17.575-4.363-3.486-4.474-7.616-4.474-7.616s-4.208-3.753-4.763-5.551c-.555-1.799 3.608-7.217 6.106-6.661 1.721.377 2.72 1.754 3.175 2.565-2.065-4.652-.411-6.273 2.52-5.873 3.053.411.167 1.133 2.354 3.586.155.178.333.322.522.455.4.278.877.466 1.421.566.477.089 1.01.111 1.565.078.289-.011.588-.044.888-.089a12.03 12.03 0 0 0 1.743-.422 15.656 15.656 0 0 0 2.809-1.21c3.819-2.087 5.429-2.798 8.338-2.054 2.898.733 2.853 2.931 2.853 2.931l1.023 1.72z" fill="#cfd8dc"/><path d="M486.002 363.013c-11.047 14.744-26.08 17.575-26.08 17.575 7.672-3.297 14.722-7.616 19.54-12.935 4.808-5.317 6.54-4.64 6.54-4.64z" fill="#adbec4"/><g fill="#adbec4"><path d="M465.362 361.492c.4.278.877.466 1.421.566-2.92.588-3.131 3.198-3.131 3.198l-1.243-.4c.266-3.131 2.742-3.353 2.953-3.364z"/><path d="m467.327 365.567-1.299.044c-.489-1.843.144-2.942.755-3.553.477.089 1.01.111 1.565.078-1.543 1.521-1.021 3.431-1.021 3.431zm3.209-.711-1.288.166c-.5-1.31-.355-2.287-.011-2.975a12.03 12.03 0 0 0 1.743-.422c-1.066 1.588-.444 3.231-.444 3.231z"/></g><path d="M346.914 227.946s2.851 15.386-2.915 21.517c-5.765 6.131-1.951 1.093-.232-6.812 1.721-7.905.411-16.232 3.147-14.705zm26.608-6.867s9.088 2.986 13.842 11.38c0-.001-6.348-13.667-13.842-11.38z" fill="#ce364c"/><path d="M137.473 106.767c1.211.019 4.723 1.417 4.723 1.417 2.578 1.586 4.012 2.451 5.725 2.594 1.705.152 2.405 3.081 2.405 3.081s6.725 1.471 7.105-2.769c0 0-3.759-5.321-4.023-6.039-.534-1.428.436-3.574-1.073-5.976-1.518-2.409-2.238-6.162-2.238-6.162s-1.493-.468-1.656 1.002c-.162 1.486.944 3.522.669 4.157-.057.128-.121.25-.202.356 0 0-.007.008-.014.032-.286.415-.711.719-1.142.748a.208.208 0 0 1-.102.013c-1.684-.042-4.637-2.373-5.849-3.531-1.683-1.615-4.129-3.71-4.68-2.292-.551 1.419 1.284 1.328 4.356 5.593l-.308.44c.204.32-3.035-1.296-5.619-3.322-1.782-1.39-2.156.264-1.846.979.303.724 2.301 1.859 3.577 2.881.85.665 1.741 1.352 2.272 1.759l-.162.692c-4.402-.962-5.089-2.618-6.026-1.699-.93.91 1.827 2.779 3.227 3.103.604.143 1.638.689 2.617 1.262-3.51-.078-4.367-1.199-4.951-.306-.602.926 2.004 1.968 3.215 1.987z" fill="#ff8b66"/><path d="M148.671 103.518c-1.066-2.015.073-4.728.222-5.057-.286.415-.711.719-1.142.748-.922 2.835.92 4.309.92 4.309z" fill="#ef6e4b"/><path d="M335.329 106.767c-1.211.019-4.723 1.417-4.723 1.417-2.578 1.586-4.012 2.451-5.725 2.594-1.705.152-2.405 3.081-2.405 3.081s-6.725 1.471-7.105-2.769c0 0 3.76-5.321 4.023-6.039.534-1.428-.436-3.574 1.073-5.976 1.518-2.409 2.238-6.162 2.238-6.162s1.493-.468 1.656 1.002c.162 1.486-.944 3.522-.669 4.157.057.128.121.25.203.356 0 0 .007.008.014.032.286.415.711.719 1.142.748a.208.208 0 0 0 .102.013c1.684-.042 4.637-2.373 5.85-3.531 1.683-1.615 4.129-3.71 4.68-2.292.551 1.419-1.284 1.328-4.356 5.593l.308.44c-.204.32 3.035-1.296 5.619-3.322 1.782-1.39 2.156.264 1.846.979-.303.724-2.301 1.859-3.577 2.881-.85.665-1.741 1.352-2.272 1.759l.162.692c4.402-.962 5.089-2.618 6.026-1.699.93.91-1.827 2.779-3.227 3.103-.604.143-1.638.689-2.617 1.262 3.509-.078 4.367-1.199 4.951-.306.6.926-2.006 1.968-3.217 1.987z" fill="#ff8b66"/><path d="M324.131 103.518c1.066-2.015-.073-4.728-.222-5.057.286.415.711.719 1.142.748.922 2.835-.92 4.309-.92 4.309z" fill="#ef6e4b"/><path d="m276.231 310.613-12.919-79.991-25.868 2.889-25.868-2.889-12.919 79.991-6.205 77.581s1.973 6.428 14.877 1.987c0 0 9.574-71.958 11.054-73.543 1.48-1.585 16.683-48.586 16.683-48.586h4.755s15.202 47.001 16.683 48.586c1.48 1.585 11.054 73.543 11.054 73.543 12.905 4.441 14.877-1.987 14.877-1.987l-6.204-77.581z" fill="#0e3944"/><path d="M229.294 153.16c1.634 1.59 9.673 4.459 13.918 0l2.878 2.827s-3.282 7.718-9.041 7.988c-5.76.27-9.923-6.867-9.923-6.867l2.168-3.948zm22.767-.872c9.622-4.143 40.709-15.154 40.709-15.154s20.898-26.182 25.16-30.068c0 0 4.626.833 5.98 6.592 0 0-13.457 28.814-20.771 37.063-7.315 8.249-44.362 26.09-44.362 26.09l-6.716-24.523z" fill="#0c476b"/><path d="M218.383 151.694c2.863-1.81 17.234 7.804 17.234 7.804s18.684-9.922 23.069-8c0 0 3.952 5.288 5.539 18.882 1.588 13.594 1.693 69.536 1.693 69.536s-12.562 4.444-29.553 4.444c-19.37 0-29.791-5.555-29.791-5.555s-3.457-77.456 11.809-87.111z" fill="#ffb878"/><path d="M230.053 150.241s2.069 6.509 0 9.017c0 0 2.149 4.509 6.012 4.709 4.463.23 6.011-4.709 6.011-4.709s-2.36-6.287 0-8.496l-12.023-.521z" fill="#ef6e4b"/><path d="M224.894 143.834s-4.355-8.382-3.493-17.34c.862-8.957 14.359-11.011 23.454-6.61 0 0-2.7-2.64-1.643-3.374 1.057-.733 2.878 3.961 2.878 3.961s2.873-.88 3.313 0c.44.881-2.943 1.362-2.943 1.362s5.869 3.255.386 20.578l-21.952 1.423z" fill="#8b383e"/><path d="M224.239 138.526s-3.247-3.24-3.647.548c-.463 4.389 3.523 6.157 4.302 4.761.779-1.397-.655-5.309-.655-5.309zm22.738.229s3.247-3.241 3.647.548c.463 4.389-3.523 6.157-4.302 4.761-.779-1.397.655-5.309.655-5.309z" fill="#ff8b66"/><path d="M235.266 154.422c-7.205 0-11.271-4.706-11.271-18.821 0-7.281 3.704-11.747 11.775-11.747 8.07 0 11.469 4.466 11.469 11.747 0 15.167-4.53 18.821-11.973 18.821z" fill="#ff8b66"/><path d="M244.852 140.635c.127.724-.505 1.439-1.411 1.597s-1.742-.301-1.868-1.025c-.127-.724.505-1.439 1.411-1.597.905-.158 1.742.301 1.868 1.025zm-14.819.395c-.048.734-.83 1.28-1.748 1.22-.917-.06-1.622-.703-1.574-1.437.048-.733.83-1.28 1.748-1.22.917.06 1.622.703 1.574 1.437z" fill="#db614d"/><path d="M241.557 133.311a.358.358 0 0 1-.26-.111c-.999-1.047-2.747-1.002-2.773-1.002a.366.366 0 0 1-.371-.349.358.358 0 0 1 .348-.371c.077-.005 2.099-.052 3.316 1.225a.358.358 0 0 1-.26.608zm-13.566 0a.361.361 0 0 1-.261-.608c1.218-1.278 3.237-1.229 3.316-1.225a.36.36 0 0 1 .348.371.367.367 0 0 1-.371.349c-.013-.003-1.784-.036-2.771 1.002a.362.362 0 0 1-.261.111z" fill="#8b383e"/><path d="M240.934 137.134c0 .895-.403 1.62-.9 1.62s-.9-.726-.9-1.62c0-.895.403-1.62.9-1.62.498 0 .9.725.9 1.62zm-9.621 0c0 .895-.403 1.62-.9 1.62s-.9-.725-.9-1.62c0-.895.403-1.62.9-1.62s.9.726.9 1.62zm0 9.573s6.354.818 9.622-.751c0 0-1.848 4.326-5.318 3.938-3.471-.387-4.304-3.187-4.304-3.187z" fill="#1a4850"/><path d="M246.488 140.354s-.225-7.836-3.276-13.859c0 0-5.378 2.486-6.562 1.899-1.184-.587 1.128-1.899 1.128-1.899s-8.874 2.926-9.407 2.339c-.533-.587 2.941-2.339 2.941-2.339l-5.528 1.899s-1.704 7.05-.999 11.961c0 0-2.375-4.099-2.669-6.93-.294-2.831.951-10.899 9.277-11.486 8.327-.587 13.003 1.303 15.066 5.126 2.064 3.822 1.808 8.525.029 13.289z" fill="#8b383e"/><path d="M236.522 144.443c-.7.001-1.411-.181-1.626-.241l.204-.737c.756.209 1.942.333 2.201.028.089-.106.054-.352-.099-.675-1.041-2.215-1.258-7.822-1.267-8.059l.766-.028c.002.057.219 5.688 1.194 7.761.298.632.294 1.135-.009 1.495-.296.35-.827.456-1.364.456z" fill="#db614d"/><path d="M244.494 155.222s13.04 40.48 14.282 73.417c0 0 4.707 1.295 10.006-5.921 5.299-7.217 2.147-64.379-8.005-73.897-.001 0-4.607-1.05-16.283 6.401z" fill="#105e99"/><path d="M246.619 162.301s2.334-5.423 1.297-9.142-4.704 0-4.704 0 1.482 6.089 3.407 9.142zm-26.174-10.013c-9.622-4.143-40.709-15.154-40.709-15.154s-20.951-26.946-25.213-30.831c0 0-5.274 2.984-5.631 9.16 0 0 13.161 27.01 20.476 35.259 7.315 8.249 44.362 26.09 44.362 26.09l6.715-24.524z" fill="#0c476b"/><path d="M228.013 155.222s-13.04 40.48-14.282 73.417c0 0-4.707 1.295-10.006-5.921-5.299-7.217-2.147-64.379 8.005-73.897 0 0 4.606-1.05 16.283 6.401z" fill="#105e99"/><path d="M225.887 162.301s-2.334-5.423-1.297-9.142c1.037-3.719 4.704 0 4.704 0s-1.481 6.089-3.407 9.142z" fill="#0c476b"/><path d="M293.938 409.056h-25.891c-1.81-10.292 1.077-20.595 1.077-20.595l11.835-2.032c1.077 6.506 2.376 9.071 4.175 10.392h.011c1.31.955 2.875 1.266 4.83 1.943 2.232.777 3.409 2.187 3.997 3.719 1.166 3.042-.034 6.573-.034 6.573z" fill="#662c33"/><path d="M293.972 402.483c-6.384.799-20.407 2.165-19.552-1.532.711-3.087 6.628-3.919 10.714-4.13h.011c1.31.955 2.875 1.266 4.83 1.943 2.231.777 3.408 2.187 3.997 3.719z" fill="#8b383e"/><path d="M207.227 409.056h-25.891s-.822-2.42-.444-4.985c.311-2.087 1.421-4.275 4.408-5.307 2.243-.777 3.964-1.066 5.374-2.387 1.532-1.443 2.676-4.108 3.642-9.948l11.835 2.032s2.875 10.303 1.076 20.595z" fill="#662c33"/><path d="M180.892 404.071c.311-2.087 1.421-4.275 4.408-5.307 2.243-.777 3.964-1.066 5.374-2.387 3.275 1.01 7.861 2.865 9.282 5.673 1.976 3.852-13.157 3.242-19.064 2.021z" fill="#8b383e"/><path d="M393.107 407.202c0 1.088-.111 1.854-.111 1.854h-31.453c0-.622.011-1.243.044-1.854.355-8.227 2.953-15.366 2.953-15.366l7.861-3.375c.677 4.052 2.42 6.639 4.608 8.327.577.455 1.177.833 1.799 1.155a15.065 15.065 0 0 0 2.887 1.177c2.776.844 5.585 1.021 7.55 1.321 3.351.521 3.862 4.396 3.862 6.761z" fill="#164353"/><path d="M393.107 407.202c0 1.088-.111 1.854-.111 1.854h-31.453c0-.622.011-1.243.044-1.854h31.52zm-14.301-9.26-4.363 1.399-.922-1.599 3.486-.955c.578.456 1.178.833 1.799 1.155zm2.887 1.177-2.942 1.954-1.81-.711 2.742-1.987c.656.3 1.333.544 2.01.744z" fill="#225866"/><path d="M272.932 407.202c-.078 1.066-.355 1.854-.355 1.854h-20.95a9.547 9.547 0 0 1-.589-1.854c-2.065-10.026 11.857-22.294 11.857-22.294l4.419 5.896s-.511 9.437 3.231 11.402c2.243 1.176 2.532 3.397 2.387 4.996z" fill="#164353"/><path d="M251.038 407.202h21.894c-.078 1.066-.355 1.854-.355 1.854h-20.95a9.433 9.433 0 0 1-.589-1.854zm18.55-5.748s-8.827-2.012-12.851.593v-1.457s7.424-3.608 12.851.864z" fill="#225866"/><path d="M267.839 399.215s-5.636-2.577-11.103 0l.624-1.47c.001 0 6.53-2.469 10.479 1.47z" fill="#225866"/><path d="M383.614 318.07c.011 8.427-7.472 77.13-7.472 77.13-7.483.744-13.478-.755-13.478-.755-2.054-34.818-2.254-64.761-2.254-64.761l-35.861-26.879-.089-.067s-.133.611-.378 1.699c-1.776 7.883-9.293 40.902-12.424 48.463-3.564 8.616-42.532 44.846-42.532 44.846-7.239-.999-13.381-6.242-13.381-6.242 13.989-23.204 33.063-46.475 33.063-46.475 1.488-8.36 2.554-26.957 3.187-40.857l.033-.644a1216.3 1216.3 0 0 0 .633-16.521l-6.573-13.479 41.757-15.344 9.359 11.98s2.143 1.987 5.518 5.163l.466.433c12.536 11.823 40.426 38.535 40.426 42.31z" fill="#8bbddb"/><path d="m291.996 304.17.033-.644c8.793-4.774 7.317-12.391 7.294-12.468l.544-.111c.022.077 1.599 8.26-7.871 13.223zm31.908-6.751c.3 1.665.522 3.464.644 5.385l-.089-.067s-.133.611-.378 1.699c-.388-13.057-5.773-20.773-5.84-20.862l.455-.322c.055.067 3.453 4.974 5.096 13.534 6.351-5.64.133-17.198.067-17.309l.488-.266c.068.122 6.652 12.357-.443 18.208zm19.285-21.661c-.011.011-.033.011-.044.022a2.4 2.4 0 0 1-.866.144c-3.075 0-8.238-4.308-8.482-4.519l.366-.422c1.677 1.421 6.351 4.83 8.56 4.341l.466.434z" fill="#6097b2"/><path d="M289.013 201.658s12.702-2.044 19.066 2.013c6.364 4.057 14.72 14.646 14.72 14.646s-9.921 1.31-11.044 8.049c0 0-7.206-17.162-22.742-24.708z" fill="#adbec4"/><path d="M269.905 208.283c-5.373 2.905-14.354 13.81-14.76 20.516-.396 6.541 4.45 12.557 7.716 17.671 10.193 15.959 20.925 30.06 25.486 48.778.029.119 23.315 9.359 50.644-23.491 0 0-15.443-20.777-20.777-38.466-2.171-7.2-4.381-14.849-8.552-21.195-4.594-6.99-12.463-11.102-20.648-10.439-6.927.563-13.816 3.764-19.109 6.626z" fill="#cfd8dc"/><path d="M267.65 201.589s3.436 5.872 1.849 9.101c0 0 11.793 4.071 11.793-2.527 0 0-2.223-4.945-1.385-8.142l-12.257 1.568zm26.204 40.209s-6.56 1.863-8.215 4.185-3.128 7.531-3.128 7.531h11.343l2.133-3.924 2.497-5.23-4.63-2.562z" fill="#ef6e4b"/><path d="M283.01 195.041s4.605-1.932 1.626-15.783c-1.974-9.178-4.818-10.546-6.655-10.627 0 0-2.248-3.387-10.045-1.766-5.34 1.111-9.601 4.354-11.477 10.355-1.958 6.264 1.958 19.691 7.115 21.027l19.436-3.206z" fill="#164353"/><path d="M284.099 185.681s2.902-4.04 3.998-.058c1.27 4.613-2.682 7.208-3.762 5.852-1.079-1.356-.236-5.794-.236-5.794zm-24.284 4.257s-4.046-2.893-3.805 1.23c.279 4.776 4.855 5.964 5.442 4.333.588-1.631-1.637-5.563-1.637-5.563z" fill="#ff8b66"/><path d="M275.109 204.632c7.708-1.272 11.227-7.024 8.736-22.124-1.285-7.789-6.036-11.913-14.669-10.488-8.633 1.424-11.481 6.801-10.196 14.591 2.676 16.225 8.166 19.335 16.129 18.021z" fill="#ff8b66"/><path d="M262.42 191.575c-.007.797.795 1.451 1.792 1.46.997.009 1.811-.63 1.818-1.427.007-.797-.795-1.451-1.792-1.46-.996-.008-1.81.63-1.818 1.427zm15.924-2.193c.18.776 1.114 1.222 2.085.997.971-.226 1.611-1.038 1.431-1.815-.181-.776-1.114-1.223-2.085-.997-.971.226-1.612 1.038-1.431 1.815z" fill="#db614d"/><path d="M264.59 183.164a.39.39 0 0 1-.323-.61c1.078-1.581 3.241-1.884 3.333-1.897a.39.39 0 0 1 .103.774c-.02.002-1.913.273-2.79 1.562a.39.39 0 0 1-.323.171zm14.512-2.394a.383.383 0 0 1-.235-.079c-1.248-.942-3.123-.587-3.141-.583a.385.385 0 0 1-.459-.307.39.39 0 0 1 .307-.459c.09-.017 2.236-.427 3.763.725a.392.392 0 0 1-.235.703zm-13.108 6.368c.158.957.717 1.663 1.249 1.575.532-.088.835-.935.677-1.892-.158-.957-.717-1.662-1.249-1.574-.532.087-.835.934-.677 1.891zm10.293-1.698c.158.957.717 1.662 1.249 1.574.532-.088.835-.935.677-1.892-.158-.957-.717-1.662-1.249-1.574-.532.088-.835.935-.677 1.892zm2.89 8.691s-6.686 1.794-10.395 1.081c0 0 2.563 3.228 6.223 2.297 3.659-.93 4.172-3.378 4.172-3.378z" fill="#1a4850"/><path d="M279.493 175.501s-8.7 6.299-19.62 6.779l.309 9.721s-10.178-18.754 9.953-22.075c20.13-3.321 14.271 17.626 14.271 17.626s-.625-9.035-4.913-12.051z" fill="#0e3944"/><path d="m272.377 191.519-.055-.84c.012-.001 1.173-.091 1.475-.81.125-.296-.37-1.24-.807-2.072-.606-1.157-1.36-2.596-1.681-4.195l.826-.166c.296 1.481 1.019 2.861 1.6 3.97.647 1.235 1.115 2.127.837 2.789-.504 1.201-2.126 1.32-2.195 1.324z" fill="#db614d"/><path d="M284.213 175.525c-14.633-6.351-28.445 6.817-28.445 6.817s-1.61-10.67 1.21-13.168a16.885 16.885 0 0 1 2.343-1.743c6.462-4.075 15.055-3.997 18.996-2.598.81.289 1.432.633 1.788.999 2.331 2.42 4.108 9.693 4.108 9.693z" fill="#ce364c"/><path d="M282.436 173.148s-12.291-2.431-23.748 5.152c0 0-.733-6.884.633-10.869 6.462-4.075 15.055-3.997 18.996-2.598 2.298 2.62 4.119 8.315 4.119 8.315z" fill="#cfd8dc"/><path d="M256.978 181.087s1.949-8.275 4.574-10.606c4.366-3.877 16.636-5.209 23.085-2.878s0 9.377 0 9.377-10.279-7.362-27.659 4.107z" fill="#a02e44"/><path d="M275.956 236.074s5.023 7.78 13.577 12.357c0 0 10.702-9.289 24.577-8.453 0 0-11.5 20.748-21.375 23.046-5.189 1.207-23.953-11.218-23.953-11.218s3.746-13.206 7.174-15.732z" fill="#ff8b66"/><path d="M257.459 221.969c4.597-7.483 15.201 3.579 18.81 11.479 3.609 7.901 6.243 9.576 6.243 9.576s-10.596 4.426-10.52 12.368c-.001 0-24.564-17.094-14.533-33.423z" fill="#adbec4"/><path d="M289.533 245.013s6.454-6.332 27.676-14.596l-2.741-8.62c2.434-3.204 6.91-3.204 6.91-3.204s10.873 15.354 9.001 19.94c-1.168 2.865-23.847 5.871-40.846 6.48z" fill="#ef6e4b"/><path d="M312.775 232.485s.167-.907.952-2.014c.784-1.107.572-3.122.853-3.747.281-.624 1.951-3.177 3.059-3.673 1.108-.497 2.562-1.309 2.871.098.309 1.406-1.985 1.008-3.015 3.031 0 0 2.254-.729 4.042-.306 1.788.423 2.294 2.057.085 2.003-1.762-.043-4.031 1.213-4.031 1.213s2.296.345 1.926 1.404c-.514 1.463-3.314.562-6.742 1.991z" fill="#ff8b66"/><path d="M155.819 261.392c1.897 4.857 9.668 13.184 9.668 13.184s18.984-11.38 27.742-6.592c8.758 4.788 15.718 7.709 21.398 5.624s-18.676-46.38-18.676-46.38l-31.578-12.05s-.689 7.987-4.297 9.406c-3.608 1.419-7.455 14.603-7.197 17.101.257 2.498 2.94 19.707 2.94 19.707z" fill="#3e6575"/><path d="M191.349 274.865s-8.143 15.962-24.954 36.404c0 0-1.723 24.309-46.179 62.556l-4.654-3.661s26.475-41.471 31.77-54.186c5.296-12.715-2.927-24.365 21.435-56.526l22.582 15.413z" fill="#ef6e4b"/><path d="M165.432 246.62c-7.009 13.427-9.362 30.593-9.362 30.593l-3.192 8.053s11.322 6.106 24.396 8.327l5.243-13.878-17.085-33.095z" fill="#662c33"/><path d="M201.991 273.608s3.471 17.579 2.899 44.04c0 0 13.678 20.17 2.39 77.718h-5.921s-4.837-48.962-8.538-62.23c-3.701-13.267-17.367-17.338-18.107-57.678l27.277-1.85z" fill="#ff8b66"/><path d="M205.462 292.479s-11.136 1.999-30.754 1.077l-.311-2.209-.078-.566-2.032-14.3s-1.887-2.332-3.83-6.129a31.553 31.553 0 0 1-.677-1.377c-2.643-5.629-4.985-13.812-2.354-22.349l4.141.189.577.033 13.856.633.588.033 4.552.211.71.033 2.953.133s15.011 13.512 12.335 38.493l.189 3.475.022.566.113 2.054z" fill="#8b383e"/><path d="M170.145 246.847c-.389 1.144-3.009 9.626-1.688 23.504a31.553 31.553 0 0 1-.677-1.377c-.988-12.69 1.288-20.606 1.787-22.161.067-.189.1-.277.1-.289l.522.189c0 .012-.022.057-.044.134zm35.206 43.578c-3.941 1.01-10.625 1.288-16.976 1.288-5.696 0-11.103-.233-13.978-.366l-.078-.566c4.985.244 18.108.755 26.568-.167l-.544-8.938c.133-10.425-3.02-19.329-6.062-25.48-7.705-1.399-9.826-7.106-10.281-8.716a5.679 5.679 0 0 1-.1-.422l.544-.089c0 .011.044.211.144.544.5 1.665 2.565 6.628 9.371 8.049-2.054-4.008-3.997-6.75-4.818-7.838-.244-.333-.4-.522-.411-.533l.422-.355c.022.022.278.333.699.921 2.576 3.497 11.269 16.654 11.047 33.896l.544 8.893c1.477-.178 2.798-.4 3.886-.688l.023.567z" fill="#662c33"/><path d="M176.984 186.385c-4.419-2.434-36.262 10.054-36.262 10.054s-4.711 8.403-1.774 11.698c2.937 3.295 13.356 1.842 16.548 0 3.192-1.842 11.647-3.236 11.647-3.236l9.841-18.516z" fill="#8bbddb"/><path d="M205.143 159.876s6.578 2.539 8.984 10.117c2.406 7.578-4.787 26.764-2.301 35.583 2.486 8.819 2.1 25.473-5.664 28.989-7.764 3.516-23.687-2.776-27.105-12.398-3.419-9.622-1.943-46.076 4.628-58.473 6.572-12.399 19.876-6.155 21.458-3.818z" fill="#f24052"/><path d="M197.584 192.572c1.735 1.87 6.195-1.463 6.195-1.463s-.091 16.537-4.897 17.805c-4.806 1.268-17.055-13.027-16.551-16.912.504-3.887 11.406-3.578 15.253.57z" fill="#8bbddb"/><path d="M179.057 188.436s4.862 4.128 13.331 6.091c8.47 1.963 13.06-2.019 17.391 3.442 6.501 8.197-4.076 23.308-9.641 31.139-2.075 2.919-6.453 11.017-7.338 18.785 0 0-14.696 4.269-27.369-1.273l-.946-18.029c.001 0-7.988-24.297 14.572-40.155z" fill="#0e3944"/><path d="M194.251 205.976s6.715-16.003 8.66-17.025c1.945-1.022 6.876 1.431 7.866 3.62.99 2.189 0 6.964 0 6.964s-5.296-6.044-16.526 6.441z" fill="#8bbddb"/><path d="M226.413 273.604c-3.053 6.251-10.548 8.049-10.548 8.049s-.566-.866-1.521-2.42a9.972 9.972 0 0 1-.311-.511c-5.896-9.559-23.915-40.147-23.56-56.057.411-19.008 12.812-29.444 12.812-29.444 6.295 1.499 8.283 3.22 8.283 3.22s2.121 10.814.178 23.826c-1.943 13.001-5.474 16.443-3.697 17.42 1.765.966 0 2.909 0 2.909s10.447 14.555 12.402 19.085l4.763 11.103c.089.222.178.444.266.644l.933 2.176z" fill="#6097b2"/><path d="M208.266 196.439s-7.48 5.545-3.122 14.017l20.734 21.465c-11.38 12.126-12.508 17.105-20.734 22.695l3.122 4.836s28.81-22.142 28.853-27.531c.018-2.307-17.598-30.215-28.853-35.482z" fill="#ff8b66"/><path d="M204.689 254.618s-3.952.438-6.441 1.061c-2.489.622-5.807 1.244-5.911 1.763-.104.518 5.496 0 5.496 0s-4.563 1.874-4.666 2.596 5.807-.522 5.807-.522-3.733 2.281-3.526 2.903c.207.622 4.806-.933 4.806-.933s-.855 2.177-1.742 3.214c0 0 .891.489 2.698-1.518 1.807-2.008 4.693-1.363 6.978-3.144 2.284-1.782-1.419-5.688-3.499-5.42z" fill="#ff8b66"/><path d="M183.502 191.099s-5.691 3.677-9.285 12.559c-3.594 8.882-14.935 25.596-17.592 29.915-2.657 4.318-.806 27.819-.806 27.819s-3.331-14.248-4.811-19.8c-1.48-5.551 4.78-19.269 5.721-19.997.941-.728 5.752.604 4.827-4.965s11.983-29.569 15.429-30.245c-.001 0 5.519 1.037 6.517 4.714zm-17.598 1.201c-.1.189-.211.378-.344.555-1.288 1.854-3.686 3.331-3.686 3.331s-4.341 6.084-4.385 6.784c-.044.6-7.539 6.04-10.869 5.929h-.011c-.455-.011-.833-.133-1.099-.378-1.976-1.865 6.728-17.52 8.649-20.895.122-.222.222-.389.289-.5.044-.089.078-.144.078-.144s-1.532-5.707 4.863-4.641c5.318.877 6.373 5.107 6.928 7.938.131.678-.058 1.366-.413 2.021z" fill="#6097b2"/><path d="M143.574 198.216c4.393-5.775 19.851-16.975 27.993-20.29l2.035 3.784s-15.733 13.832-19.429 19.749c-3.696 5.917-8.275 8.364-12.649 6.394-4.375-1.971 1.126-8.421 2.05-9.637z" fill="#ff8b66"/><path d="m164.372 191.113-.833.955-.422.488-1.377 1.577s-3.464 4.197-3.331 5.884c.1 1.21-6.573 6.628-11.791 8.882-2.121.921-4.008 1.321-5.107.688-3.775-2.176-2.931-8.715-.788-13.145 1.865-3.864 10.114-8.849 12.235-10.07.266-.167.433-.266.488-.289l.011-.011.788-3.064s2.876-1.732 5.141-.666c0 0-4.996.211-4.174 2.154.844 1.953 7.772 6.55 9.16 6.617z" fill="#8bbddb"/><path d="M182.513 175.092c-5.029 2.065-4.308 6.617-8.915 6.617-2.853 0-3.231-3.264-3.231-3.264 1.288-2.787 2.109-7.539 2.287-9.804.189-2.265.944-1.388.944-1.388 0-.211-.011-.411-.022-.611-.067-1.521-.344-2.631.655-1.976 1.132.733 1.521 5.041 1.521 5.041.933-6.284-.455-7.217.633-6.662 1.488.755 1.499 6.306 1.499 6.473 1.199-3.653.877-5.74 1.71-4.907.844.844-.422 7.55-.921 10.015-.111.555-.189.899-.189.899 3.985-1.955 4.029-.433 4.029-.433z" fill="#ff8b66"/><path d="M178.672 174.625c-.111.555-.189.899-.189.899s-1.843-.178-3.186 1.81c0 0 .377-2.664 3.375-2.709zm-4.797-2.864c.033-.533.255-3.586-.277-4.508 0-.211-.011-.411-.022-.611 1.154.245.422 4.475.299 5.119z" fill="#ef6e4b"/><path d="M176.996 198.248s3.399-9.212 4.48-11.268c1.082-2.057 6.713-1.704 10.975-.909 4.262.795 5.133 6.501 5.133 6.501s-12.966-6.119-20.588 5.676z" fill="#8bbddb"/><path d="M198.882 180.118s-4.072 7.519-4.008 15.857c0 0-6.614 4.495-8.981-1.135 0 0 2.512-7.376 1.298-17.333-.812-6.668 11.691 2.611 11.691 2.611z" fill="#ef6e4b"/><path d="M185.894 169.685s-1.21-4.31-3.364-1.28c-2.495 3.51.048 6.922 1.379 6.108 1.331-.814 1.985-4.828 1.985-4.828zm19.226 11.082s4.313-1.2 2.839 2.212c-1.708 3.953-5.944 3.548-5.938 1.988.006-1.559 3.099-4.2 3.099-4.2z" fill="#ff8b66"/><path d="M187.659 188.483c-6.127-3.45-7.331-9.399-.572-21.402 3.486-6.191 8.775-8.215 15.637-4.351 6.863 3.865 7.614 9.289 4.128 15.481-7.263 12.897-12.864 13.836-19.193 10.272z" fill="#ff8b66"/><path d="M202.412 181.349c-.239.676-1.119.982-1.965.683-.846-.299-1.337-1.09-1.098-1.767.239-.676 1.119-.982 1.965-.682.846.299 1.337 1.09 1.098 1.766zm-12.791-6.76c-.392.601-1.319.691-2.07.201-.751-.49-1.043-1.375-.651-1.975.392-.601 1.319-.691 2.07-.201.752.489 1.043 1.374.651 1.975z" fill="#db614d"/><path d="M203.289 173.589a.35.35 0 0 1-.34-.265c-.347-1.367-1.862-2.172-1.877-2.179a.351.351 0 1 1 .325-.623c.074.038 1.81.962 2.233 2.63a.351.351 0 0 1-.341.437zm-8.414-5.986a.35.35 0 0 1-.181-.05c-.015-.009-1.491-.886-2.838-.475a.351.351 0 1 1-.205-.673c1.648-.505 3.336.503 3.407.546a.35.35 0 0 1 .118.482.35.35 0 0 1-.301.17zm5.882 8.894c-.429.761-1.119 1.185-1.541.946-.423-.238-.418-1.048.01-1.809.428-.761 1.119-1.185 1.541-.947.423.239.419 1.048-.01 1.81zm-8.59-4.608c-.428.761-1.118 1.185-1.541.946-.423-.238-.418-1.047.01-1.808.428-.761 1.118-1.185 1.541-.947.423.238.418 1.048-.01 1.809zm-2.976 7.812s3.515 2.682 6.055 2.764c0 0-2.701 2.2-4.643.773-1.941-1.427-1.412-3.537-1.412-3.537z" fill="#1a4850"/><path d="M198.91 174.959s1.613-1.56 2.274-1.011c.66.549.315 2.469.315 2.469l1.412.036-1.167-.47s.376-1.993-.35-2.406c-1.034-.589-2.484 1.382-2.484 1.382zm-6.078-3.121s.497-2.188-.315-2.468c-.812-.28-2.274 1.011-2.274 1.011l-.763-1.189 1.008.755s1.509-1.355 2.239-.949c1.039.579.105 2.84.105 2.84z" fill="#1a4850"/><path d="M204.351 165.296s-2.195-3.05-5.226-.628c-3.031 2.422-9.868 6.298-13.231 5.017-3.364-1.28 7.358-15.61 16.667-11.414 9.309 4.197 8.471 17.857 4.599 22.2s-2.04.297-2.04.297.259-6.162 1.552-10.245c1.294-4.084-2.321-5.227-2.321-5.227z" fill="#f24052"/><path d="M194.033 178.304c-.17 0-.348-.023-.531-.069l.187-.735c.626.159.934-.11 1.081-.363.209-.358.18-.819.014-.992-.097-.101-.262-.09-.494.031l-.351-.672c.771-.404 1.232-.053 1.394.118.417.438.458 1.271.092 1.897-.298.509-.798.785-1.392.785z" fill="#db614d"/><path d="M238.903 231.071c-.366 5.385-13.689 22.916-15.91 23.537-.577.155-1.166.477-1.721.855-.233.167-.466.344-.688.522-1.266 1.021-2.22 2.198-2.22 2.198-3.886-.255-14.8-5.307-11.291-6.417.211-.067.444-.189.699-.366.144-.1.3-.211.455-.355 4.13-3.464 12.168-17.52 12.224-18.586.044-1.166 1.432-1.388 1.432-1.388s-7.583-11.136-11.98-12.479-6.617-6.661-6.617-6.661c-4.341-18.375 8.283-15.488 8.283-15.488 9.304 5.539 27.7 29.232 27.334 34.628z" fill="#8bbddb"/><path d="M221.272 255.463c-.233.167-.466.344-.688.522-5.962-.411-10.958-3.342-12.812-4.585.144-.1.3-.211.455-.355 1.987 1.298 7.072 4.196 13.045 4.418zM165.904 192.3c-.1.189-.211.378-.344.555a14.205 14.205 0 0 1-2.443-.3c-3.941-.799-6.972-3.009-8.96-4.93a23.707 23.707 0 0 1-1.199-1.255c.266-.167.433-.266.488-.289.289.322.622.677.999 1.044 1.976 1.943 5.052 4.208 9.093 4.941.756.146 1.544.223 2.366.234zm59.576 79.128c-1.832 3.098-5.218 6.839-11.136 7.805a9.972 9.972 0 0 1-.311-.511c6.073-.911 9.437-4.852 11.18-7.938.089.223.178.444.267.644z" fill="#3e6575"/><path d="M124.436 372.451s-1.388 1.366-2.831 3.875.144 4.819-6.839 10.636c0 0-14.089-8.249-20.451-18.852 0 0 .111-3.031 3.186-3.742 1.654-.378 6.206 1.754 10.581 2.576.622.111 1.243.211 1.854.255.766.067 1.521.078 2.243-.011a6.632 6.632 0 0 0 1.887-.455h.011c1.488-.611 2.665-1.821 3.275-3.941 0 0 3.741 2.132 1.243 5.74.001-.001 4.442-1.944 5.841 3.919z" fill="#cfd8dc"/><path d="M114.765 386.962s-14.089-8.249-20.451-18.852c0 0 2.365-.5 4.319 3.009 1.954 3.519 17.276 11.502 16.132 15.843zm.056-16.677c-1.143 1.81-1.121-1.532-2.642-3.098a6.632 6.632 0 0 0 1.887-.455h.011c.677.734 1.643 2.143.744 3.553zm-4.43.1c-1.21 1.144-1.599-1.843-2.309-3.442.622.111 1.243.211 1.854.255.71.967 1.377 2.31.455 3.187z" fill="#adbec4"/><path d="M211.113 409.056h-19.929s-.833-2.776 0-5.829c.355-1.321 2.42-2.554 4.341-4.275a15.305 15.305 0 0 0 1.521-1.543 8.887 8.887 0 0 0 1.01-1.454 7.27 7.27 0 0 0 .822-2.076c.322-1.51.2-3.286-.666-5.418 0 0 6.784-1.421 9.204 2.276 0 0 .233-1.71 2.387-.566 0 0-.311 3.431.111 6.306.422 2.864 3.098 3.697 1.199 12.579z" fill="#cfd8dc"/><path d="M205.928 397.054c-.178.2-.422.3-.666.3a.97.97 0 0 1-.589-.2c-1.032-.822-3.308-2.098-6.617-1.199a7.27 7.27 0 0 0 .822-2.076c1.332-.488 3.841-.777 6.939 1.865.4.333.456.921.111 1.31zm-1.676 3.308-.111.167a.909.909 0 0 1-1.221.3c-1.355-.799-4.397-2.309-7.394-1.876a15.305 15.305 0 0 0 1.521-1.543c1.477-.344 4.263-.533 7.006 1.743.355.299.454.821.199 1.209z" fill="#adbec4"/><g fill="#a3b5c4"><path d="M260.104 465.466a7.394 7.394 0 0 0-1.108 1.453l-.466-.241a.603.603 0 1 0-.333.679l.451.234a7.26 7.26 0 0 0-.539 1.744l.746.131a6.6 6.6 0 0 1 1.792-3.472l-.543-.528zm5.488-2.303c-.171 0-.341.006-.51.018l-.073-.627a.717.717 0 1 0-.753.086l.073.624a7.581 7.581 0 0 0-2.06.646l.327.684a6.88 6.88 0 0 1 2.995-.674c.496 0 .993.054 1.475.158l.161-.741a7.787 7.787 0 0 0-1.635-.174zm6.602 2.548a.603.603 0 1 0-.677-.59l-.416.363a7.632 7.632 0 0 0-1.408-1.139l-.403.641a6.749 6.749 0 0 1 2.563 2.926l.691-.313a7.375 7.375 0 0 0-.942-1.545l.402-.352c.06.014.125.017.19.009zm-7.15 7.661c-.386.023-.774.034-1.157.034-.88 0-1.732-.061-2.478-.179a8.721 8.721 0 0 1-1.27-.292 6.173 6.173 0 0 0 5.389 3.125c2.855 0 5.262-1.916 5.949-4.504-.682.449-1.506.825-2.459 1.122-1.179.369-2.554.608-3.974.694z"/><path d="M265.592 464.68c-3.353 0-6.079 2.666-6.079 5.943 0 .426.046.849.137 1.262.674.482 2.706.89 5.348.73 2.879-.173 5.297-.957 6.672-2.158a5.903 5.903 0 0 0-.045-.582c-.381-2.962-2.975-5.195-6.033-5.195zm-2.159 6.514c-1.021 0-1.85-.83-1.85-1.85s.829-1.85 1.85-1.85c1.02 0 1.85.83 1.85 1.85a1.854 1.854 0 0 1-1.85 1.85zm4.737-.908c-.75 0-1.36-.61-1.36-1.36s.61-1.36 1.36-1.36 1.36.61 1.36 1.36-.61 1.36-1.36 1.36zm13.426-3.739c-.295-.116-.806-.31-1.383-.237-.551.068-.844.34-.844 1.006v.866h2.227v1.718h-2.227v5.454h-1.932V469.9h-1.34v-1.718h1.34v-.888c0-1.681.895-2.783 2.568-2.783.643 0 1.157.122 1.59.309v1.727zm4.702 3.332a3.192 3.192 0 0 0-.526-.047c-.896 0-1.51.548-1.51 1.614v3.907h-1.932v-7.172h1.873v.785c.451-.674 1.14-.978 2.021-.978.414 0 .848.128 1.094.337l-1.02 1.554zm7.667 1.878c0 .222-.015.488-.037.651h-5.084c.207 1.036.933 1.487 1.843 1.487.621 0 1.295-.251 1.814-.688l1.132 1.243c-.814.747-1.851 1.088-3.057 1.088-2.198 0-3.723-1.495-3.723-3.753 0-2.257 1.48-3.797 3.626-3.797 2.065.001 3.479 1.534 3.486 3.769zm-5.114-.666h3.175c-.177-.918-.732-1.437-1.561-1.437-.911 0-1.445.548-1.614 1.437zm12.767.666c0 .222-.015.488-.037.651h-5.084c.207 1.036.932 1.487 1.843 1.487.621 0 1.295-.251 1.813-.688l1.132 1.243c-.814.747-1.851 1.088-3.057 1.088-2.198 0-3.723-1.495-3.723-3.753 0-2.257 1.48-3.797 3.626-3.797 2.066.001 3.48 1.534 3.487 3.769zm-5.114-.666h3.176c-.178-.918-.733-1.437-1.563-1.437-.91 0-1.443.548-1.613 1.437zm13.46.674c0 2.153-1.495 3.774-3.471 3.774-.963 0-1.644-.378-2.109-.933v3.708h-1.925v-10.133h1.888v.792c.466-.584 1.154-.984 2.139-.984 1.983 0 3.478 1.621 3.478 3.776zm-5.677 0c0 1.132.748 1.976 1.843 1.976 1.14 0 1.851-.881 1.851-1.976 0-1.096-.711-1.977-1.851-1.977-1.095 0-1.843.844-1.843 1.977zm8.78-5.929c0 .695-.54 1.229-1.235 1.229a1.208 1.208 0 0 1-1.229-1.229 1.22 1.22 0 0 1 1.229-1.244c.695 0 1.235.548 1.235 1.244zm-.258 9.518h-1.932v-7.172h1.932v7.172zm3.223-4.619 2.701-2.554h2.369l-3.48 3.375 3.501 3.797h-2.376l-2.716-2.901v2.901h-1.932v-10.657h1.932v6.039zm-131.619 4.554v-1.055c-.527.718-1.392 1.23-2.388 1.23-1.846 0-3.149-1.406-3.149-3.706 0-2.256 1.289-3.721 3.149-3.721.952 0 1.816.469 2.388 1.245v-3.765h1.099v9.771h-1.099zm0-1.919v-3.208c-.396-.615-1.245-1.143-2.124-1.143-1.421 0-2.27 1.172-2.27 2.739s.85 2.725 2.27 2.725c.878 0 1.728-.498 2.124-1.113zm2.519-1.626c0-2.051 1.465-3.706 3.486-3.706 2.139 0 3.398 1.67 3.398 3.794v.278h-5.728c.088 1.333 1.025 2.446 2.549 2.446.806 0 1.626-.322 2.183-.894l.527.718c-.703.703-1.655 1.084-2.813 1.084-2.094.001-3.602-1.508-3.602-3.72zm3.471-2.798c-1.509 0-2.256 1.274-2.314 2.358h4.644c-.015-1.054-.718-2.358-2.33-2.358zm4.204 5.406.571-.791c.469.542 1.362 1.011 2.329 1.011 1.084 0 1.67-.513 1.67-1.216 0-1.714-4.38-.659-4.38-3.281 0-1.099.952-2.036 2.637-2.036 1.201 0 2.051.454 2.622 1.025l-.513.762c-.424-.513-1.201-.893-2.109-.893-.967 0-1.567.483-1.567 1.113 0 1.553 4.379.527 4.379 3.281 0 1.186-.952 2.139-2.783 2.139-1.157-.001-2.138-.353-2.856-1.114zm6.87-7.881c0-.41.337-.747.732-.747a.75.75 0 0 1 .747.747c0 .41-.337.732-.747.732a.734.734 0 0 1-.732-.732zm.19 8.818v-7.075h1.099v7.075h-1.099zm2.915 1.816.557-.82c.586.703 1.289.967 2.3.967 1.172 0 2.27-.571 2.27-2.124v-1.011c-.512.718-1.376 1.26-2.373 1.26-1.845 0-3.149-1.377-3.149-3.662 0-2.271 1.289-3.677 3.149-3.677.952 0 1.802.469 2.373 1.245v-1.069h1.099v6.87c0 2.344-1.641 3.076-3.369 3.076-1.202 0-2.022-.234-2.857-1.055zm5.126-3.852v-3.091c-.381-.615-1.23-1.143-2.109-1.143-1.421 0-2.271 1.128-2.271 2.695 0 1.553.849 2.695 2.271 2.695.879.001 1.729-.541 2.109-1.156zm7.705 2.036v-4.629c0-1.245-.629-1.641-1.581-1.641-.865 0-1.685.527-2.095 1.099v5.171h-1.099v-7.075h1.099v1.025c.498-.586 1.464-1.201 2.519-1.201 1.48 0 2.256.747 2.256 2.285v4.966h-1.099zm2.52-3.545c0-2.051 1.465-3.706 3.486-3.706 2.138 0 3.398 1.67 3.398 3.794v.278h-5.728c.088 1.333 1.025 2.446 2.549 2.446.805 0 1.626-.322 2.183-.894l.527.718c-.703.703-1.655 1.084-2.813 1.084-2.094.001-3.602-1.508-3.602-3.72zm3.471-2.798c-1.509 0-2.256 1.274-2.314 2.358h4.643c-.015-1.054-.718-2.358-2.329-2.358zm9.946 6.343v-1.055c-.527.718-1.392 1.23-2.388 1.23-1.845 0-3.149-1.406-3.149-3.706 0-2.256 1.289-3.721 3.149-3.721.952 0 1.817.469 2.388 1.245v-3.765h1.098v9.771h-1.098zm0-1.919v-3.208c-.396-.615-1.245-1.143-2.124-1.143-1.421 0-2.27 1.172-2.27 2.739s.85 2.725 2.27 2.725c.879 0 1.728-.498 2.124-1.113zm6.342 1.919v-9.771h1.099v3.765c.572-.776 1.421-1.245 2.388-1.245 1.846 0 3.15 1.465 3.15 3.721 0 2.3-1.304 3.706-3.15 3.706-.996 0-1.86-.513-2.388-1.23v1.055h-1.099zm3.208-.806c1.436 0 2.285-1.157 2.285-2.725 0-1.567-.85-2.739-2.285-2.739-.864 0-1.728.527-2.109 1.143v3.208c.38.615 1.245 1.113 2.109 1.113zm4.628 2.579c.161.073.425.117.601.117.483 0 .805-.161 1.055-.747l.468-1.069-2.959-7.148h1.187l2.358 5.801 2.344-5.801h1.201l-3.545 8.511c-.425 1.025-1.143 1.421-2.08 1.436-.234 0-.601-.044-.806-.102l.176-.998z"/></g></svg><svg viewBox="0 0 500 500" id="6" xmlns="http://www.w3.org/2000/svg"><path fill="#fff" d="M-.003.001h500v500h-500z"/><path d="M121.531 217.382c-.076-.403-.58-.638-1.095-.51l-26.76 6.641c-.465.115-.771.486-.702.85l6.012 31.783c-2.216-.897-5.169-.53-7.695 1.19-3.624 2.467-4.99 6.775-3.052 9.622 1.938 2.847 6.447 3.156 10.071.689a6.87 6.87 0 0 0 .658-.518c2.796-2.458 3.985-6.277 3.293-9.935l-4.3-22.733 22.598-5.608 3.747 19.811c-2.216-.897-5.169-.53-7.695 1.19-3.624 2.467-4.99 6.775-3.052 9.622 1.938 2.847 6.447 3.156 10.071.689.208-.142.429-.317.658-.518 2.796-2.458 3.985-6.277 3.293-9.935l-6.05-32.33z" fill="#ffc069"/><path d="m67.509 202.661 5.246-1.302c5.151-1.278 8.484-6.522 7.058-11.635l-.031-.111-15.842 3.932c-.387.096-.642.405-.585.708l5.006 26.466c-1.845-.747-4.305-.441-6.408.991-3.018 2.054-4.156 5.642-2.542 8.013 1.614 2.371 5.369 2.628 8.387.574a5.26 5.26 0 0 0 .414-.316c2.429-2.035 3.46-5.301 2.871-8.415l-3.574-18.905z" fill="#b7dae8"/><path d="m43.665 262.959 4.137-1.027c4.062-1.008 6.69-5.143 5.566-9.175l-.025-.088-12.493 3.1c-.305.076-.506.319-.461.558l3.948 20.871c-1.455-.589-3.394-.348-5.053.781-2.38 1.62-3.277 4.449-2.004 6.319 1.273 1.87 4.234 2.072 6.614.452a4.38 4.38 0 0 0 .327-.249c1.916-1.605 2.729-4.18 2.264-6.636l-2.82-14.906z" fill="#edf6fa"/><path d="m217.769 213.186 5.497-1.364c5.397-1.34 8.889-6.834 7.396-12.191l-.033-.116-16.598 4.119c-.405.101-.673.424-.613.741l5.245 27.73c-1.933-.783-4.51-.462-6.714 1.038-3.162 2.152-4.354 5.911-2.663 8.396 1.691 2.484 5.625 2.753 8.787.601.139-.094.284-.206.434-.331 2.545-2.132 3.625-5.554 3.008-8.817l-3.746-19.806z" fill="#ff9b30"/><path d="m262.686 183.876 3.862-.958c3.792-.941 6.244-4.801 5.195-8.564l-.023-.082-11.66 2.894c-.285.071-.473.298-.431.521l3.685 19.48c-1.358-.55-3.168-.325-4.716.729-2.221 1.512-3.059 4.152-1.871 5.898 1.188 1.745 3.952 1.934 6.173.422.098-.066.2-.145.305-.233 1.788-1.498 2.547-3.902 2.113-6.194l-2.632-13.913zm-59-40.334 3.862-.958c3.792-.941 6.244-4.801 5.195-8.564l-.023-.082-11.66 2.894c-.285.071-.473.298-.43.521l3.685 19.48c-1.358-.55-3.168-.325-4.716.729-2.221 1.512-3.059 4.153-1.871 5.898 1.188 1.745 3.952 1.934 6.173.422.098-.066.2-.145.305-.233 1.788-1.498 2.547-3.902 2.113-6.194l-2.633-13.913z" fill="#b7dae8"/><path d="M365.628 133.696c-.043-.229-.329-.362-.622-.29l-15.203 3.773c-.264.065-.438.276-.399.483l3.415 18.057c-1.259-.51-2.937-.301-4.372.676-2.059 1.402-2.835 3.849-1.734 5.467 1.101 1.618 3.663 1.793 5.722.391.118-.081.244-.18.374-.294 1.589-1.396 2.264-3.566 1.871-5.645l-2.443-12.915 12.839-3.186 2.129 11.255c-1.259-.51-2.937-.301-4.372.676-2.059 1.402-2.835 3.849-1.734 5.467 1.101 1.618 3.663 1.793 5.722.391.118-.081.244-.18.374-.294 1.589-1.397 2.264-3.566 1.871-5.645l-3.438-18.367z" fill="#ffc069"/><path d="M196.775 83.314c-.059-.313-.451-.496-.851-.396l-20.8 5.162c-.361.09-.599.378-.546.66l4.673 24.705c-1.722-.697-4.018-.412-5.981.925-2.817 1.918-3.879 5.266-2.372 7.479 1.507 2.213 5.012 2.453 7.829.535.162-.11.334-.246.512-.403 2.174-1.91 3.098-4.879 2.56-7.722l-3.342-17.67 17.565-4.359 2.913 15.399c-1.722-.697-4.018-.412-5.981.925-2.817 1.917-3.879 5.266-2.373 7.479 1.507 2.213 5.012 2.453 7.829.535.162-.11.334-.246.512-.403 2.174-1.91 3.098-4.879 2.56-7.722l-4.707-25.129z" fill="#edf6fa"/><path d="m386.465 79.278 5.376-1.334c5.279-1.31 8.694-6.684 7.233-11.923l-.032-.114-16.234 4.029c-.397.098-.658.415-.599.725l5.13 27.122c-1.891-.765-4.411-.452-6.566 1.015-3.092 2.105-4.258 5.781-2.604 8.211 1.654 2.43 5.502 2.693 8.594.588a5.29 5.29 0 0 0 .425-.324c2.49-2.085 3.546-5.432 2.942-8.623l-3.665-19.372z" fill="#ff9b30"/><path d="m336.048 69.379 4.551-1.129c4.468-1.109 7.358-5.657 6.122-10.092l-.027-.096-13.741 3.41c-.336.083-.557.351-.507.614l4.342 22.956c-1.6-.648-3.734-.383-5.558.859-2.617 1.782-3.604 4.893-2.204 6.95 1.4 2.057 4.657 2.279 7.274.497.115-.078.235-.17.359-.274 2.107-1.765 3.001-4.598 2.49-7.299l-3.101-16.396z" fill="#ffc069"/><path d="m408.533 122.869 4.011-.995c3.938-.977 6.486-4.986 5.396-8.894l-.024-.085-12.11 3.006c-.296.073-.491.309-.447.541l3.827 20.233c-1.41-.571-3.291-.337-4.899.757-2.307 1.57-3.177 4.313-1.943 6.126 1.234 1.813 4.104 2.009 6.411.438.101-.069.208-.15.317-.242 1.857-1.556 2.645-4.052 2.195-6.433l-2.734-14.452zM279.567 96.482l6.109-1.516c5.998-1.489 9.878-7.595 8.219-13.548l-.037-.129-18.446 4.578c-.451.112-.748.471-.681.824l5.829 30.817c-2.148-.87-5.012-.514-7.461 1.153-3.514 2.392-4.839 6.569-2.959 9.33 1.88 2.761 6.251 3.06 9.765.668.154-.105.316-.229.483-.368 2.829-2.369 4.029-6.173 3.343-9.798l-4.164-22.011z" fill="#edf6fa"/><path d="m438.455 59.255 4.13-1.025c4.055-1.006 6.678-5.134 5.556-9.158l-.025-.088-12.47 3.095c-.304.075-.505.318-.46.557l3.941 20.832c-1.452-.588-3.388-.347-5.044.78-2.375 1.617-3.271 4.441-2 6.307 1.27 1.866 4.226 2.068 6.601.451.104-.071.214-.155.326-.249 1.912-1.602 2.724-4.173 2.26-6.624l-2.815-14.878z" fill="#b7dae8"/><ellipse cx="149.571" cy="423.724" rx="96.162" ry="15.854" fill="#edf6fa"/><path d="M94.514 376.346c-.149-1.593.262-1.55-.795-2.881-1.212-1.526-8.519-.33-8.519-.33-.568.311-.616 1.695-.298 2.596l1.936.158s.489 2.707-.626 7.456c-.342 1.456-.417 5.676 1.594 7.506 1.448 1.317 6.926-12.174 6.708-14.505z" fill="#152370"/><path d="M171.874 287.661c-4.828-17.815-23.343-39.972-43.207-25.59-13.997 10.134-7.863 31.247 1.387 42.371 3.267 8.597 4.301 17.882 6.764 26.746 2.286 8.228 5.415 16.153 9.233 23.765-8.869 1.605-15.047 8.15-22.733 12.254-9.228 4.927-19.443 6.982-29.851 6.459-.201-.01-.382.096-.538.276-.232.144-.414.384-.561.623-.825 1.353-1.163 2.92-1.3 4.484-.068.773-.234 1.824.133 2.542.079.154.234.282.407.274.181-.018.311-.141.419-.263.653-.736.961-1.658 1.299-2.564.172-.46.36-.909.54-1.362 39.103 18.339 74.722-9.474 74.909-10.33 5.542-25.274 10.003-54.212 3.099-79.685z" fill="#ffa18a"/><path d="M205.229 409.868c-1.358-.846-1.074-1.147-2.774-1.112-1.949.04-5.422 6.579-5.422 6.579-.096.641.976 1.517 1.886 1.81l1.298-1.445s4.842 4.649 5.192 4.877c1.253.817 4.777.417 7.451-.075 1.924-.354 3.619-2.747-1.746-3.585-2.169-.339-3.898-5.81-5.885-7.049z" fill="#152370"/><path d="M206.654 412.445c-.197-.312-.38-.629-.567-.945 22.671-36.095 17.418-74.046 17.099-74.87-8.667-22.353-19.307-65.436-37.176-76.117-5.796 8.322-12.319 16.184-17.352 24.985-2.237 3.911-4.064 7.972-5.641 12.124 7.422 2.534 20.122 39.767 36.798 50.138-7.688 23.256 5.803 51.596 2.642 61.526-.006.02-.003.042-.007.062-.002.004-.006.006-.008.009-.184.348-.073.774.069 1.141.577 1.476 1.619 2.694 2.781 3.75.574.522 1.309 1.29 2.104 1.434.17.031.366-.016.465-.158.095-.155.076-.333.045-.493-.189-.964-.736-1.768-1.252-2.586z" fill="#ffa18a"/><path d="M170.212 235.734c-.049-.04 1.375-1.688.375-4.688-.738-2.213-.361-3.869.191-6.563h-33.841c.08 2.714 1.847 5.117-.515 6.249-4.96 2.376-2.34 6.967-4.265 9.417-33.768 42.971 4.321 74.859 2.179 92.985-.03.25 49.328 8.236 85.154-14.6-10.258-36.719-14.111-53.883-49.278-82.8z" fill="#b0cdd9"/><path d="M214.998 304.395C203.961 311.99 191.046 316.387 178 319c-15.262 3.057-31.178 3.327-46.573.987 2.044 4.967 3.357 9.359 2.909 13.147-.03.25 49.328 8.236 85.154-14.6-1.429-5.116-2.767-9.894-4.104-14.418-.131.091-.257.189-.388.279zm-87.453-106.244c4.101 3.782 1.667 12.5 7.649 18.016.941.868 1.045 2.357.794 3.612-.686 3.424-3.181 6.38.434 10.954 10.335 5.112 22.343 5.862 32.868 1.565 4.422-4.064 1.258-6.768 1.725-8.954 2.791-2.709 6.327-5.881 6.172-10.059-.243-6.526-3.85-8.462-4.975-14.551 13.036.355 26.275 1.596 39-1.75 7.085-1.863 29.218-27.8 34.792-32.837-1.247-2.818-3.061-5.285-5.688-6.96-3.388 2.835-22.788 18.682-34.767 22.907-7.1 1.312-15.928-.144-26.313-2.056-8.392-1.546-17.096-2.027-25.637-2.036-10.18-.01-20.107 2.426-30.217-.317-8.077-2.192-17.337-2.628-23.734-7.905-3.835-3.164-16.721-29.944-20.963-39.02-3.383.202-4.081.589-7.009 2.055 3.295 11.743 10.608 48.969 20.367 55.669 7.228 4.961 34.382 10.634 35.502 11.667z" fill="#373f61"/><path d="M148.318 216.849c1.333 3.46 4.426 6.636 8.23 6.182 1.99-.237 3.651-1.546 4.878-3.246-3.943 2.206-9.729.599-13.108-2.936z" fill="#2c324d"/><path d="M78.337 129.191s-1.404.023-3.091.524c-1.688.502-3.02 1.293-3.02 1.293s1.555.176 3.243-.326c1.686-.502 2.868-1.491 2.868-1.491z" fill="#06114f"/><path d="M73.1 130.61s-.773-1.736-.796-1.768c-1.198-1.717-2.201-3.288-2.526-5.363-.171-1.089-.643-3.715.571-4.424 1.237-.722 4.307 3.497 4.771 4.332.124-.545.072-1.561.491-1.614.883-.11 1.456 2.227 1.479 3.236.015.663.094 1.735-.143 2.244-.079.17-.523.536-.523.536s.151.497.621 1.928c-.809.565-3.281 1.106-3.945.893z" fill="#ffa18a"/><path d="M240.913 158.421s1.158.794 2.288 2.144 1.804 2.745 1.804 2.745-1.394-.712-2.524-2.062c-1.13-1.35-1.568-2.827-1.568-2.827z" fill="#06114f"/><path d="M244.495 162.495s1.603-1.02 1.64-1.035c1.947-.771 3.65-1.527 5.066-3.078.744-.814 2.587-2.743 1.966-4.005-.633-1.285-5.522.538-6.369.979.197-.523.802-1.342.482-1.617-.675-.579-2.444 1.053-3.019 1.882-.378.545-1.036 1.395-1.12 1.95-.028.185.139.736.139.736s-.4.331-1.582 1.265c.364.918 2.126 2.733 2.797 2.923z" fill="#ffa18a"/><path d="M135.024 177.55c.259-.408.817-.493 1.243-.188.406.327.464.894.141 1.251-.325.36-.862.417-1.205.138-.359-.254-.438-.793-.179-1.201z" fill="#dcf5ff"/><path d="M136.408 178.613c.322-.373.88-.377 1.254-.018.363.367.339.94-.023 1.255-.367.32-.902.299-1.217-.019-.322-.309-.324-.859-.014-1.218z" fill="#dcf5ff"/><path d="M137.639 179.85c.363-.328.925-.275 1.245.123a.858.858 0 0 1-.157 1.241.893.893 0 0 1-1.212-.15c-.283-.354-.229-.895.124-1.214z" fill="#dcf5ff"/><path d="M138.728 181.214a.856.856 0 0 1 1.226.234.859.859 0 0 1-.26 1.22.891.891 0 0 1-1.198-.253.893.893 0 0 1 .232-1.201z" fill="#dcf5ff"/><path d="M139.693 182.668a.861.861 0 0 1 1.204.318c.25.432.09.971-.338 1.198a.887.887 0 0 1-1.182-.33.89.89 0 0 1 .316-1.186z" fill="#dcf5ff"/><path d="M140.56 184.184a.866.866 0 0 1 1.184.378.865.865 0 0 1-.393 1.178.882.882 0 0 1-1.168-.387.882.882 0 0 1 .377-1.169z" fill="#dcf5ff"/><path d="M141.351 185.74a.87.87 0 0 1 1.168.419.87.87 0 0 1-.428 1.163.878.878 0 0 1-1.158-.423.879.879 0 0 1 .418-1.159z" fill="#dcf5ff"/><path d="M142.091 187.322a.873.873 0 1 1 .712 1.594.873.873 0 0 1-.712-1.594z" fill="#dcf5ff"/><path d="M142.803 188.916a.874.874 0 1 1 .711 1.597.874.874 0 0 1-.711-1.597z" fill="#dcf5ff"/><path d="M143.51 190.513a.873.873 0 1 1 .701 1.599.874.874 0 0 1-1.151-.449.875.875 0 0 1 .45-1.15z" fill="#dcf5ff"/><path d="M144.212 192.112a.875.875 0 0 1 1.152.448.877.877 0 0 1-.449 1.151.872.872 0 1 1-.703-1.599z" fill="#dcf5ff"/><path d="M144.915 193.711a.875.875 0 0 1 1.154.438.876.876 0 0 1-1.595.719.872.872 0 0 1 .441-1.157zm.718 1.591a.876.876 0 0 1 1.159.419.875.875 0 0 1-1.582.746.87.87 0 0 1 .423-1.165z" fill="#dcf5ff"/><path d="M146.379 196.881a.885.885 0 0 1 1.17.388.883.883 0 0 1-.386 1.172.866.866 0 0 1-1.177-.384.864.864 0 0 1 .393-1.176z" fill="#dcf5ff"/><path d="M147.163 198.442a.883.883 0 0 1 1.183.347.885.885 0 0 1-.34 1.182.862.862 0 0 1-1.194-.341.864.864 0 0 1 .351-1.188z" fill="#dcf5ff"/><path d="M148.005 199.971a.875.875 0 0 1 1.189.301.875.875 0 0 1-1.497.905.873.873 0 0 1 .308-1.206z" fill="#dcf5ff"/><path d="M148.911 201.464a.886.886 0 0 1 1.202.238c.267.381.166.922-.223 1.208-.39.286-.938.186-1.224-.224a.864.864 0 0 1 .245-1.222z" fill="#dcf5ff"/><path d="M149.89 202.909a.897.897 0 0 1 1.218.159.9.9 0 0 1-.147 1.22.852.852 0 0 1-1.235-.146.854.854 0 0 1 .164-1.233z" fill="#dcf5ff"/><path d="M150.961 204.288c.373-.307.921-.275 1.223.073a.89.89 0 0 1-.05 1.22.86.86 0 0 1-1.25-.048c-.331-.381-.296-.938.077-1.245z" fill="#dcf5ff"/><path d="M152.134 205.58a.879.879 0 0 1 1.217-.022c.342.302.366.847.055 1.217-.311.37-.872.396-1.252.059a.87.87 0 0 1-.02-1.254z" fill="#dcf5ff"/><path d="M153.406 206.775a.908.908 0 0 1 1.215-.141c.362.275.43.825.158 1.219-.277.401-.827.471-1.232.162a.845.845 0 0 1-.141-1.24z" fill="#dcf5ff"/><path d="M154.778 207.854c.282-.392.814-.513 1.187-.268.389.223.527.748.303 1.177-.223.428-.769.574-1.215.316-.435-.284-.557-.833-.275-1.225z" fill="#dcf5ff"/><path d="M156.268 208.763c.228-.417.745-.603 1.152-.406a.892.892 0 0 1 .432 1.14.858.858 0 0 1-1.17.446c-.463-.223-.649-.749-.414-1.18z" fill="#dcf5ff"/><path d="M157.851 209.497a.898.898 0 0 1 1.107-.517.897.897 0 0 1 .539 1.097.854.854 0 0 1-1.12.554.854.854 0 0 1-.526-1.134zm1.647.579a.89.89 0 0 1 1.058-.611c.446.108.728.583.632 1.05-.099.479-.576.765-1.067.645a.86.86 0 0 1-.623-1.084z" fill="#dcf5ff"/><path d="M161.187 210.515c.104-.472.555-.784 1.006-.696.454.073.775.511.714.992a.869.869 0 0 1-1.013.733c-.494-.097-.811-.558-.707-1.029zm1.721.295a.896.896 0 0 1 .951-.773.892.892 0 0 1 .786.939.857.857 0 0 1-.954.803.855.855 0 0 1-.783-.969z" fill="#dcf5ff"/><path d="M164.646 210.976a.886.886 0 0 1 .892-.838c.461.004.843.4.854.882.01.484-.39.872-.893.868a.862.862 0 0 1-.853-.912z" fill="#dcf5ff"/><path d="M166.391 211.02c-.004-.483.367-.889.827-.906a.886.886 0 0 1 .916.81.864.864 0 0 1-.826.937c-.503.02-.913-.357-.917-.841z" fill="#dcf5ff"/><path d="M168.134 210.925a.895.895 0 0 1 .756-.963.896.896 0 0 1 .975.741.855.855 0 0 1-.752.995.856.856 0 0 1-.979-.773z" fill="#dcf5ff"/><path d="M169.865 210.703c-.077-.479.228-.925.678-1.016.446-.104.908.191 1.031.658.123.467-.176.94-.67 1.054a.866.866 0 0 1-1.039-.696z" fill="#dcf5ff"/><path d="M171.574 210.346c-.114-.462.147-.949.585-1.075a.893.893 0 0 1 1.083.563.86.86 0 0 1-.574 1.112c-.488.139-.976-.124-1.094-.6zm1.669-.513a.9.9 0 0 1 .481-1.121.903.903 0 0 1 1.132.457.85.85 0 0 1-.465 1.161.852.852 0 0 1-1.148-.497z" fill="#dcf5ff"/><path d="M174.856 209.169a.89.89 0 0 1 .361-1.162c.389-.225.916-.073 1.175.333.261.41.108.948-.339 1.204a.86.86 0 0 1-1.197-.375z" fill="#dcf5ff"/><path d="M176.392 208.34c-.251-.413-.154-.951.218-1.199.359-.263.888-.192 1.2.181.308.368.234.938-.185 1.244-.43.289-.982.187-1.233-.226z" fill="#dcf5ff"/><path d="M177.81 207.322c-.296-.372-.265-.91.056-1.214a.907.907 0 0 1 1.212.017.846.846 0 0 1-.014 1.258c-.38.36-.948.323-1.254-.061z" fill="#dcf5ff"/><path d="M179.078 206.125a.913.913 0 0 1-.121-1.206.917.917 0 0 1 1.201-.163c.408.265.507.84.173 1.247a.843.843 0 0 1-1.253.122z" fill="#dcf5ff"/><path d="M180.158 204.756a.903.903 0 0 1-.305-1.17c.201-.388.733-.538 1.163-.348.453.201.607.736.363 1.204-.252.463-.831.585-1.221.314z" fill="#dcf5ff"/><path d="M181.017 203.238c-.436-.208-.656-.706-.487-1.11.141-.415.617-.656 1.086-.529.464.125.726.638.556 1.135-.201.488-.72.713-1.155.504z" fill="#dcf5ff"/><path d="M181.616 201.6c-.454-.136-.733-.591-.652-1.026a.912.912 0 0 1 1.005-.682.843.843 0 0 1 .708 1.037c-.098.515-.59.812-1.061.671z" fill="#dcf5ff"/><path d="M181.969 199.892c-.481-.072-.812-.491-.77-.935.017-.443.426-.803.909-.804.483-.002.859.42.836.94-.049.516-.501.871-.975.799z" fill="#dcf5ff"/><path d="M182.108 198.153c-.472-.011-.877-.377-.902-.814a.914.914 0 0 1 .779-.925.843.843 0 0 1 .967.809c.031.526-.35.942-.844.93z" fill="#dcf5ff"/><path d="M181.986 196.414a.92.92 0 0 1-1.016-.652c-.09-.423.16-.881.61-1.043.459-.164.977.112 1.091.634a.84.84 0 0 1-.685 1.061z" fill="#dcf5ff"/><path d="M181.58 194.719a.913.913 0 0 1-1.116-.456c-.177-.392 0-.898.409-1.137.427-.248.968-.064 1.19.424.229.484-.032 1.026-.483 1.169z" fill="#dcf5ff"/><path d="M180.873 193.126c-.431.233-.938.109-1.182-.249-.255-.352-.16-.891.202-1.194.379-.316.934-.223 1.243.208.299.439.158 1.01-.263 1.235z" fill="#dcf5ff"/><path d="M179.894 191.684c-.382.3-.917.27-1.211-.058-.315-.312-.305-.859.018-1.216.325-.359.887-.352 1.256.016.351.389.315.961-.063 1.258z" fill="#dcf5ff"/><path d="M178.701 190.41c-.332.351-.877.398-1.215.103-.354-.28-.419-.818-.134-1.21.283-.39.844-.46 1.246-.141.39.337.436.897.103 1.248z" fill="#dcf5ff"/><path d="M177.352 189.303c-.286.381-.824.483-1.202.226a.89.89 0 0 1-.248-1.197.86.86 0 0 1 1.223-.256c.419.284.521.835.227 1.227z" fill="#dcf5ff"/><path d="M175.902 188.331a.89.89 0 0 1-1.184.317.89.89 0 0 1-.333-1.181.86.86 0 0 1 1.198-.341.86.86 0 0 1 .319 1.205z" fill="#dcf5ff"/><path d="M174.385 187.468a.882.882 0 0 1-1.166.384c-.423-.205-.599-.729-.396-1.165a.867.867 0 0 1 1.175-.402.867.867 0 0 1 .387 1.183z" fill="#dcf5ff"/><path d="M172.823 186.687a.878.878 0 0 1-1.152.434.877.877 0 0 1-.441-1.149.87.87 0 0 1 1.158-.447.869.869 0 0 1 .435 1.162z" fill="#dcf5ff"/><path d="M171.23 185.971a.88.88 0 0 1-1.142.465.879.879 0 0 1-.469-1.141.87.87 0 0 1 1.145-.473.87.87 0 0 1 .466 1.149z" fill="#dcf5ff"/><path d="M169.62 185.296a.876.876 0 0 1-1.135.484.874.874 0 0 1 .653-1.623c.449.18.665.693.482 1.139z" fill="#dcf5ff"/><path d="M168 184.643a.872.872 0 1 1-1.621-.647.873.873 0 1 1 1.621.647z" fill="#dcf5ff"/><path d="M166.378 183.996a.87.87 0 0 1-1.141.481.87.87 0 0 1-.475-1.144.879.879 0 0 1 1.138-.475.875.875 0 0 1 .478 1.138z" fill="#dcf5ff"/><path d="M164.763 183.333a.868.868 0 0 1-1.153.458.867.867 0 0 1-.447-1.158.883.883 0 0 1 1.148-.446.88.88 0 0 1 .452 1.146z" fill="#dcf5ff"/><path d="M163.163 182.633a.87.87 0 0 1-1.173.415.867.867 0 0 1-.398-1.179c.226-.427.747-.604 1.163-.395a.88.88 0 0 1 .408 1.159z" fill="#dcf5ff"/><path d="M161.592 181.87c-.221.43-.758.583-1.2.342-.437-.259-.577-.804-.315-1.209.262-.407.79-.544 1.182-.311.405.22.554.748.333 1.178z" fill="#dcf5ff"/><path d="M160.077 181.003c-.257.413-.805.518-1.226.239-.41-.294-.504-.845-.211-1.23.292-.384.832-.479 1.206-.21.384.253.485.793.231 1.201z" fill="#dcf5ff"/><path d="M158.64 180.012c-.287.388-.843.453-1.24.143-.386-.325-.438-.88-.116-1.242.32-.36.867-.414 1.219-.117.363.283.425.827.137 1.216z" fill="#dcf5ff"/><path d="M157.284 178.912c-.316.366-.875.388-1.247.048-.36-.354-.369-.913-.021-1.248.348-.335.896-.346 1.224-.023.34.309.36.857.044 1.223z" fill="#dcf5ff"/><path d="M156.016 177.711c-.343.34-.902.318-1.247-.051-.332-.382-.295-.941.079-1.247.374-.306.921-.272 1.221.075.314.336.29.883-.053 1.223z" fill="#dcf5ff"/><path d="M154.848 176.414c-.371.313-.925.242-1.24-.155-.3-.41-.214-.966.186-1.236.401-.271.94-.19 1.209.179.284.357.213.902-.155 1.212z" fill="#dcf5ff"/><path d="M153.794 175.023c-.399.28-.943.158-1.222-.269-.262-.438-.122-.985.302-1.215.426-.23.953-.098 1.185.292.249.38.127.916-.265 1.192z" fill="#dcf5ff"/><path d="M152.874 173.539c-.425.241-.954.062-1.189-.394-.215-.467-.018-.998.429-1.178.449-.181.958.006 1.146.415.208.401.029.922-.386 1.157z" fill="#dcf5ff"/><path d="M152.114 171.968c-.448.192-.955-.047-1.138-.531-.156-.495.102-.998.569-1.119.468-.122.953.124 1.085.549.16.417-.076.912-.516 1.101z" fill="#dcf5ff"/><path d="M141.286 171.009c-1.467 3.743-2.983 7.469-4.459 11.209 6.085-.079 12.197-1.634 17.41-4.453 8.535-4.616 15.061-15.469 11.329-25.084-1.45.512-2.746.58-3.601-.214-4.003-3.716-6.275-9.81-11.986-10.016-12.535-.452-10.117 5.847-7.351 14.347 1.595 4.906.495 9.522-1.342 14.211z" fill="#929196"/><path d="M146.545 187.651c-6.882-6.441-18.729-34.931-16.821-37.413 2.019-2.627 8.687-5.115 13.499-6.635a6.758 6.758 0 0 1 7.896 3.089c2.143 3.729 10.973 20.798 10.343 23.23-.758 2.929-4.379 5.74-7.407 7.063.013.016 3.118 8.434 3.157 8.833.504 5.216-8.171 4.169-10.667 1.833z" fill="#ffa18a"/><path d="M147.066 161.313c-1.039.487-1.081 2.191-.812 3.034.16.501-.118-1.979 1.098-2.573.922-.451 2.801 1.782 2.544 1.32-.859-1.54-2.13-2.109-2.83-1.781zm7.744-3.591c-.867.407-.903 1.829-.678 2.533.133.418-.099-1.652.916-2.148.77-.376 2.338 1.487 2.123 1.102-.716-1.285-1.777-1.76-2.361-1.487z" fill="#2c324d"/><g fill="#ff886b"><path d="M155.384 164.388c-.972-.434-1.717-.814-2.34-1.702-1.613-2.296-1.3-3.296-1.55-5.171-.085-.637-1.021 3.333 1.5 5.938.79.816 2.938 1.156 2.87 2.882 1.055-.606.308-1.595-.48-1.947zm-9.624.085c-1.247-.02-1.875.056-2.463.279-.599.228-.585-.068.035-.246 1.283-.368 3.073-.022 2.428-.033z"/><path d="M145.638 164.694c-.506.047-1.131.167-1.693.45-.573.288-.588-.007.01-.248 1.238-.5 2.326-.262 1.683-.202zm7.87 2.283c-2.458 1.159-3.294 3.173-3.467 4.409-.089.635-.533.661-.443.022.185-1.322 1.573-3.944 3.91-4.431zm2.742-1.469c1.594-.3 3.608.684 4.198 1.784.302.565-1.813-1.875-4.198-1.784zm-8.042 11.391c-.217-.188-.757-.065-.905.255-.624 1.352-3.731-1.084-3.293-.61.969 1.046 2.838 1.992 3.85.698 1.773 1.143 4.55 1.645 5.976-.257-2.321 1.985-4.669.744-5.628-.086zm4.105 6.448c-.358-.553-.441-.553-.722-1.264-.292-.737 0-2.108-.057-2.904-.046-.641-.95 2.886-.215 3.913.353.493.749.78.97 1.361.334.879.398 1.996.583 2.924.127.631.1-3.014-.559-4.03z"/></g><path d="M153.999 170.917c.335.101.82-1.421 1.427-1.88.585-.13 1.012.346 1.028.35-.004-.075.303-.813.586-.792.531.039 1.368.771 1.368.866-.002.715-.613 1.184-1.32 1.555-1.97 1.034-3.802-.315-3.089-.099z" fill="#e8464c"/><path d="M145.962 182.734c-.081-.211-5.958-13.542-4.125-23.188 6.945-.514 13.155-6.17 15.879-12.34 1.117-2.531 1.859-5.665.641-8.29-.768-1.656-2.189-2.934-3.881-3.598-4.387-1.722-8.121 1.234-11.948 2.876-4.162 1.786-8.633 2.871-12.55 5.204-.197.118-.393.238-.586.361-1.865 1.189-3.18 2.903-4.295 4.778-3.364 5.658-2.54 11.191-4.061 17.278-.453 1.814-2.091 4.699-3.074 5.918 6.125 13.751 24.937 14.689 28 11.001z" fill="#9f9ea3"/><path d="M127.149 158.422c-.897 6.295-3.648 11.68-7.182 16.807.371.516.767.999 1.175 1.467 3.508-5.654 5.806-11.852 6.763-18.573.18-1.259-.574-.972-.756.299zm-1.562 17.812c-.488 1.104-1.061 2.107-1.667 3.093.228.179.455.358.689.527a55.643 55.643 0 0 0 1.839-3.742c.515-1.166-.342-1.054-.861.122zm7.75-13.937c.144 7.118-1.216 13.867-4.528 19.977.52.233 1.043.443 1.568.639 2.99-6.541 3.688-13.878 3.538-21.305-.025-1.286-.604-.601-.578.689zm3.168 4.437c-.044 3.543-.864 11.612-1.786 17.392a25.85 25.85 0 0 0 1.75.277c.555-5.921.634-14.077.68-17.732.017-1.286-.628-1.225-.644.063zm2.894-3.562c.161 7.257.409 14.382 2 21.304a13.51 13.51 0 0 0 1.776-.308 80.657 80.657 0 0 1-3.222-20.933c-.028-1.286-.582-1.353-.554-.063zm18.958-24.255a6.727 6.727 0 0 0-.626-1.068c-.716 11.755-9.869 23.169-22.352 21.135-1.259-.205-2.109.216-.84.423 2.566.418 5.005.484 7.283.236l.016-.096c6.945-.514 13.155-6.17 15.879-12.34 1.116-2.531 1.858-5.665.64-8.29z" fill="#929196"/><ellipse cx="360.571" cy="423.724" rx="96.162" ry="15.854" fill="#edf6fa"/><path d="M422.409 387.061c1.762-1.956 4.074-5.477 6.46-6.773 3.489-1.897 12.493 5.687 10.939 8.48-1.236 2.221-3.419 5.475-3.419 5.475l-2.082.855s-.245 2.014-.527 2.619c-2.629 5.639-12.319 16.486-15.388 18.222-2.721 1.539-7.463 4.347-9.743 1.282-2.093-2.814 11.257-27.382 13.76-30.16z" fill="#593d1f"/><path d="M414.779 371.082a1156.177 1156.177 0 0 1 16.82 12.02c-.629 3.819-2.515 6.608-5.742 8.147a515.83 515.83 0 0 1-20.247-8.379c3.153-3.855 6.275-7.733 9.169-11.788z" fill="#ffa18a"/><path d="M423.56 377.357c2.679 1.917 5.376 3.807 8.04 5.745-.629 3.819-2.515 6.608-5.742 8.147a524.982 524.982 0 0 1-9.575-3.844 19.272 19.272 0 0 0 7.277-10.048z" fill="#b0cdd9"/><path d="M418.042 388.112c-.585-.239-1.176-.466-1.76-.707a19.268 19.268 0 0 0 7.278-10.048c.499.357.999.715 1.499 1.071-1.297 4.088-3.587 7.466-7.017 9.684z" fill="#fff"/><path d="M304.232 404.315c2.454-.952 6.105-3.054 8.819-3.137 3.969-.122 8.592 10.705 5.946 12.498-2.104 1.426-5.519 3.349-5.519 3.349l-2.244-.175s-1.125 1.688-1.65 2.101c-4.887 3.851-18.425 9.17-21.946 9.337-3.122.148-8.622.519-9.277-3.244-.601-3.456 22.384-19.376 25.871-20.729z" fill="#593d1f"/><path d="M304.617 386.612a1158.253 1158.253 0 0 1 9.603 18.308c-2.282 3.126-5.222 4.767-8.797 4.687a517.795 517.795 0 0 1-14.302-16.601c4.552-2.022 9.086-4.078 13.496-6.394z" fill="#ffa18a"/><path d="M309.63 396.169c1.528 2.918 3.085 5.821 4.59 8.751-2.282 3.126-5.222 4.767-8.797 4.687a526.161 526.161 0 0 1-6.817-7.745 19.259 19.259 0 0 0 11.024-5.693z" fill="#b0cdd9"/><path d="M299.859 403.286c-.415-.477-.84-.945-1.253-1.424a19.259 19.259 0 0 0 11.024-5.693c.285.544.57 1.089.856 1.632-2.999 3.066-6.565 5.05-10.627 5.485z" fill="#fff"/><path d="M252.758 313.914c5.07-18.427 13.439-35.988 23.729-52.077 8.356-13.498 17.513-22.655 31.856-19.279 14.428 3.396 16.996 20.358 11.331 32.106-2.974 6.167-7.572 11.83-11.271 17.588-4.304 6.699-8.542 13.447-12.545 20.331-2.587 4.448-5.156 8.952-7.271 13.649-.973 2.161-2.914 5.59-2.26 8.084 1.297 4.949 10.24 21.229 12.392 25.852 4.102 8.812 8.519 17.473 12.957 26.12-6.262 7.424-15.341 10.04-24.648 10.181-6.3-11.805-25.823-44.324-30.438-54.46-4.457-9.789-6.761-17.45-3.832-28.095z" fill="#7e5930"/><path d="M334.666 335.171c-9.014-16.852-15.039-35.35-18.657-54.102-3.236-15.542-2.903-28.487 9.822-35.917 15.898-9.282 29.123 7.43 31.624 21.611 2.604 14.76 5.285 29.588 9.122 44.085 1.093 4.129 2.414 13.826 5.697 17.338 4.364 4.669 37.538 32.089 45.91 38.012.572 9.696-4.209 17.844-10.86 24.356-12.697-4.221-67.451-45.647-72.658-55.383z" fill="#7e5930"/><g fill="#6e4b26"><path d="M336.773 331.352c-8.507-15.905-14.767-34.06-18.608-53.968-.816-3.917-2.103-11.58-2.895-18.715a27.229 27.229 0 0 0-.631 3.111c.786 6.244 1.84 12.418 2.545 15.801 3.859 20 10.153 38.25 18.708 54.243 3.286 6.144 27.217 27.971 47.855 44.481 4.594 3.218 8.935 6.12 12.712 8.473-21.877-16.179-55.976-46.49-59.686-53.426z"/><path d="M340.773 331.352c-8.507-15.905-14.767-34.06-18.608-53.968-1.105-5.307-3.078-17.49-3.506-25.92a20.28 20.28 0 0 0-.911 1.354c.553 8.439 2.384 19.71 3.436 24.763 3.859 20 10.153 38.25 18.708 54.243 4.768 8.915 48.876 45.376 68.524 57.624.23-.24.454-.484.678-.728-19.345-11.96-63.565-48.477-68.321-57.368z"/><path d="M344.164 330.189c-11.577-24.639-20.555-68.152-21.85-82.585a24.06 24.06 0 0 0-.948.831c1.531 15.809 10.963 58.918 21.894 82.179 3.934 8.374 46.421 43.199 67.372 56.357.21-.252.414-.508.617-.765-20.709-12.934-63.171-47.689-67.085-56.017z"/><path d="M347.531 328.979c-8.528-15.946-20.143-65.518-21.718-83.816-.326.191-.639.387-.948.584 1.761 18.815 13.294 67.828 21.785 83.703 4.496 8.408 45.195 41.974 65.7 55.297.19-.263.384-.524.567-.792-20.293-13.138-60.912-46.612-65.386-54.976z"/><path d="M350.91 327.792c-7.588-14.189-18.124-65.728-20.362-84.672-.308.087-.618.189-.929.296 2.353 19.444 12.835 70.684 20.41 84.848 4.457 8.335 43.433 40.047 64.28 53.463.173-.3.346-.6.509-.905-20.595-13.359-59.661-45.089-63.908-53.03z"/><path d="M354.29 326.605c-7.532-14.083-16.898-65.439-18.595-84.112-.32-.014-.644-.012-.968-.007 1.736 18.935 11.12 70.454 18.682 84.59 4.014 7.506 40.573 36.796 62.556 51.37.131-.303.255-.608.376-.915-21.829-14.467-58.073-43.488-62.051-50.926z"/><path d="M357.669 325.418c-7.038-13.159-16.302-61.189-18.877-82.467-.327-.081-.658-.15-.99-.21 2.57 21.397 11.894 69.891 18.986 83.149 3.941 7.369 38.577 34.785 60.422 49.099.094-.328.173-.661.254-.993-21.694-14.229-55.899-41.294-59.795-48.578z"/><path d="M361.048 324.231c-7.181-13.425-14.744-57.194-17.334-79.204-.382-.23-.769-.447-1.162-.649 2.538 22.293 10.73 67.454 17.615 80.325 3.724 6.965 35.461 32.678 57.583 47.995.067-.347.133-.694.186-1.045-21.948-15.217-53.21-40.545-56.888-47.422z"/><path d="M407.081 360.167a688.131 688.131 0 0 0-7.483-5.499c-11.335-8.251-23.057-16.784-31.425-27.33-8.815-11.112-15.689-51.359-17.735-76.218-.347-.44-.706-.865-1.072-1.281 1.942 24.949 8.974 66.715 18.024 78.121 8.452 10.654 20.23 19.227 31.62 27.518a673.12 673.12 0 0 1 7.472 5.491c2.558 1.916 5.118 4.012 7.596 6.039 1.33 1.088 2.668 2.183 4.022 3.264.039-.401.066-.806.086-1.214a512.168 512.168 0 0 1-3.475-2.824c-2.485-2.035-5.056-4.138-7.63-6.067z"/><path d="M402.01 354.977a673.12 673.12 0 0 1 7.472 5.491c2.558 1.916 5.118 4.012 7.596 6.039l1.138.931c-.005-.411-.007-.822-.031-1.239-2.599-1.839-7.59-5.751-13.365-10.409-.74-.54-1.475-1.078-2.221-1.621-10.829-7.883-22.004-16.027-30.277-25.935l-.046-.047a7.266 7.266 0 0 1-.598-.736c-.166-.205-.34-.406-.504-.612-8.127-10.244-14.603-45.251-17.168-70.135a36.149 36.149 0 0 0-1.179-2.118c2.437 25.182 9.123 62.235 17.564 72.874 8.451 10.653 20.229 19.226 31.619 27.517z"/></g><g fill="#6e4b26"><path d="M284.419 251.003a53.262 53.262 0 0 0-2.878 3.444c-12.652 24.642-28.657 59.035-28.329 71.218.151 5.619 7.263 22.187 15.55 38.735 6.928 12.121 14.707 25.4 18.266 32.069.229-.004.456-.016.684-.022-12.151-18.262-33.258-61.818-33.5-70.81-.343-12.732 17.378-50.024 30.207-74.634z"/><path d="M292.389 244.499c-.557.306-1.105.638-1.645.991-12.859 24.058-34.335 67.872-33.955 81.965.252 9.383 21.96 50.893 34.203 68.788.371-.036.743-.072 1.112-.118-12.081-17.441-34.063-59.321-34.315-68.698-.385-14.271 21.921-59.389 34.6-82.928z"/><path d="M261.339 327.95c2.171-19.031 24.13-63.691 35.89-85.407-.454.12-.9.259-1.342.409-11.932 22.16-33.39 66.026-35.542 84.885-1.099 9.635 21.378 49.696 34.117 67.923.342-.063.684-.124 1.023-.196-12.876-18.23-35.141-58.9-34.146-67.614z"/><path d="m300.771 244.489 1.387-2.626c-.391.007-.777.025-1.159.053l-1.112 2.106c-12.724 24.08-36.407 68.901-35.991 84.337.248 9.219 20.898 48.501 33.377 66.783.35-.093.694-.2 1.04-.304-12.216-17.933-33.177-57.587-33.417-66.506-.411-15.174 23.193-59.844 35.875-83.843z"/><path d="M306.072 242.127a26.413 26.413 0 0 0-1.05-.132c-13.576 24.573-37.962 72.457-37.575 86.816.26 9.681 21.035 47.287 33.387 65.159.307-.121.611-.245.913-.376-12.476-17.97-33.066-56.118-33.3-64.81-.385-14.311 24.158-62.351 37.625-86.657z"/><path d="M311.103 243.432a18.952 18.952 0 0 0-.94-.342c-13.85 23.787-39.562 71.358-39.163 86.173.236 8.746 20.027 44.134 32.943 63.269.289-.155.576-.313.859-.479C291.98 373.114 272.233 337.9 272 329.235c-.396-14.715 25.344-62.221 39.103-85.803z"/><path d="M313.482 244.601a17.013 17.013 0 0 0-.905-.494c-14.143 24.91-38.416 71.075-38.025 85.607.197 7.333 13.159 29.993 17.127 36.763 5.309 9.059 10.724 17.592 15.276 24.171.273-.197.547-.392.815-.6-12.823-18.589-31.992-51.983-32.217-60.362-.376-13.963 23.865-60.203 37.929-85.085z"/><path d="M318.058 248.575c-.227-.284-.463-.56-.709-.83-14.679 24.208-39.458 68.09-39.244 82.415.084 5.569 17.698 38.645 30.552 59.149.23-.197.461-.391.686-.597-12.935-20.628-30.166-53.692-30.239-58.567-.204-13.755 24.331-57.339 38.954-81.57z"/><path d="M320.84 253.411a21.44 21.44 0 0 0-.467-1.088 944.778 944.778 0 0 0-16.445 27.346c-10.82 18.716-23.455 42.224-22.204 47.923 2.583 11.767 17.347 41.135 28.738 60.039.235-.243.459-.505.688-.76-11.3-18.785-25.889-47.831-28.449-59.494-1.576-7.176 22.069-48.208 38.139-73.966z"/><path d="M285.723 331.754c.126.603.3 1.248.498 1.914-.08-.866.086-1.81.375-2.76-1.067-7.937 6.694-25.073 22.516-49.681 4.436-6.9 9.043-13.671 13.338-19.789a26.434 26.434 0 0 0-.099-1.52c-16.662 23.642-39.346 58.861-36.628 71.836z"/></g><path d="M271.741 227.121c8.285-22.687 12.301-47.326 13.907-71.367-10.678-4.865-20.898-9.307-32.409-15.038-7.382-3.676-18.74-45.568-21.039-54.095 3.254-4.358 12.371-7.521 17.584-4.956 2.122 7.87 16.081 38.674 18.537 42.195 2.64 3.784 109.284 48.34 113.846 47.651 4.245-.641 32.37-13.14 39.541-17.017 5.449 2.016 9.428 10.808 8.505 16.168-7.769 4.2-42.413 27.989-50.16 25.162-10.872-3.967-21.573-9.073-32.304-13.953 2.581 34.489 19.473 84.62 16.852 87.223-36.288 36.029-96.368-13.411-99.077-17.881-1.686-2.781-1.667-5.729-.645-8.736 1.788-5.263 4.94-10.092 6.862-15.356z" fill="#b0cdd9"/><path d="M248.03 82.377s-3.212-.848-7.011-.121c-3.798.726-6.312 3.415-6.312 3.415s3.21.953 7.009.227c3.798-.727 6.314-3.521 6.314-3.521z" fill="#06114f"/><path d="M237.671 84.56s-.992-3.004-1.025-3.061c-1.698-3.044-3.098-5.812-3.291-9.304-.101-1.833-.447-6.26 1.683-7.233 2.169-.99 6.553 6.509 7.181 7.968.297-.881.38-2.574 1.081-2.591 1.48-.036 2.042 3.931 1.911 5.606-.086 1.1-.133 2.889-.611 3.693-.159.268-.955.802-.955.802s.167.848.707 3.296c-1.432.802-5.616 1.287-6.681.824z" fill="#ffa18a"/><path d="M427.904 140.103a4.003 4.003 0 0 0-3.54 4.412l.418 3.811-2.485.272-2.485.272-.418-3.811c-.541-4.933 3.033-9.386 7.966-9.927 4.933-.541 9.386 3.033 9.927 7.966l14.726 134.362-2.485.272-2.485.272-2.753-25.104-11.974-109.256a4.004 4.004 0 0 0-4.412-3.541z" fill="#222221"/><path d="M423.382 156.392s2.654 1.998 4.434 5.432c1.781 3.433 1.225 7.072 1.225 7.072s-2.736-1.932-4.516-5.365c-1.781-3.433-1.143-7.139-1.143-7.139z" fill="#06114f"/><path d="M433.813 156.188s2.331-3.024 1.952-3.53c-.888-1.185-4.351.829-5.586 1.969-.811.748-2.187 1.892-2.523 2.765-.112.291-.039 1.246-.039 1.246s-.769.393-3.027 1.484c.258 1.622 2.467 5.209 3.489 5.759 0 0 2.973-1.079 3.039-1.09.693-.111 2.731-.802 3.424-.874l-.729-7.729zm7.482-1.537c-.416-1.706-4.692.426-5.333 1.667-.58 1.121-.599 3.983.077 5.049.676 1.066 3.837 1.88 4.923 1.117 1.502-1.054.887-5.558.333-7.833z" fill="#ffa18a"/><path d="M310.551 143.461c-4.347-1.855-16.181-7.069-20.172-8.81-11.667 14.667-13.667 91.333-33 107.5.17 1.174 11.333 19.333 29.667 30 14.46-26.005 10.497-107.417 23.505-128.69zm42.075 70.085c-13.747-.104-14.71-35.582-2.081-53.729 0 0-14.892-5.831-19.762-7.85-19.071 25.683-14.78 115.927-10.738 133.35 14.383 2.158 35.898-3.318 48-15.333 1.878-1.864-9.704-29.013-15.419-56.438z" fill="#2c324d"/><path d="M328.188 118.943c-1.739-1.537-3.897-2.662-6.392-3.214-5.715-1.265-13.299.028-15.891 5.974-1.494 3.426-1.934 7.163-2.487 10.824-.629 4.157-2.186 9.777-.447 13.91 1.52 3.613 5.622 4.367 9.116 4.672-.056.153.782 5.934 1.888 12.081.491 2.726 10.859-6.551 11.987-9.081.791-1.772-.117-3.259.656-8.625 0 0 5.802-5.333 6.375-14.213.316-4.876-1.454-9.366-4.805-12.328z" fill="#ffa18a"/><path d="M338.033 118.377c0-.768-.611-1.341-1.286-1.585a2.38 2.38 0 0 0-.451-.107c.149-.443.294-.888.413-1.342.24-.918.554-2.485-.622-2.903-1.792-.638-2.527 1.691-2.824 3.612-5.993-4.374-16.837-1.42-22.256-6.11-1.519-1.315-4.841-3.775-6.607-2.271-4.542 3.87-2.102 13.649 1.229 16.229 6.104 4.729 15.253 3.888 16 4.333 2.302 1.371-.592 8.944.864 9.166.125-.317.703-3.814.703-3.814s2.467-1.846 3.669-.878c1.17.942 1.488 2.354 1.265 3.785-.229 1.472-.988 3.693-2.315 4.55-.54 2.19.222 4.284.803 4.44 5.291-2.92 12.486-18.029 9.509-25.769.949.117 1.906-.184 1.906-1.336z" fill="#9f9ea3"/><path d="M335.712 121.151c-.984-.526-1.966-.685-2.943-.622-4.797-1.916-8.771 1.828-13.4 2.587-6.987 1.146-12.43-4.511-12.657-10.944-.023-.642-.531-1.254-.508-.609.18 5.103 2.79 10.046 7.743 11.952 2.366.91 4.86.952 7.273.199 3.117-.972 6.719-3.058 9.993-2.667-2.67.948-5.31 3.236-7.813 4-11.604 3.542-22.226-5.17-18.771-16.646.107-.355.138-.69.127-.969a1.902 1.902 0 0 0-.356.24c-.171.146-.314.316-.466.478-1.689 6.829.764 14.584 7.585 17.59 2.905 1.281 6.177 1.478 9.28.971 1.907-.312 3.724-.898 5.501-1.647l.029-.013a4.212 4.212 0 0 1 1.611.915c-1.178 1.102-4.229 2.32-6.54 2.2a.75.75 0 0 1 .23.068c.425.253.671.72.802 1.312 1.945-.309 4.434-1.194 5.781-2.749.09-.104.163-.204.231-.302 1.08 1.248 1.714 2.995 1.893 4.411.21 1.666.106 3.056-.302 4.733-.679 2.796-1.869 6.262-4.305 8.013.057.332.132.64.226.898.083-.044.165-.084.257-.149 5.519-3.887 8.322-16.016 1.333-19.917.535-.317 1.153-.686 1.808-1.048 1.692.673 2.56 2.166 2.886 4.095.107.633.621 1.083.514.453-.338-2-1.021-3.567-2.478-5.036 1.867-.944 3.88-1.65 5.181-.955 1.135.607 1.392-.234.255-.842z" fill="#929196"/><g fill="#ff886b"><path d="M317.775 134.588c1.247-.02 1.875.056 2.463.279.6.228.585-.068-.035-.246-1.284-.368-3.074-.023-2.428-.033z"/><path d="M317.897 134.809c.506.047 1.131.167 1.693.449.573.288.588-.007-.01-.248-1.238-.499-2.326-.261-1.683-.201z"/></g><path d="M316.484 131.847c-1.296-.494-2.179.972-2.671 1.917-.297.57 1.251-1.537 2.458-1.175.938.281 1.086 2.896 1.11 2.254.036-.968.256-2.557-.897-2.996zm-9.704-2.145c-1.081-.412-1.817.811-2.227 1.598-.248.475 1.043-1.281 2.049-.98.782.234.906 2.415.926 1.879.03-.805.213-2.13-.748-2.497z" fill="#3c3552"/><path d="M311.65 133.078c-.094 1.25.349 5.908-.063 6.313-.475.467-1.031.205-1.378-.219-.486.19-2.332.844-2.809-.344-.355-2.284 2.156-4.313 2.781-6.219.538-.462 1.26.414 1.469.469z" fill="#ff7857"/><path d="M311.688 133.443a4.63 4.63 0 0 1 4.625-4.625 4.63 4.63 0 0 1 4.625 4.625 4.63 4.63 0 0 1-4.625 4.625 4.63 4.63 0 0 1-4.625-4.625zm1 0c0 1.999 1.626 3.625 3.625 3.625s3.625-1.626 3.625-3.625-1.626-3.625-3.625-3.625-3.625 1.626-3.625 3.625zm-11.337-2.75a4.63 4.63 0 0 1 4.625-4.625 4.63 4.63 0 0 1 4.625 4.625 4.63 4.63 0 0 1-4.625 4.625 4.63 4.63 0 0 1-4.625-4.625zm1 0a3.629 3.629 0 0 0 3.625 3.625 3.629 3.629 0 0 0 3.625-3.625 3.629 3.629 0 0 0-3.625-3.625 3.629 3.629 0 0 0-3.625 3.625z" fill="#fff"/><path fill="#fff" d="m309.997 132.611.242-.969 2.25.562-.242.97zm10.632 1.57 2.365.584.201-1.178-2.781-.383z"/><path d="M313.219 139.724c2.563.906 4.417 4.847 4.713 6.06.152.623.596.605.443-.022-.316-1.298-2.781-5.788-5.156-6.038zm-6.062-1.729c-2.563.906-4.15 3.734-4.07 3.094.063-.5 1.695-2.844 4.07-3.094zm11.156 11.656c.101-.269.635-.418.917-.208 1.194.89 2.76-2.734 2.602-2.109-.352 1.382-1.542 3.105-3.049 2.452-1.012 1.851-4.893 3.123-6.469 1.032 2.324 1.961 5.552.02 5.999-1.167zm-1.875 7.583c.186-.632.266-.655.333-1.417.07-.789-.599-2.022-.77-2.801-.138-.627 1.731 2.498 1.318 3.691-.198.572-.497.961-.543 1.58-.071.938.185 2.027.271 2.969.057.642-.952-2.861-.609-4.022z" fill="#ff886b"/><path d="M305.283 142.567c-.774.257-.712 1.769-.452 2.325.833 1.776 3.57 2.393 5.318 2.468 1.202.052 1.867-1.887 1.724-2.845-.134-.894-.622-.784-1.407-.767a7.978 7.978 0 0 1-2.951-.488c-.617-.23-1.553-.919-2.232-.693z" fill="#ff7857"/></svg></svg>