<svg xmlns="http://www.w3.org/2000/svg" viewBox="0 0 500 500"><path fill="#fff" d="M-.003.001h500v500h-500z"/><path d="M121.531 217.382c-.076-.403-.58-.638-1.095-.51l-26.76 6.641c-.465.115-.771.486-.702.85l6.012 31.783c-2.216-.897-5.169-.53-7.695 1.19-3.624 2.467-4.99 6.775-3.052 9.622 1.938 2.847 6.447 3.156 10.071.689a6.87 6.87 0 00.658-.518c2.796-2.458 3.985-6.277 3.293-9.935l-4.3-22.733 22.598-5.608 3.747 19.811c-2.216-.897-5.169-.53-7.695 1.19-3.624 2.467-4.99 6.775-3.052 9.622 1.938 2.847 6.447 3.156 10.071.689.208-.142.429-.317.658-.518 2.796-2.458 3.985-6.277 3.293-9.935l-6.05-32.33z" fill="#ffc069"/><path d="M67.509 202.661l5.246-1.302c5.151-1.278 8.484-6.522 7.058-11.635l-.031-.111-15.842 3.932c-.387.096-.642.405-.585.708l5.006 26.466c-1.845-.747-4.305-.441-6.408.991-3.018 2.054-4.156 5.642-2.542 8.013 1.614 2.371 5.369 2.628 8.387.574a5.26 5.26 0 00.414-.316c2.429-2.035 3.46-5.301 2.871-8.415l-3.574-18.905z" fill="#b7dae8"/><path d="M43.665 262.959l4.137-1.027c4.062-1.008 6.69-5.143 5.566-9.175l-.025-.088-12.493 3.1c-.305.076-.506.319-.461.558l3.948 20.871c-1.455-.589-3.394-.348-5.053.781-2.38 1.62-3.277 4.449-2.004 6.319 1.273 1.87 4.234 2.072 6.614.452a4.38 4.38 0 00.327-.249c1.916-1.605 2.729-4.18 2.264-6.636l-2.82-14.906z" fill="#edf6fa"/><path d="M217.769 213.186l5.497-1.364c5.397-1.34 8.889-6.834 7.396-12.191l-.033-.116-16.598 4.119c-.405.101-.673.424-.613.741l5.245 27.73c-1.933-.783-4.51-.462-6.714 1.038-3.162 2.152-4.354 5.911-2.663 8.396 1.691 2.484 5.625 2.753 8.787.601.139-.094.284-.206.434-.331 2.545-2.132 3.625-5.554 3.008-8.817l-3.746-19.806z" fill="#ff9b30"/><path d="M262.686 183.876l3.862-.958c3.792-.941 6.244-4.801 5.195-8.564l-.023-.082-11.66 2.894c-.285.071-.473.298-.431.521l3.685 19.48c-1.358-.55-3.168-.325-4.716.729-2.221 1.512-3.059 4.152-1.871 5.898 1.188 1.745 3.952 1.934 6.173.422.098-.066.2-.145.305-.233 1.788-1.498 2.547-3.902 2.113-6.194l-2.632-13.913zm-59-40.334l3.862-.958c3.792-.941 6.244-4.801 5.195-8.564l-.023-.082-11.66 2.894c-.285.071-.473.298-.43.521l3.685 19.48c-1.358-.55-3.168-.325-4.716.729-2.221 1.512-3.059 4.153-1.871 5.898 1.188 1.745 3.952 1.934 6.173.422.098-.066.2-.145.305-.233 1.788-1.498 2.547-3.902 2.113-6.194l-2.633-13.913z" fill="#b7dae8"/><path d="M365.628 133.696c-.043-.229-.329-.362-.622-.29l-15.203 3.773c-.264.065-.438.276-.399.483l3.415 18.057c-1.259-.51-2.937-.301-4.372.676-2.059 1.402-2.835 3.849-1.734 5.467 1.101 1.618 3.663 1.793 5.722.391.118-.081.244-.18.374-.294 1.589-1.396 2.264-3.566 1.871-5.645l-2.443-12.915 12.839-3.186 2.129 11.255c-1.259-.51-2.937-.301-4.372.676-2.059 1.402-2.835 3.849-1.734 5.467 1.101 1.618 3.663 1.793 5.722.391.118-.081.244-.18.374-.294 1.589-1.397 2.264-3.566 1.871-5.645l-3.438-18.367z" fill="#ffc069"/><path d="M196.775 83.314c-.059-.313-.451-.496-.851-.396l-20.8 5.162c-.361.09-.599.378-.546.66l4.673 24.705c-1.722-.697-4.018-.412-5.981.925-2.817 1.918-3.879 5.266-2.372 7.479 1.507 2.213 5.012 2.453 7.829.535.162-.11.334-.246.512-.403 2.174-1.91 3.098-4.879 2.56-7.722l-3.342-17.67 17.565-4.359 2.913 15.399c-1.722-.697-4.018-.412-5.981.925-2.817 1.917-3.879 5.266-2.373 7.479 1.507 2.213 5.012 2.453 7.829.535.162-.11.334-.246.512-.403 2.174-1.91 3.098-4.879 2.56-7.722l-4.707-25.129z" fill="#edf6fa"/><path d="M386.465 79.278l5.376-1.334c5.279-1.31 8.694-6.684 7.233-11.923l-.032-.114-16.234 4.029c-.397.098-.658.415-.599.725l5.13 27.122c-1.891-.765-4.411-.452-6.566 1.015-3.092 2.105-4.258 5.781-2.604 8.211 1.654 2.43 5.502 2.693 8.594.588a5.29 5.29 0 00.425-.324c2.49-2.085 3.546-5.432 2.942-8.623l-3.665-19.372z" fill="#ff9b30"/><path d="M336.048 69.379l4.551-1.129c4.468-1.109 7.358-5.657 6.122-10.092l-.027-.096-13.741 3.41c-.336.083-.557.351-.507.614l4.342 22.956c-1.6-.648-3.734-.383-5.558.859-2.617 1.782-3.604 4.893-2.204 6.95 1.4 2.057 4.657 2.279 7.274.497.115-.078.235-.17.359-.274 2.107-1.765 3.001-4.598 2.49-7.299l-3.101-16.396z" fill="#ffc069"/><path d="M408.533 122.869l4.011-.995c3.938-.977 6.486-4.986 5.396-8.894l-.024-.085-12.11 3.006c-.296.073-.491.309-.447.541l3.827 20.233c-1.41-.571-3.291-.337-4.899.757-2.307 1.57-3.177 4.313-1.943 6.126 1.234 1.813 4.104 2.009 6.411.438.101-.069.208-.15.317-.242 1.857-1.556 2.645-4.052 2.195-6.433l-2.734-14.452zM279.567 96.482l6.109-1.516c5.998-1.489 9.878-7.595 8.219-13.548l-.037-.129-18.446 4.578c-.451.112-.748.471-.681.824l5.829 30.817c-2.148-.87-5.012-.514-7.461 1.153-3.514 2.392-4.839 6.569-2.959 9.33 1.88 2.761 6.251 3.06 9.765.668.154-.105.316-.229.483-.368 2.829-2.369 4.029-6.173 3.343-9.798l-4.164-22.011z" fill="#edf6fa"/><path d="M438.455 59.255l4.13-1.025c4.055-1.006 6.678-5.134 5.556-9.158l-.025-.088-12.47 3.095c-.304.075-.505.318-.46.557l3.941 20.832c-1.452-.588-3.388-.347-5.044.78-2.375 1.617-3.271 4.441-2 6.307 1.27 1.866 4.226 2.068 6.601.451.104-.071.214-.155.326-.249 1.912-1.602 2.724-4.173 2.26-6.624l-2.815-14.878z" fill="#b7dae8"/><ellipse cx="149.571" cy="423.724" rx="96.162" ry="15.854" fill="#edf6fa"/><path d="M94.514 376.346c-.149-1.593.262-1.55-.795-2.881-1.212-1.526-8.519-.33-8.519-.33-.568.311-.616 1.695-.298 2.596l1.936.158s.489 2.707-.626 7.456c-.342 1.456-.417 5.676 1.594 7.506 1.448 1.317 6.926-12.174 6.708-14.505z" fill="#152370"/><path d="M171.874 287.661c-4.828-17.815-23.343-39.972-43.207-25.59-13.997 10.134-7.863 31.247 1.387 42.371 3.267 8.597 4.301 17.882 6.764 26.746 2.286 8.228 5.415 16.153 9.233 23.765-8.869 1.605-15.047 8.15-22.733 12.254-9.228 4.927-19.443 6.982-29.851 6.459-.201-.01-.382.096-.538.276-.232.144-.414.384-.561.623-.825 1.353-1.163 2.92-1.3 4.484-.068.773-.234 1.824.133 2.542.079.154.234.282.407.274.181-.018.311-.141.419-.263.653-.736.961-1.658 1.299-2.564.172-.46.36-.909.54-1.362 39.103 18.339 74.722-9.474 74.909-10.33 5.542-25.274 10.003-54.212 3.099-79.685z" fill="#ffa18a"/><path d="M205.229 409.868c-1.358-.846-1.074-1.147-2.774-1.112-1.949.04-5.422 6.579-5.422 6.579-.096.641.976 1.517 1.886 1.81l1.298-1.445s4.842 4.649 5.192 4.877c1.253.817 4.777.417 7.451-.075 1.924-.354 3.619-2.747-1.746-3.585-2.169-.339-3.898-5.81-5.885-7.049z" fill="#152370"/><path d="M206.654 412.445c-.197-.312-.38-.629-.567-.945 22.671-36.095 17.418-74.046 17.099-74.87-8.667-22.353-19.307-65.436-37.176-76.117-5.796 8.322-12.319 16.184-17.352 24.985-2.237 3.911-4.064 7.972-5.641 12.124 7.422 2.534 20.122 39.767 36.798 50.138-7.688 23.256 5.803 51.596 2.642 61.526-.006.02-.003.042-.007.062-.002.004-.006.006-.008.009-.184.348-.073.774.069 1.141.577 1.476 1.619 2.694 2.781 3.75.574.522 1.309 1.29 2.104 1.434.17.031.366-.016.465-.158.095-.155.076-.333.045-.493-.189-.964-.736-1.768-1.252-2.586z" fill="#ffa18a"/><path d="M170.212 235.734c-.049-.04 1.375-1.688.375-4.688-.738-2.213-.361-3.869.191-6.563h-33.841c.08 2.714 1.847 5.117-.515 6.249-4.96 2.376-2.34 6.967-4.265 9.417-33.768 42.971 4.321 74.859 2.179 92.985-.03.25 49.328 8.236 85.154-14.6-10.258-36.719-14.111-53.883-49.278-82.8z" fill="#b0cdd9"/><path d="M214.998 304.395C203.961 311.99 191.046 316.387 178 319c-15.262 3.057-31.178 3.327-46.573.987 2.044 4.967 3.357 9.359 2.909 13.147-.03.25 49.328 8.236 85.154-14.6-1.429-5.116-2.767-9.894-4.104-14.418-.131.091-.257.189-.388.279zm-87.453-106.244c4.101 3.782 1.667 12.5 7.649 18.016.941.868 1.045 2.357.794 3.612-.686 3.424-3.181 6.38.434 10.954 10.335 5.112 22.343 5.862 32.868 1.565 4.422-4.064 1.258-6.768 1.725-8.954 2.791-2.709 6.327-5.881 6.172-10.059-.243-6.526-3.85-8.462-4.975-14.551 13.036.355 26.275 1.596 39-1.75 7.085-1.863 29.218-27.8 34.792-32.837-1.247-2.818-3.061-5.285-5.688-6.96-3.388 2.835-22.788 18.682-34.767 22.907-7.1 1.312-15.928-.144-26.313-2.056-8.392-1.546-17.096-2.027-25.637-2.036-10.18-.01-20.107 2.426-30.217-.317-8.077-2.192-17.337-2.628-23.734-7.905-3.835-3.164-16.721-29.944-20.963-39.02-3.383.202-4.081.589-7.009 2.055 3.295 11.743 10.608 48.969 20.367 55.669 7.228 4.961 34.382 10.634 35.502 11.667z" fill="#373f61"/><path d="M148.318 216.849c1.333 3.46 4.426 6.636 8.23 6.182 1.99-.237 3.651-1.546 4.878-3.246-3.943 2.206-9.729.599-13.108-2.936z" fill="#2c324d"/><path d="M78.337 129.191s-1.404.023-3.091.524c-1.688.502-3.02 1.293-3.02 1.293s1.555.176 3.243-.326c1.686-.502 2.868-1.491 2.868-1.491z" fill="#06114f"/><path d="M73.1 130.61s-.773-1.736-.796-1.768c-1.198-1.717-2.201-3.288-2.526-5.363-.171-1.089-.643-3.715.571-4.424 1.237-.722 4.307 3.497 4.771 4.332.124-.545.072-1.561.491-1.614.883-.11 1.456 2.227 1.479 3.236.015.663.094 1.735-.143 2.244-.079.17-.523.536-.523.536s.151.497.621 1.928c-.809.565-3.281 1.106-3.945.893z" fill="#ffa18a"/><path d="M240.913 158.421s1.158.794 2.288 2.144 1.804 2.745 1.804 2.745-1.394-.712-2.524-2.062c-1.13-1.35-1.568-2.827-1.568-2.827z" fill="#06114f"/><path d="M244.495 162.495s1.603-1.02 1.64-1.035c1.947-.771 3.65-1.527 5.066-3.078.744-.814 2.587-2.743 1.966-4.005-.633-1.285-5.522.538-6.369.979.197-.523.802-1.342.482-1.617-.675-.579-2.444 1.053-3.019 1.882-.378.545-1.036 1.395-1.12 1.95-.028.185.139.736.139.736s-.4.331-1.582 1.265c.364.918 2.126 2.733 2.797 2.923z" fill="#ffa18a"/><path d="M135.024 177.55c.259-.408.817-.493 1.243-.188.406.327.464.894.141 1.251-.325.36-.862.417-1.205.138-.359-.254-.438-.793-.179-1.201z" fill="#dcf5ff"/><path d="M136.408 178.613c.322-.373.88-.377 1.254-.018.363.367.339.94-.023 1.255-.367.32-.902.299-1.217-.019-.322-.309-.324-.859-.014-1.218z" fill="#dcf5ff"/><path d="M137.639 179.85c.363-.328.925-.275 1.245.123a.858.858 0 01-.157 1.241.893.893 0 01-1.212-.15c-.283-.354-.229-.895.124-1.214z" fill="#dcf5ff"/><path d="M138.728 181.214a.856.856 0 011.226.234.859.859 0 01-.26 1.22.891.891 0 01-1.198-.253.893.893 0 01.232-1.201z" fill="#dcf5ff"/><path d="M139.693 182.668a.861.861 0 011.204.318c.25.432.09.971-.338 1.198a.887.887 0 01-1.182-.33.89.89 0 01.316-1.186z" fill="#dcf5ff"/><path d="M140.56 184.184a.866.866 0 011.184.378.865.865 0 01-.393 1.178.882.882 0 01-1.168-.387.882.882 0 01.377-1.169z" fill="#dcf5ff"/><path d="M141.351 185.74a.87.87 0 011.168.419.87.87 0 01-.428 1.163.878.878 0 01-1.158-.423.879.879 0 01.418-1.159z" fill="#dcf5ff"/><path d="M142.091 187.322a.873.873 0 11.712 1.594.873.873 0 01-.712-1.594z" fill="#dcf5ff"/><path d="M142.803 188.916a.874.874 0 11.711 1.597.874.874 0 01-.711-1.597z" fill="#dcf5ff"/><path d="M143.51 190.513a.873.873 0 11.701 1.599.874.874 0 01-1.151-.449.875.875 0 01.45-1.15z" fill="#dcf5ff"/><path d="M144.212 192.112a.875.875 0 011.152.448.877.877 0 01-.449 1.151.872.872 0 11-.703-1.599z" fill="#dcf5ff"/><path d="M144.915 193.711a.875.875 0 011.154.438.876.876 0 01-1.595.719.872.872 0 01.441-1.157zm.718 1.591a.876.876 0 011.159.419.875.875 0 01-1.582.746.87.87 0 01.423-1.165z" fill="#dcf5ff"/><path d="M146.379 196.881a.885.885 0 011.17.388.883.883 0 01-.386 1.172.866.866 0 01-1.177-.384.864.864 0 01.393-1.176z" fill="#dcf5ff"/><path d="M147.163 198.442a.883.883 0 011.183.347.885.885 0 01-.34 1.182.862.862 0 01-1.194-.341.864.864 0 01.351-1.188z" fill="#dcf5ff"/><path d="M148.005 199.971a.875.875 0 011.189.301.875.875 0 01-1.497.905.873.873 0 01.308-1.206z" fill="#dcf5ff"/><path d="M148.911 201.464a.886.886 0 011.202.238c.267.381.166.922-.223 1.208-.39.286-.938.186-1.224-.224a.864.864 0 01.245-1.222z" fill="#dcf5ff"/><path d="M149.89 202.909a.897.897 0 011.218.159.9.9 0 01-.147 1.22.852.852 0 01-1.235-.146.854.854 0 01.164-1.233z" fill="#dcf5ff"/><path d="M150.961 204.288c.373-.307.921-.275 1.223.073a.89.89 0 01-.05 1.22.86.86 0 01-1.25-.048c-.331-.381-.296-.938.077-1.245z" fill="#dcf5ff"/><path d="M152.134 205.58a.879.879 0 011.217-.022c.342.302.366.847.055 1.217-.311.37-.872.396-1.252.059a.87.87 0 01-.02-1.254z" fill="#dcf5ff"/><path d="M153.406 206.775a.908.908 0 011.215-.141c.362.275.43.825.158 1.219-.277.401-.827.471-1.232.162a.845.845 0 01-.141-1.24z" fill="#dcf5ff"/><path d="M154.778 207.854c.282-.392.814-.513 1.187-.268.389.223.527.748.303 1.177-.223.428-.769.574-1.215.316-.435-.284-.557-.833-.275-1.225z" fill="#dcf5ff"/><path d="M156.268 208.763c.228-.417.745-.603 1.152-.406a.892.892 0 01.432 1.14.858.858 0 01-1.17.446c-.463-.223-.649-.749-.414-1.18z" fill="#dcf5ff"/><path d="M157.851 209.497a.898.898 0 011.107-.517.897.897 0 01.539 1.097.854.854 0 01-1.12.554.854.854 0 01-.526-1.134zm1.647.579a.89.89 0 011.058-.611c.446.108.728.583.632 1.05-.099.479-.576.765-1.067.645a.86.86 0 01-.623-1.084z" fill="#dcf5ff"/><path d="M161.187 210.515c.104-.472.555-.784 1.006-.696.454.073.775.511.714.992a.869.869 0 01-1.013.733c-.494-.097-.811-.558-.707-1.029zm1.721.295a.896.896 0 01.951-.773.892.892 0 01.786.939.857.857 0 01-.954.803.855.855 0 01-.783-.969z" fill="#dcf5ff"/><path d="M164.646 210.976a.886.886 0 01.892-.838c.461.004.843.4.854.882.01.484-.39.872-.893.868a.862.862 0 01-.853-.912z" fill="#dcf5ff"/><path d="M166.391 211.02c-.004-.483.367-.889.827-.906a.886.886 0 01.916.81.864.864 0 01-.826.937c-.503.02-.913-.357-.917-.841z" fill="#dcf5ff"/><path d="M168.134 210.925a.895.895 0 01.756-.963.896.896 0 01.975.741.855.855 0 01-.752.995.856.856 0 01-.979-.773z" fill="#dcf5ff"/><path d="M169.865 210.703c-.077-.479.228-.925.678-1.016.446-.104.908.191 1.031.658.123.467-.176.94-.67 1.054a.866.866 0 01-1.039-.696z" fill="#dcf5ff"/><path d="M171.574 210.346c-.114-.462.147-.949.585-1.075a.893.893 0 011.083.563.86.86 0 01-.574 1.112c-.488.139-.976-.124-1.094-.6zm1.669-.513a.9.9 0 01.481-1.121.903.903 0 011.132.457.85.85 0 01-.465 1.161.852.852 0 01-1.148-.497z" fill="#dcf5ff"/><path d="M174.856 209.169a.89.89 0 01.361-1.162c.389-.225.916-.073 1.175.333.261.41.108.948-.339 1.204a.86.86 0 01-1.197-.375z" fill="#dcf5ff"/><path d="M176.392 208.34c-.251-.413-.154-.951.218-1.199.359-.263.888-.192 1.2.181.308.368.234.938-.185 1.244-.43.289-.982.187-1.233-.226z" fill="#dcf5ff"/><path d="M177.81 207.322c-.296-.372-.265-.91.056-1.214a.907.907 0 011.212.017.846.846 0 01-.014 1.258c-.38.36-.948.323-1.254-.061z" fill="#dcf5ff"/><path d="M179.078 206.125a.913.913 0 01-.121-1.206.917.917 0 011.201-.163c.408.265.507.84.173 1.247a.843.843 0 01-1.253.122z" fill="#dcf5ff"/><path d="M180.158 204.756a.903.903 0 01-.305-1.17c.201-.388.733-.538 1.163-.348.453.201.607.736.363 1.204-.252.463-.831.585-1.221.314z" fill="#dcf5ff"/><path d="M181.017 203.238c-.436-.208-.656-.706-.487-1.11.141-.415.617-.656 1.086-.529.464.125.726.638.556 1.135-.201.488-.72.713-1.155.504z" fill="#dcf5ff"/><path d="M181.616 201.6c-.454-.136-.733-.591-.652-1.026a.912.912 0 011.005-.682.843.843 0 01.708 1.037c-.098.515-.59.812-1.061.671z" fill="#dcf5ff"/><path d="M181.969 199.892c-.481-.072-.812-.491-.77-.935.017-.443.426-.803.909-.804.483-.002.859.42.836.94-.049.516-.501.871-.975.799z" fill="#dcf5ff"/><path d="M182.108 198.153c-.472-.011-.877-.377-.902-.814a.914.914 0 01.779-.925.843.843 0 01.967.809c.031.526-.35.942-.844.93z" fill="#dcf5ff"/><path d="M181.986 196.414a.92.92 0 01-1.016-.652c-.09-.423.16-.881.61-1.043.459-.164.977.112 1.091.634a.84.84 0 01-.685 1.061z" fill="#dcf5ff"/><path d="M181.58 194.719a.913.913 0 01-1.116-.456c-.177-.392 0-.898.409-1.137.427-.248.968-.064 1.19.424.229.484-.032 1.026-.483 1.169z" fill="#dcf5ff"/><path d="M180.873 193.126c-.431.233-.938.109-1.182-.249-.255-.352-.16-.891.202-1.194.379-.316.934-.223 1.243.208.299.439.158 1.01-.263 1.235z" fill="#dcf5ff"/><path d="M179.894 191.684c-.382.3-.917.27-1.211-.058-.315-.312-.305-.859.018-1.216.325-.359.887-.352 1.256.016.351.389.315.961-.063 1.258z" fill="#dcf5ff"/><path d="M178.701 190.41c-.332.351-.877.398-1.215.103-.354-.28-.419-.818-.134-1.21.283-.39.844-.46 1.246-.141.39.337.436.897.103 1.248z" fill="#dcf5ff"/><path d="M177.352 189.303c-.286.381-.824.483-1.202.226a.89.89 0 01-.248-1.197.86.86 0 011.223-.256c.419.284.521.835.227 1.227z" fill="#dcf5ff"/><path d="M175.902 188.331a.89.89 0 01-1.184.317.89.89 0 01-.333-1.181.86.86 0 011.198-.341.86.86 0 01.319 1.205z" fill="#dcf5ff"/><path d="M174.385 187.468a.882.882 0 01-1.166.384c-.423-.205-.599-.729-.396-1.165a.867.867 0 011.175-.402.867.867 0 01.387 1.183z" fill="#dcf5ff"/><path d="M172.823 186.687a.878.878 0 01-1.152.434.877.877 0 01-.441-1.149.87.87 0 011.158-.447.869.869 0 01.435 1.162z" fill="#dcf5ff"/><path d="M171.23 185.971a.88.88 0 01-1.142.465.879.879 0 01-.469-1.141.87.87 0 011.145-.473.87.87 0 01.466 1.149z" fill="#dcf5ff"/><path d="M169.62 185.296a.876.876 0 01-1.135.484.874.874 0 01.653-1.623c.449.18.665.693.482 1.139z" fill="#dcf5ff"/><path d="M168 184.643a.872.872 0 11-1.621-.647.873.873 0 111.621.647z" fill="#dcf5ff"/><path d="M166.378 183.996a.87.87 0 01-1.141.481.87.87 0 01-.475-1.144.879.879 0 011.138-.475.875.875 0 01.478 1.138z" fill="#dcf5ff"/><path d="M164.763 183.333a.868.868 0 01-1.153.458.867.867 0 01-.447-1.158.883.883 0 011.148-.446.88.88 0 01.452 1.146z" fill="#dcf5ff"/><path d="M163.163 182.633a.87.87 0 01-1.173.415.867.867 0 01-.398-1.179c.226-.427.747-.604 1.163-.395a.88.88 0 01.408 1.159z" fill="#dcf5ff"/><path d="M161.592 181.87c-.221.43-.758.583-1.2.342-.437-.259-.577-.804-.315-1.209.262-.407.79-.544 1.182-.311.405.22.554.748.333 1.178z" fill="#dcf5ff"/><path d="M160.077 181.003c-.257.413-.805.518-1.226.239-.41-.294-.504-.845-.211-1.23.292-.384.832-.479 1.206-.21.384.253.485.793.231 1.201z" fill="#dcf5ff"/><path d="M158.64 180.012c-.287.388-.843.453-1.24.143-.386-.325-.438-.88-.116-1.242.32-.36.867-.414 1.219-.117.363.283.425.827.137 1.216z" fill="#dcf5ff"/><path d="M157.284 178.912c-.316.366-.875.388-1.247.048-.36-.354-.369-.913-.021-1.248.348-.335.896-.346 1.224-.023.34.309.36.857.044 1.223z" fill="#dcf5ff"/><path d="M156.016 177.711c-.343.34-.902.318-1.247-.051-.332-.382-.295-.941.079-1.247.374-.306.921-.272 1.221.075.314.336.29.883-.053 1.223z" fill="#dcf5ff"/><path d="M154.848 176.414c-.371.313-.925.242-1.24-.155-.3-.41-.214-.966.186-1.236.401-.271.94-.19 1.209.179.284.357.213.902-.155 1.212z" fill="#dcf5ff"/><path d="M153.794 175.023c-.399.28-.943.158-1.222-.269-.262-.438-.122-.985.302-1.215.426-.23.953-.098 1.185.292.249.38.127.916-.265 1.192z" fill="#dcf5ff"/><path d="M152.874 173.539c-.425.241-.954.062-1.189-.394-.215-.467-.018-.998.429-1.178.449-.181.958.006 1.146.415.208.401.029.922-.386 1.157z" fill="#dcf5ff"/><path d="M152.114 171.968c-.448.192-.955-.047-1.138-.531-.156-.495.102-.998.569-1.119.468-.122.953.124 1.085.549.16.417-.076.912-.516 1.101z" fill="#dcf5ff"/><path d="M141.286 171.009c-1.467 3.743-2.983 7.469-4.459 11.209 6.085-.079 12.197-1.634 17.41-4.453 8.535-4.616 15.061-15.469 11.329-25.084-1.45.512-2.746.58-3.601-.214-4.003-3.716-6.275-9.81-11.986-10.016-12.535-.452-10.117 5.847-7.351 14.347 1.595 4.906.495 9.522-1.342 14.211z" fill="#929196"/><path d="M146.545 187.651c-6.882-6.441-18.729-34.931-16.821-37.413 2.019-2.627 8.687-5.115 13.499-6.635a6.758 6.758 0 017.896 3.089c2.143 3.729 10.973 20.798 10.343 23.23-.758 2.929-4.379 5.74-7.407 7.063.013.016 3.118 8.434 3.157 8.833.504 5.216-8.171 4.169-10.667 1.833z" fill="#ffa18a"/><path d="M147.066 161.313c-1.039.487-1.081 2.191-.812 3.034.16.501-.118-1.979 1.098-2.573.922-.451 2.801 1.782 2.544 1.32-.859-1.54-2.13-2.109-2.83-1.781zm7.744-3.591c-.867.407-.903 1.829-.678 2.533.133.418-.099-1.652.916-2.148.77-.376 2.338 1.487 2.123 1.102-.716-1.285-1.777-1.76-2.361-1.487z" fill="#2c324d"/><g fill="#ff886b"><path d="M155.384 164.388c-.972-.434-1.717-.814-2.34-1.702-1.613-2.296-1.3-3.296-1.55-5.171-.085-.637-1.021 3.333 1.5 5.938.79.816 2.938 1.156 2.87 2.882 1.055-.606.308-1.595-.48-1.947zm-9.624.085c-1.247-.02-1.875.056-2.463.279-.599.228-.585-.068.035-.246 1.283-.368 3.073-.022 2.428-.033z"/><path d="M145.638 164.694c-.506.047-1.131.167-1.693.45-.573.288-.588-.007.01-.248 1.238-.5 2.326-.262 1.683-.202zm7.87 2.283c-2.458 1.159-3.294 3.173-3.467 4.409-.089.635-.533.661-.443.022.185-1.322 1.573-3.944 3.91-4.431zm2.742-1.469c1.594-.3 3.608.684 4.198 1.784.302.565-1.813-1.875-4.198-1.784zm-8.042 11.391c-.217-.188-.757-.065-.905.255-.624 1.352-3.731-1.084-3.293-.61.969 1.046 2.838 1.992 3.85.698 1.773 1.143 4.55 1.645 5.976-.257-2.321 1.985-4.669.744-5.628-.086zm4.105 6.448c-.358-.553-.441-.553-.722-1.264-.292-.737 0-2.108-.057-2.904-.046-.641-.95 2.886-.215 3.913.353.493.749.78.97 1.361.334.879.398 1.996.583 2.924.127.631.1-3.014-.559-4.03z"/></g><path d="M153.999 170.917c.335.101.82-1.421 1.427-1.88.585-.13 1.012.346 1.028.35-.004-.075.303-.813.586-.792.531.039 1.368.771 1.368.866-.002.715-.613 1.184-1.32 1.555-1.97 1.034-3.802-.315-3.089-.099z" fill="#e8464c"/><path d="M145.962 182.734c-.081-.211-5.958-13.542-4.125-23.188 6.945-.514 13.155-6.17 15.879-12.34 1.117-2.531 1.859-5.665.641-8.29-.768-1.656-2.189-2.934-3.881-3.598-4.387-1.722-8.121 1.234-11.948 2.876-4.162 1.786-8.633 2.871-12.55 5.204-.197.118-.393.238-.586.361-1.865 1.189-3.18 2.903-4.295 4.778-3.364 5.658-2.54 11.191-4.061 17.278-.453 1.814-2.091 4.699-3.074 5.918 6.125 13.751 24.937 14.689 28 11.001z" fill="#9f9ea3"/><path d="M127.149 158.422c-.897 6.295-3.648 11.68-7.182 16.807.371.516.767.999 1.175 1.467 3.508-5.654 5.806-11.852 6.763-18.573.18-1.259-.574-.972-.756.299zm-1.562 17.812c-.488 1.104-1.061 2.107-1.667 3.093.228.179.455.358.689.527a55.643 55.643 0 001.839-3.742c.515-1.166-.342-1.054-.861.122zm7.75-13.937c.144 7.118-1.216 13.867-4.528 19.977.52.233 1.043.443 1.568.639 2.99-6.541 3.688-13.878 3.538-21.305-.025-1.286-.604-.601-.578.689zm3.168 4.437c-.044 3.543-.864 11.612-1.786 17.392a25.85 25.85 0 001.75.277c.555-5.921.634-14.077.68-17.732.017-1.286-.628-1.225-.644.063zm2.894-3.562c.161 7.257.409 14.382 2 21.304a13.51 13.51 0 001.776-.308 80.657 80.657 0 01-3.222-20.933c-.028-1.286-.582-1.353-.554-.063zm18.958-24.255a6.727 6.727 0 00-.626-1.068c-.716 11.755-9.869 23.169-22.352 21.135-1.259-.205-2.109.216-.84.423 2.566.418 5.005.484 7.283.236l.016-.096c6.945-.514 13.155-6.17 15.879-12.34 1.116-2.531 1.858-5.665.64-8.29z" fill="#929196"/><ellipse cx="360.571" cy="423.724" rx="96.162" ry="15.854" fill="#edf6fa"/><path d="M422.409 387.061c1.762-1.956 4.074-5.477 6.46-6.773 3.489-1.897 12.493 5.687 10.939 8.48-1.236 2.221-3.419 5.475-3.419 5.475l-2.082.855s-.245 2.014-.527 2.619c-2.629 5.639-12.319 16.486-15.388 18.222-2.721 1.539-7.463 4.347-9.743 1.282-2.093-2.814 11.257-27.382 13.76-30.16z" fill="#593d1f"/><path d="M414.779 371.082a1156.177 1156.177 0 0116.82 12.02c-.629 3.819-2.515 6.608-5.742 8.147a515.83 515.83 0 01-20.247-8.379c3.153-3.855 6.275-7.733 9.169-11.788z" fill="#ffa18a"/><path d="M423.56 377.357c2.679 1.917 5.376 3.807 8.04 5.745-.629 3.819-2.515 6.608-5.742 8.147a524.982 524.982 0 01-9.575-3.844 19.272 19.272 0 007.277-10.048z" fill="#b0cdd9"/><path d="M418.042 388.112c-.585-.239-1.176-.466-1.76-.707a19.268 19.268 0 007.278-10.048c.499.357.999.715 1.499 1.071-1.297 4.088-3.587 7.466-7.017 9.684z" fill="#fff"/><path d="M304.232 404.315c2.454-.952 6.105-3.054 8.819-3.137 3.969-.122 8.592 10.705 5.946 12.498-2.104 1.426-5.519 3.349-5.519 3.349l-2.244-.175s-1.125 1.688-1.65 2.101c-4.887 3.851-18.425 9.17-21.946 9.337-3.122.148-8.622.519-9.277-3.244-.601-3.456 22.384-19.376 25.871-20.729z" fill="#593d1f"/><path d="M304.617 386.612a1158.253 1158.253 0 019.603 18.308c-2.282 3.126-5.222 4.767-8.797 4.687a517.795 517.795 0 01-14.302-16.601c4.552-2.022 9.086-4.078 13.496-6.394z" fill="#ffa18a"/><path d="M309.63 396.169c1.528 2.918 3.085 5.821 4.59 8.751-2.282 3.126-5.222 4.767-8.797 4.687a526.161 526.161 0 01-6.817-7.745 19.259 19.259 0 0011.024-5.693z" fill="#b0cdd9"/><path d="M299.859 403.286c-.415-.477-.84-.945-1.253-1.424a19.259 19.259 0 0011.024-5.693c.285.544.57 1.089.856 1.632-2.999 3.066-6.565 5.05-10.627 5.485z" fill="#fff"/><path d="M252.758 313.914c5.07-18.427 13.439-35.988 23.729-52.077 8.356-13.498 17.513-22.655 31.856-19.279 14.428 3.396 16.996 20.358 11.331 32.106-2.974 6.167-7.572 11.83-11.271 17.588-4.304 6.699-8.542 13.447-12.545 20.331-2.587 4.448-5.156 8.952-7.271 13.649-.973 2.161-2.914 5.59-2.26 8.084 1.297 4.949 10.24 21.229 12.392 25.852 4.102 8.812 8.519 17.473 12.957 26.12-6.262 7.424-15.341 10.04-24.648 10.181-6.3-11.805-25.823-44.324-30.438-54.46-4.457-9.789-6.761-17.45-3.832-28.095z" fill="#7e5930"/><path d="M334.666 335.171c-9.014-16.852-15.039-35.35-18.657-54.102-3.236-15.542-2.903-28.487 9.822-35.917 15.898-9.282 29.123 7.43 31.624 21.611 2.604 14.76 5.285 29.588 9.122 44.085 1.093 4.129 2.414 13.826 5.697 17.338 4.364 4.669 37.538 32.089 45.91 38.012.572 9.696-4.209 17.844-10.86 24.356-12.697-4.221-67.451-45.647-72.658-55.383z" fill="#7e5930"/><g fill="#6e4b26"><path d="M336.773 331.352c-8.507-15.905-14.767-34.06-18.608-53.968-.816-3.917-2.103-11.58-2.895-18.715a27.229 27.229 0 00-.631 3.111c.786 6.244 1.84 12.418 2.545 15.801 3.859 20 10.153 38.25 18.708 54.243 3.286 6.144 27.217 27.971 47.855 44.481 4.594 3.218 8.935 6.12 12.712 8.473-21.877-16.179-55.976-46.49-59.686-53.426z"/><path d="M340.773 331.352c-8.507-15.905-14.767-34.06-18.608-53.968-1.105-5.307-3.078-17.49-3.506-25.92a20.28 20.28 0 00-.911 1.354c.553 8.439 2.384 19.71 3.436 24.763 3.859 20 10.153 38.25 18.708 54.243 4.768 8.915 48.876 45.376 68.524 57.624.23-.24.454-.484.678-.728-19.345-11.96-63.565-48.477-68.321-57.368z"/><path d="M344.164 330.189c-11.577-24.639-20.555-68.152-21.85-82.585a24.06 24.06 0 00-.948.831c1.531 15.809 10.963 58.918 21.894 82.179 3.934 8.374 46.421 43.199 67.372 56.357.21-.252.414-.508.617-.765-20.709-12.934-63.171-47.689-67.085-56.017z"/><path d="M347.531 328.979c-8.528-15.946-20.143-65.518-21.718-83.816-.326.191-.639.387-.948.584 1.761 18.815 13.294 67.828 21.785 83.703 4.496 8.408 45.195 41.974 65.7 55.297.19-.263.384-.524.567-.792-20.293-13.138-60.912-46.612-65.386-54.976z"/><path d="M350.91 327.792c-7.588-14.189-18.124-65.728-20.362-84.672-.308.087-.618.189-.929.296 2.353 19.444 12.835 70.684 20.41 84.848 4.457 8.335 43.433 40.047 64.28 53.463.173-.3.346-.6.509-.905-20.595-13.359-59.661-45.089-63.908-53.03z"/><path d="M354.29 326.605c-7.532-14.083-16.898-65.439-18.595-84.112-.32-.014-.644-.012-.968-.007 1.736 18.935 11.12 70.454 18.682 84.59 4.014 7.506 40.573 36.796 62.556 51.37.131-.303.255-.608.376-.915-21.829-14.467-58.073-43.488-62.051-50.926z"/><path d="M357.669 325.418c-7.038-13.159-16.302-61.189-18.877-82.467-.327-.081-.658-.15-.99-.21 2.57 21.397 11.894 69.891 18.986 83.149 3.941 7.369 38.577 34.785 60.422 49.099.094-.328.173-.661.254-.993-21.694-14.229-55.899-41.294-59.795-48.578z"/><path d="M361.048 324.231c-7.181-13.425-14.744-57.194-17.334-79.204-.382-.23-.769-.447-1.162-.649 2.538 22.293 10.73 67.454 17.615 80.325 3.724 6.965 35.461 32.678 57.583 47.995.067-.347.133-.694.186-1.045-21.948-15.217-53.21-40.545-56.888-47.422z"/><path d="M407.081 360.167a688.131 688.131 0 00-7.483-5.499c-11.335-8.251-23.057-16.784-31.425-27.33-8.815-11.112-15.689-51.359-17.735-76.218-.347-.44-.706-.865-1.072-1.281 1.942 24.949 8.974 66.715 18.024 78.121 8.452 10.654 20.23 19.227 31.62 27.518a673.12 673.12 0 017.472 5.491c2.558 1.916 5.118 4.012 7.596 6.039 1.33 1.088 2.668 2.183 4.022 3.264.039-.401.066-.806.086-1.214a512.168 512.168 0 01-3.475-2.824c-2.485-2.035-5.056-4.138-7.63-6.067z"/><path d="M402.01 354.977a673.12 673.12 0 017.472 5.491c2.558 1.916 5.118 4.012 7.596 6.039l1.138.931c-.005-.411-.007-.822-.031-1.239-2.599-1.839-7.59-5.751-13.365-10.409-.74-.54-1.475-1.078-2.221-1.621-10.829-7.883-22.004-16.027-30.277-25.935l-.046-.047a7.266 7.266 0 01-.598-.736c-.166-.205-.34-.406-.504-.612-8.127-10.244-14.603-45.251-17.168-70.135a36.149 36.149 0 00-1.179-2.118c2.437 25.182 9.123 62.235 17.564 72.874 8.451 10.653 20.229 19.226 31.619 27.517z"/></g><g fill="#6e4b26"><path d="M284.419 251.003a53.262 53.262 0 00-2.878 3.444c-12.652 24.642-28.657 59.035-28.329 71.218.151 5.619 7.263 22.187 15.55 38.735 6.928 12.121 14.707 25.4 18.266 32.069.229-.004.456-.016.684-.022-12.151-18.262-33.258-61.818-33.5-70.81-.343-12.732 17.378-50.024 30.207-74.634z"/><path d="M292.389 244.499c-.557.306-1.105.638-1.645.991-12.859 24.058-34.335 67.872-33.955 81.965.252 9.383 21.96 50.893 34.203 68.788.371-.036.743-.072 1.112-.118-12.081-17.441-34.063-59.321-34.315-68.698-.385-14.271 21.921-59.389 34.6-82.928z"/><path d="M261.339 327.95c2.171-19.031 24.13-63.691 35.89-85.407-.454.12-.9.259-1.342.409-11.932 22.16-33.39 66.026-35.542 84.885-1.099 9.635 21.378 49.696 34.117 67.923.342-.063.684-.124 1.023-.196-12.876-18.23-35.141-58.9-34.146-67.614z"/><path d="M300.771 244.489l1.387-2.626c-.391.007-.777.025-1.159.053l-1.112 2.106c-12.724 24.08-36.407 68.901-35.991 84.337.248 9.219 20.898 48.501 33.377 66.783.35-.093.694-.2 1.04-.304-12.216-17.933-33.177-57.587-33.417-66.506-.411-15.174 23.193-59.844 35.875-83.843z"/><path d="M306.072 242.127a26.413 26.413 0 00-1.05-.132c-13.576 24.573-37.962 72.457-37.575 86.816.26 9.681 21.035 47.287 33.387 65.159.307-.121.611-.245.913-.376-12.476-17.97-33.066-56.118-33.3-64.81-.385-14.311 24.158-62.351 37.625-86.657z"/><path d="M311.103 243.432a18.952 18.952 0 00-.94-.342c-13.85 23.787-39.562 71.358-39.163 86.173.236 8.746 20.027 44.134 32.943 63.269.289-.155.576-.313.859-.479C291.98 373.114 272.233 337.9 272 329.235c-.396-14.715 25.344-62.221 39.103-85.803z"/><path d="M313.482 244.601a17.013 17.013 0 00-.905-.494c-14.143 24.91-38.416 71.075-38.025 85.607.197 7.333 13.159 29.993 17.127 36.763 5.309 9.059 10.724 17.592 15.276 24.171.273-.197.547-.392.815-.6-12.823-18.589-31.992-51.983-32.217-60.362-.376-13.963 23.865-60.203 37.929-85.085z"/><path d="M318.058 248.575c-.227-.284-.463-.56-.709-.83-14.679 24.208-39.458 68.09-39.244 82.415.084 5.569 17.698 38.645 30.552 59.149.23-.197.461-.391.686-.597-12.935-20.628-30.166-53.692-30.239-58.567-.204-13.755 24.331-57.339 38.954-81.57z"/><path d="M320.84 253.411a21.44 21.44 0 00-.467-1.088 944.778 944.778 0 00-16.445 27.346c-10.82 18.716-23.455 42.224-22.204 47.923 2.583 11.767 17.347 41.135 28.738 60.039.235-.243.459-.505.688-.76-11.3-18.785-25.889-47.831-28.449-59.494-1.576-7.176 22.069-48.208 38.139-73.966z"/><path d="M285.723 331.754c.126.603.3 1.248.498 1.914-.08-.866.086-1.81.375-2.76-1.067-7.937 6.694-25.073 22.516-49.681 4.436-6.9 9.043-13.671 13.338-19.789a26.434 26.434 0 00-.099-1.52c-16.662 23.642-39.346 58.861-36.628 71.836z"/></g><path d="M271.741 227.121c8.285-22.687 12.301-47.326 13.907-71.367-10.678-4.865-20.898-9.307-32.409-15.038-7.382-3.676-18.74-45.568-21.039-54.095 3.254-4.358 12.371-7.521 17.584-4.956 2.122 7.87 16.081 38.674 18.537 42.195 2.64 3.784 109.284 48.34 113.846 47.651 4.245-.641 32.37-13.14 39.541-17.017 5.449 2.016 9.428 10.808 8.505 16.168-7.769 4.2-42.413 27.989-50.16 25.162-10.872-3.967-21.573-9.073-32.304-13.953 2.581 34.489 19.473 84.62 16.852 87.223-36.288 36.029-96.368-13.411-99.077-17.881-1.686-2.781-1.667-5.729-.645-8.736 1.788-5.263 4.94-10.092 6.862-15.356z" fill="#b0cdd9"/><path d="M248.03 82.377s-3.212-.848-7.011-.121c-3.798.726-6.312 3.415-6.312 3.415s3.21.953 7.009.227c3.798-.727 6.314-3.521 6.314-3.521z" fill="#06114f"/><path d="M237.671 84.56s-.992-3.004-1.025-3.061c-1.698-3.044-3.098-5.812-3.291-9.304-.101-1.833-.447-6.26 1.683-7.233 2.169-.99 6.553 6.509 7.181 7.968.297-.881.38-2.574 1.081-2.591 1.48-.036 2.042 3.931 1.911 5.606-.086 1.1-.133 2.889-.611 3.693-.159.268-.955.802-.955.802s.167.848.707 3.296c-1.432.802-5.616 1.287-6.681.824z" fill="#ffa18a"/><path d="M427.904 140.103a4.003 4.003 0 00-3.54 4.412l.418 3.811-2.485.272-2.485.272-.418-3.811c-.541-4.933 3.033-9.386 7.966-9.927 4.933-.541 9.386 3.033 9.927 7.966l14.726 134.362-2.485.272-2.485.272-2.753-25.104-11.974-109.256a4.004 4.004 0 00-4.412-3.541z" fill="#222221"/><path d="M423.382 156.392s2.654 1.998 4.434 5.432c1.781 3.433 1.225 7.072 1.225 7.072s-2.736-1.932-4.516-5.365c-1.781-3.433-1.143-7.139-1.143-7.139z" fill="#06114f"/><path d="M433.813 156.188s2.331-3.024 1.952-3.53c-.888-1.185-4.351.829-5.586 1.969-.811.748-2.187 1.892-2.523 2.765-.112.291-.039 1.246-.039 1.246s-.769.393-3.027 1.484c.258 1.622 2.467 5.209 3.489 5.759 0 0 2.973-1.079 3.039-1.09.693-.111 2.731-.802 3.424-.874l-.729-7.729zm7.482-1.537c-.416-1.706-4.692.426-5.333 1.667-.58 1.121-.599 3.983.077 5.049.676 1.066 3.837 1.88 4.923 1.117 1.502-1.054.887-5.558.333-7.833z" fill="#ffa18a"/><path d="M310.551 143.461c-4.347-1.855-16.181-7.069-20.172-8.81-11.667 14.667-13.667 91.333-33 107.5.17 1.174 11.333 19.333 29.667 30 14.46-26.005 10.497-107.417 23.505-128.69zm42.075 70.085c-13.747-.104-14.71-35.582-2.081-53.729 0 0-14.892-5.831-19.762-7.85-19.071 25.683-14.78 115.927-10.738 133.35 14.383 2.158 35.898-3.318 48-15.333 1.878-1.864-9.704-29.013-15.419-56.438z" fill="#2c324d"/><path d="M328.188 118.943c-1.739-1.537-3.897-2.662-6.392-3.214-5.715-1.265-13.299.028-15.891 5.974-1.494 3.426-1.934 7.163-2.487 10.824-.629 4.157-2.186 9.777-.447 13.91 1.52 3.613 5.622 4.367 9.116 4.672-.056.153.782 5.934 1.888 12.081.491 2.726 10.859-6.551 11.987-9.081.791-1.772-.117-3.259.656-8.625 0 0 5.802-5.333 6.375-14.213.316-4.876-1.454-9.366-4.805-12.328z" fill="#ffa18a"/><path d="M338.033 118.377c0-.768-.611-1.341-1.286-1.585a2.38 2.38 0 00-.451-.107c.149-.443.294-.888.413-1.342.24-.918.554-2.485-.622-2.903-1.792-.638-2.527 1.691-2.824 3.612-5.993-4.374-16.837-1.42-22.256-6.11-1.519-1.315-4.841-3.775-6.607-2.271-4.542 3.87-2.102 13.649 1.229 16.229 6.104 4.729 15.253 3.888 16 4.333 2.302 1.371-.592 8.944.864 9.166.125-.317.703-3.814.703-3.814s2.467-1.846 3.669-.878c1.17.942 1.488 2.354 1.265 3.785-.229 1.472-.988 3.693-2.315 4.55-.54 2.19.222 4.284.803 4.44 5.291-2.92 12.486-18.029 9.509-25.769.949.117 1.906-.184 1.906-1.336z" fill="#9f9ea3"/><path d="M335.712 121.151c-.984-.526-1.966-.685-2.943-.622-4.797-1.916-8.771 1.828-13.4 2.587-6.987 1.146-12.43-4.511-12.657-10.944-.023-.642-.531-1.254-.508-.609.18 5.103 2.79 10.046 7.743 11.952 2.366.91 4.86.952 7.273.199 3.117-.972 6.719-3.058 9.993-2.667-2.67.948-5.31 3.236-7.813 4-11.604 3.542-22.226-5.17-18.771-16.646.107-.355.138-.69.127-.969a1.902 1.902 0 00-.356.24c-.171.146-.314.316-.466.478-1.689 6.829.764 14.584 7.585 17.59 2.905 1.281 6.177 1.478 9.28.971 1.907-.312 3.724-.898 5.501-1.647l.029-.013a4.212 4.212 0 011.611.915c-1.178 1.102-4.229 2.32-6.54 2.2a.75.75 0 01.23.068c.425.253.671.72.802 1.312 1.945-.309 4.434-1.194 5.781-2.749.09-.104.163-.204.231-.302 1.08 1.248 1.714 2.995 1.893 4.411.21 1.666.106 3.056-.302 4.733-.679 2.796-1.869 6.262-4.305 8.013.057.332.132.64.226.898.083-.044.165-.084.257-.149 5.519-3.887 8.322-16.016 1.333-19.917.535-.317 1.153-.686 1.808-1.048 1.692.673 2.56 2.166 2.886 4.095.107.633.621 1.083.514.453-.338-2-1.021-3.567-2.478-5.036 1.867-.944 3.88-1.65 5.181-.955 1.135.607 1.392-.234.255-.842z" fill="#929196"/><g fill="#ff886b"><path d="M317.775 134.588c1.247-.02 1.875.056 2.463.279.6.228.585-.068-.035-.246-1.284-.368-3.074-.023-2.428-.033z"/><path d="M317.897 134.809c.506.047 1.131.167 1.693.449.573.288.588-.007-.01-.248-1.238-.499-2.326-.261-1.683-.201z"/></g><path d="M316.484 131.847c-1.296-.494-2.179.972-2.671 1.917-.297.57 1.251-1.537 2.458-1.175.938.281 1.086 2.896 1.11 2.254.036-.968.256-2.557-.897-2.996zm-9.704-2.145c-1.081-.412-1.817.811-2.227 1.598-.248.475 1.043-1.281 2.049-.98.782.234.906 2.415.926 1.879.03-.805.213-2.13-.748-2.497z" fill="#3c3552"/><path d="M311.65 133.078c-.094 1.25.349 5.908-.063 6.313-.475.467-1.031.205-1.378-.219-.486.19-2.332.844-2.809-.344-.355-2.284 2.156-4.313 2.781-6.219.538-.462 1.26.414 1.469.469z" fill="#ff7857"/><path d="M311.688 133.443a4.63 4.63 0 014.625-4.625 4.63 4.63 0 014.625 4.625 4.63 4.63 0 01-4.625 4.625 4.63 4.63 0 01-4.625-4.625zm1 0c0 1.999 1.626 3.625 3.625 3.625s3.625-1.626 3.625-3.625-1.626-3.625-3.625-3.625-3.625 1.626-3.625 3.625zm-11.337-2.75a4.63 4.63 0 014.625-4.625 4.63 4.63 0 014.625 4.625 4.63 4.63 0 01-4.625 4.625 4.63 4.63 0 01-4.625-4.625zm1 0a3.629 3.629 0 003.625 3.625 3.629 3.629 0 003.625-3.625 3.629 3.629 0 00-3.625-3.625 3.629 3.629 0 00-3.625 3.625z" fill="#fff"/><path fill="#fff" d="M309.997 132.611l.242-.969 2.25.562-.242.97zm10.632 1.57l2.365.584.201-1.178-2.781-.383z"/><path d="M313.219 139.724c2.563.906 4.417 4.847 4.713 6.06.152.623.596.605.443-.022-.316-1.298-2.781-5.788-5.156-6.038zm-6.062-1.729c-2.563.906-4.15 3.734-4.07 3.094.063-.5 1.695-2.844 4.07-3.094zm11.156 11.656c.101-.269.635-.418.917-.208 1.194.89 2.76-2.734 2.602-2.109-.352 1.382-1.542 3.105-3.049 2.452-1.012 1.851-4.893 3.123-6.469 1.032 2.324 1.961 5.552.02 5.999-1.167zm-1.875 7.583c.186-.632.266-.655.333-1.417.07-.789-.599-2.022-.77-2.801-.138-.627 1.731 2.498 1.318 3.691-.198.572-.497.961-.543 1.58-.071.938.185 2.027.271 2.969.057.642-.952-2.861-.609-4.022z" fill="#ff886b"/><path d="M305.283 142.567c-.774.257-.712 1.769-.452 2.325.833 1.776 3.57 2.393 5.318 2.468 1.202.052 1.867-1.887 1.724-2.845-.134-.894-.622-.784-1.407-.767a7.978 7.978 0 01-2.951-.488c-.617-.23-1.553-.919-2.232-.693z" fill="#ff7857"/></svg>