<?xml version="1.0" encoding="utf-8"?>
<!-- Generator: Adobe Illustrator 27.5.0, SVG Export Plug-In . SVG Version: 6.00 Build 0)  -->
<svg version="1.1" xmlns="http://www.w3.org/2000/svg" xmlns:xlink="http://www.w3.org/1999/xlink" x="0px" y="0px"
	 viewBox="0 0 500 500" style="enable-background:new 0 0 500 500;" xml:space="preserve">
<g id="BACKGROUND">
	<rect x="-0.003" y="0.001" style="fill:#FFFFFF;" width="500" height="500"/>
</g>
<g id="OBJECTS">
	<g>
		<g>
			<path style="fill:#FFC069;" d="M121.531,217.382c-0.076-0.403-0.58-0.638-1.095-0.51l-26.76,6.641
				c-0.465,0.115-0.771,0.486-0.702,0.85l6.012,31.783c-2.216-0.897-5.169-0.53-7.695,1.19c-3.624,2.467-4.99,6.775-3.052,9.622
				c1.938,2.847,6.447,3.156,10.071,0.689c0.208-0.142,0.43-0.317,0.658-0.518c2.796-2.458,3.985-6.277,3.293-9.935l-4.3-22.733
				l22.598-5.608l3.747,19.811c-2.216-0.897-5.169-0.53-7.695,1.19c-3.624,2.467-4.99,6.775-3.052,9.622
				c1.938,2.847,6.447,3.156,10.071,0.689c0.208-0.142,0.429-0.317,0.658-0.518c2.796-2.458,3.985-6.277,3.293-9.935
				L121.531,217.382z"/>
			<path style="fill:#B7DAE8;" d="M67.509,202.661l5.246-1.302c5.151-1.278,8.484-6.522,7.058-11.635l-0.031-0.111l-15.842,3.932
				c-0.387,0.096-0.642,0.405-0.585,0.708l5.006,26.466c-1.845-0.747-4.305-0.441-6.408,0.991c-3.018,2.054-4.156,5.642-2.542,8.013
				c1.614,2.371,5.369,2.628,8.387,0.574c0.132-0.09,0.271-0.196,0.414-0.316c2.429-2.035,3.46-5.301,2.871-8.415L67.509,202.661z"
				/>
			<path style="fill:#EDF6FA;" d="M43.665,262.959l4.137-1.027c4.062-1.008,6.69-5.143,5.566-9.175l-0.025-0.088l-12.493,3.1
				c-0.305,0.076-0.506,0.319-0.461,0.558l3.948,20.871c-1.455-0.589-3.394-0.348-5.053,0.781c-2.38,1.62-3.277,4.449-2.004,6.319
				c1.273,1.87,4.234,2.072,6.614,0.452c0.104-0.071,0.214-0.155,0.327-0.249c1.916-1.605,2.729-4.18,2.264-6.636L43.665,262.959z"
				/>
			<path style="fill:#FF9B30;" d="M217.769,213.186l5.497-1.364c5.397-1.34,8.889-6.834,7.396-12.191l-0.033-0.116l-16.598,4.119
				c-0.405,0.101-0.673,0.424-0.613,0.741l5.245,27.73c-1.933-0.783-4.51-0.462-6.714,1.038c-3.162,2.152-4.354,5.911-2.663,8.396
				c1.691,2.484,5.625,2.753,8.787,0.601c0.139-0.094,0.284-0.206,0.434-0.331c2.545-2.132,3.625-5.554,3.008-8.817L217.769,213.186
				z"/>
			<path style="fill:#B7DAE8;" d="M262.686,183.876l3.862-0.958c3.792-0.941,6.244-4.801,5.195-8.564l-0.023-0.082l-11.66,2.894
				c-0.285,0.071-0.473,0.298-0.431,0.521l3.685,19.48c-1.358-0.55-3.168-0.325-4.716,0.729c-2.221,1.512-3.059,4.152-1.871,5.898
				c1.188,1.745,3.952,1.934,6.173,0.422c0.098-0.066,0.2-0.145,0.305-0.233c1.788-1.498,2.547-3.902,2.113-6.194L262.686,183.876z"
				/>
			<path style="fill:#B7DAE8;" d="M203.686,143.542l3.862-0.958c3.792-0.941,6.244-4.801,5.195-8.564l-0.023-0.082l-11.66,2.894
				c-0.285,0.071-0.473,0.298-0.43,0.521l3.685,19.48c-1.358-0.55-3.168-0.325-4.716,0.729c-2.221,1.512-3.059,4.153-1.871,5.898
				c1.188,1.745,3.952,1.934,6.173,0.422c0.098-0.066,0.2-0.145,0.305-0.233c1.788-1.498,2.547-3.902,2.113-6.194L203.686,143.542z"
				/>
		</g>
		<g>
			<path style="fill:#FFC069;" d="M365.628,133.696c-0.043-0.229-0.329-0.362-0.622-0.29l-15.203,3.773
				c-0.264,0.065-0.438,0.276-0.399,0.483l3.415,18.057c-1.259-0.51-2.937-0.301-4.372,0.676c-2.059,1.402-2.835,3.849-1.734,5.467
				c1.101,1.618,3.663,1.793,5.722,0.391c0.118-0.081,0.244-0.18,0.374-0.294c1.589-1.396,2.264-3.566,1.871-5.645l-2.443-12.915
				l12.839-3.186l2.129,11.255c-1.259-0.51-2.937-0.301-4.372,0.676c-2.059,1.402-2.835,3.849-1.734,5.467
				c1.101,1.618,3.663,1.793,5.722,0.391c0.118-0.081,0.244-0.18,0.374-0.294c1.589-1.397,2.264-3.566,1.871-5.645L365.628,133.696z
				"/>
			<path style="fill:#EDF6FA;" d="M196.775,83.314c-0.059-0.313-0.451-0.496-0.851-0.396l-20.8,5.162
				c-0.361,0.09-0.599,0.378-0.546,0.66l4.673,24.705c-1.722-0.697-4.018-0.412-5.981,0.925c-2.817,1.918-3.879,5.266-2.372,7.479
				c1.507,2.213,5.012,2.453,7.829,0.535c0.162-0.11,0.334-0.246,0.512-0.403c2.174-1.91,3.098-4.879,2.56-7.722l-3.342-17.67
				l17.565-4.359l2.913,15.399c-1.722-0.697-4.018-0.412-5.981,0.925c-2.817,1.917-3.879,5.266-2.373,7.479
				c1.507,2.213,5.012,2.453,7.829,0.535c0.162-0.11,0.334-0.246,0.512-0.403c2.174-1.91,3.098-4.879,2.56-7.722L196.775,83.314z"/>
			<path style="fill:#FF9B30;" d="M386.465,79.278l5.376-1.334c5.279-1.31,8.694-6.684,7.233-11.923l-0.032-0.114l-16.234,4.029
				c-0.397,0.098-0.658,0.415-0.599,0.725l5.13,27.122c-1.891-0.765-4.411-0.452-6.566,1.015c-3.092,2.105-4.258,5.781-2.604,8.211
				c1.654,2.43,5.502,2.693,8.594,0.588c0.136-0.092,0.278-0.201,0.425-0.324c2.49-2.085,3.546-5.432,2.942-8.623L386.465,79.278z"
				/>
			<path style="fill:#FFC069;" d="M336.048,69.379l4.551-1.129c4.468-1.109,7.358-5.657,6.122-10.092l-0.027-0.096l-13.741,3.41
				c-0.336,0.083-0.557,0.351-0.507,0.614l4.342,22.956c-1.6-0.648-3.734-0.383-5.558,0.859c-2.617,1.782-3.604,4.893-2.204,6.95
				c1.4,2.057,4.657,2.279,7.274,0.497c0.115-0.078,0.235-0.17,0.359-0.274c2.107-1.765,3.001-4.598,2.49-7.299L336.048,69.379z"/>
			<path style="fill:#EDF6FA;" d="M408.533,122.869l4.011-0.995c3.938-0.977,6.486-4.986,5.396-8.894l-0.024-0.085l-12.11,3.006
				c-0.296,0.073-0.491,0.309-0.447,0.541l3.827,20.233c-1.41-0.571-3.291-0.337-4.899,0.757c-2.307,1.57-3.177,4.313-1.943,6.126
				c1.234,1.813,4.104,2.009,6.411,0.438c0.101-0.069,0.208-0.15,0.317-0.242c1.857-1.556,2.645-4.052,2.195-6.433L408.533,122.869z
				"/>
			<path style="fill:#EDF6FA;" d="M279.567,96.482l6.109-1.516c5.998-1.489,9.878-7.595,8.219-13.548l-0.037-0.129l-18.446,4.578
				c-0.451,0.112-0.748,0.471-0.681,0.824l5.829,30.817c-2.148-0.87-5.012-0.514-7.461,1.153c-3.514,2.392-4.839,6.569-2.959,9.33
				c1.88,2.761,6.251,3.06,9.765,0.668c0.154-0.105,0.316-0.229,0.483-0.368c2.829-2.369,4.029-6.173,3.343-9.798L279.567,96.482z"
				/>
			<path style="fill:#B7DAE8;" d="M438.455,59.255l4.13-1.025c4.055-1.006,6.678-5.134,5.556-9.158l-0.025-0.088l-12.47,3.095
				c-0.304,0.075-0.505,0.318-0.46,0.557l3.941,20.832c-1.452-0.588-3.388-0.347-5.044,0.78c-2.375,1.617-3.271,4.441-2,6.307
				c1.27,1.866,4.226,2.068,6.601,0.451c0.104-0.071,0.214-0.155,0.326-0.249c1.912-1.602,2.724-4.173,2.26-6.624L438.455,59.255z"
				/>
		</g>
	</g>
	<g>
		<ellipse style="fill:#EDF6FA;" cx="149.571" cy="423.724" rx="96.162" ry="15.854"/>
		<g>
			<g>
				<g>
					<path style="fill:#152370;" d="M94.514,376.346c-0.149-1.593,0.262-1.55-0.795-2.881c-1.212-1.526-8.519-0.33-8.519-0.33
						c-0.568,0.311-0.616,1.695-0.298,2.596l1.936,0.158c0,0,0.489,2.707-0.626,7.456c-0.342,1.456-0.417,5.676,1.594,7.506
						C89.254,392.168,94.732,378.677,94.514,376.346z"/>
					<path style="fill:#FFA18A;" d="M171.874,287.661c-4.828-17.815-23.343-39.972-43.207-25.59
						c-13.997,10.134-7.863,31.247,1.387,42.371c3.267,8.597,4.301,17.882,6.764,26.746c2.286,8.228,5.415,16.153,9.233,23.765
						c-8.869,1.605-15.047,8.15-22.733,12.254c-9.228,4.927-19.443,6.982-29.851,6.459c-0.201-0.01-0.382,0.096-0.538,0.276
						c-0.232,0.144-0.414,0.384-0.561,0.623c-0.825,1.353-1.163,2.92-1.3,4.484c-0.068,0.773-0.234,1.824,0.133,2.542
						c0.079,0.154,0.234,0.282,0.407,0.274c0.181-0.018,0.311-0.141,0.419-0.263c0.653-0.736,0.961-1.658,1.299-2.564
						c0.172-0.46,0.36-0.909,0.54-1.362c39.103,18.339,74.722-9.474,74.909-10.33C174.317,342.072,178.778,313.134,171.874,287.661z
						"/>
				</g>
				<g>
					<path style="fill:#152370;" d="M205.229,409.868c-1.358-0.846-1.074-1.147-2.774-1.112c-1.949,0.04-5.422,6.579-5.422,6.579
						c-0.096,0.641,0.976,1.517,1.886,1.81l1.298-1.445c0,0,4.842,4.649,5.192,4.877c1.253,0.817,4.777,0.417,7.451-0.075
						c1.924-0.354,3.619-2.747-1.746-3.585C208.945,416.578,207.216,411.107,205.229,409.868z"/>
					<path style="fill:#FFA18A;" d="M206.654,412.445c-0.197-0.312-0.38-0.629-0.567-0.945
						c22.671-36.095,17.418-74.046,17.099-74.87c-8.667-22.353-19.307-65.436-37.176-76.117
						c-5.796,8.322-12.319,16.184-17.352,24.985c-2.237,3.911-4.064,7.972-5.641,12.124c7.422,2.534,20.122,39.767,36.798,50.138
						c-7.688,23.256,5.803,51.596,2.642,61.526c-0.006,0.02-0.003,0.042-0.007,0.062c-0.002,0.004-0.006,0.006-0.008,0.009
						c-0.184,0.348-0.073,0.774,0.069,1.141c0.577,1.476,1.619,2.694,2.781,3.75c0.574,0.522,1.309,1.29,2.104,1.434
						c0.17,0.031,0.366-0.016,0.465-0.158c0.095-0.155,0.076-0.333,0.045-0.493C207.717,414.067,207.17,413.263,206.654,412.445z"/>
				</g>
			</g>
			<g>
				<path style="fill:#B0CDD9;" d="M170.212,235.734c-0.049-0.04,1.375-1.688,0.375-4.688c-0.738-2.213-0.361-3.869,0.191-6.563
					h-33.841c0.08,2.714,1.847,5.117-0.515,6.249c-4.96,2.376-2.34,6.967-4.265,9.417c-33.768,42.971,4.321,74.859,2.179,92.985
					c-0.03,0.25,49.328,8.236,85.154-14.6C209.232,281.815,205.379,264.651,170.212,235.734z"/>
				<path style="fill:#373F61;" d="M214.998,304.395C203.961,311.99,191.046,316.387,178,319
					c-15.262,3.057-31.178,3.327-46.573,0.987c2.044,4.967,3.357,9.359,2.909,13.147c-0.03,0.25,49.328,8.236,85.154-14.6
					c-1.429-5.116-2.767-9.894-4.104-14.418C215.255,304.207,215.129,304.305,214.998,304.395z"/>
			</g>
			<g>
				<g>
					<path style="fill:#373F61;" d="M127.545,198.151c4.101,3.782,1.667,12.5,7.649,18.016c0.941,0.868,1.045,2.357,0.794,3.612
						c-0.686,3.424-3.181,6.38,0.434,10.954c10.335,5.112,22.343,5.862,32.868,1.565c4.422-4.064,1.258-6.768,1.725-8.954
						c2.791-2.709,6.327-5.881,6.172-10.059c-0.243-6.526-3.85-8.462-4.975-14.551c13.036,0.355,26.275,1.596,39-1.75
						c7.085-1.863,29.218-27.8,34.792-32.837c-1.247-2.818-3.061-5.285-5.688-6.96c-3.388,2.835-22.788,18.682-34.767,22.907
						c-7.1,1.312-15.928-0.144-26.313-2.056c-8.392-1.546-17.096-2.027-25.637-2.036c-10.18-0.01-20.107,2.426-30.217-0.317
						c-8.077-2.192-17.337-2.628-23.734-7.905c-3.835-3.164-16.721-29.944-20.963-39.02c-3.383,0.202-4.081,0.589-7.009,2.055
						c3.295,11.743,10.608,48.969,20.367,55.669C99.271,191.445,126.425,197.118,127.545,198.151z"/>
					<path style="fill:#2C324D;" d="M148.318,216.849c1.333,3.46,4.426,6.636,8.23,6.182c1.99-0.237,3.651-1.546,4.878-3.246
						C157.483,221.991,151.697,220.384,148.318,216.849z"/>
				</g>
				<g>
					<g>
						<path style="fill:#06114F;" d="M78.337,129.191c0,0-1.404,0.023-3.091,0.524c-1.688,0.502-3.02,1.293-3.02,1.293
							s1.555,0.176,3.243-0.326C77.155,130.18,78.337,129.191,78.337,129.191z"/>
						<path style="fill:#FFA18A;" d="M73.1,130.61c0,0-0.773-1.736-0.796-1.768c-1.198-1.717-2.201-3.288-2.526-5.363
							c-0.171-1.089-0.643-3.715,0.571-4.424c1.237-0.722,4.307,3.497,4.771,4.332c0.124-0.545,0.072-1.561,0.491-1.614
							c0.883-0.11,1.456,2.227,1.479,3.236c0.015,0.663,0.094,1.735-0.143,2.244c-0.079,0.17-0.523,0.536-0.523,0.536
							s0.151,0.497,0.621,1.928C76.236,130.282,73.764,130.823,73.1,130.61z"/>
					</g>
					<g>
						<path style="fill:#06114F;" d="M240.913,158.421c0,0,1.158,0.794,2.288,2.144s1.804,2.745,1.804,2.745
							s-1.394-0.712-2.524-2.062C241.351,159.898,240.913,158.421,240.913,158.421z"/>
						<path style="fill:#FFA18A;" d="M244.495,162.495c0,0,1.603-1.02,1.64-1.035c1.947-0.771,3.65-1.527,5.066-3.078
							c0.744-0.814,2.587-2.743,1.966-4.005c-0.633-1.285-5.522,0.538-6.369,0.979c0.197-0.523,0.802-1.342,0.482-1.617
							c-0.675-0.579-2.444,1.053-3.019,1.882c-0.378,0.545-1.036,1.395-1.12,1.95c-0.028,0.185,0.139,0.736,0.139,0.736
							s-0.4,0.331-1.582,1.265C242.062,160.49,243.824,162.305,244.495,162.495z"/>
					</g>
				</g>
			</g>
			<g>
				<g>
					<g>
						<path style="fill:#DCF5FF;" d="M135.024,177.55c0.259-0.408,0.817-0.493,1.243-0.188c0.406,0.327,0.464,0.894,0.141,1.251
							c-0.325,0.36-0.862,0.417-1.205,0.138C134.844,178.497,134.765,177.958,135.024,177.55z"/>
					</g>
					<g>
						<path style="fill:#DCF5FF;" d="M136.408,178.613c0.322-0.373,0.88-0.377,1.254-0.018c0.363,0.367,0.339,0.94-0.023,1.255
							c-0.367,0.32-0.902,0.299-1.217-0.019C136.1,179.522,136.098,178.972,136.408,178.613z"/>
					</g>
					<g>
						<path style="fill:#DCF5FF;" d="M137.639,179.85c0.363-0.328,0.925-0.275,1.245,0.123c0.323,0.396,0.232,0.964-0.157,1.241
							c-0.398,0.284-0.924,0.201-1.212-0.15C137.232,180.71,137.286,180.169,137.639,179.85z"/>
					</g>
					<g>
						<path style="fill:#DCF5FF;" d="M138.728,181.214c0.391-0.288,0.951-0.189,1.226,0.234c0.287,0.416,0.149,0.972-0.26,1.22
							c-0.417,0.253-0.936,0.125-1.198-0.253C138.245,182.029,138.34,181.499,138.728,181.214z"/>
					</g>
					<g>
						<path style="fill:#DCF5FF;" d="M139.693,182.668c0.408-0.254,0.963-0.118,1.204,0.318c0.25,0.432,0.09,0.971-0.338,1.198
							c-0.427,0.226-0.949,0.072-1.182-0.33C139.152,183.445,139.281,182.925,139.693,182.668z"/>
					</g>
					<g>
						<path style="fill:#DCF5FF;" d="M140.56,184.184c0.422-0.229,0.965-0.064,1.184,0.378c0.223,0.441,0.045,0.968-0.393,1.178
							c-0.434,0.208-0.956,0.034-1.168-0.387C139.974,184.932,140.132,184.416,140.56,184.184z"/>
					</g>
					<g>
						<path style="fill:#DCF5FF;" d="M141.351,185.74c0.434-0.212,0.96-0.025,1.168,0.419c0.204,0.444,0.014,0.964-0.428,1.163
							c-0.439,0.198-0.959,0.009-1.158-0.423C140.732,186.469,140.916,185.953,141.351,185.74z"/>
					</g>
					<g>
						<path style="fill:#DCF5FF;" d="M142.091,187.322c0.44-0.2,0.958-0.003,1.157,0.44c0.196,0.442-0.003,0.959-0.445,1.154
							c-0.442,0.196-0.958-0.002-1.153-0.442C141.454,188.038,141.651,187.522,142.091,187.322z"/>
					</g>
					<g>
						<path style="fill:#DCF5FF;" d="M142.803,188.916c0.442-0.196,0.958,0.002,1.154,0.442c0.196,0.443-0.004,0.961-0.446,1.155
							c-0.442,0.195-0.958-0.003-1.152-0.442C142.162,189.629,142.361,189.112,142.803,188.916z"/>
					</g>
					<g>
						<path style="fill:#DCF5FF;" d="M143.51,190.513c0.441-0.196,0.961,0.006,1.153,0.448c0.193,0.442-0.009,0.958-0.452,1.151
							c-0.443,0.193-0.958-0.008-1.151-0.449C142.868,191.221,143.068,190.709,143.51,190.513z"/>
					</g>
					<g>
						<path style="fill:#DCF5FF;" d="M144.212,192.112c0.443-0.193,0.959,0.007,1.152,0.448c0.192,0.441-0.008,0.955-0.449,1.151
							c-0.442,0.197-0.96-0.004-1.154-0.447C143.567,192.821,143.768,192.305,144.212,192.112z"/>
					</g>
					<g>
						<path style="fill:#DCF5FF;" d="M144.915,193.711c0.442-0.196,0.958,0.001,1.154,0.438c0.196,0.437,0.005,0.95-0.435,1.154
							c-0.438,0.203-0.962,0.009-1.16-0.435C144.275,194.424,144.473,193.906,144.915,193.711z"/>
					</g>
					<g>
						<path style="fill:#DCF5FF;" d="M145.633,195.302c0.44-0.202,0.955-0.012,1.159,0.419c0.206,0.428,0.021,0.948-0.413,1.16
							c-0.434,0.212-0.958,0.027-1.169-0.414C145,196.026,145.195,195.503,145.633,195.302z"/>
					</g>
					<g>
						<path style="fill:#DCF5FF;" d="M146.379,196.881c0.434-0.21,0.953-0.032,1.17,0.388c0.214,0.422,0.04,0.948-0.386,1.172
							c-0.429,0.226-0.955,0.053-1.177-0.384C145.76,197.621,145.943,197.092,146.379,196.881z"/>
					</g>
					<g>
						<path style="fill:#DCF5FF;" d="M147.163,198.442c0.429-0.223,0.958-0.067,1.183,0.347c0.22,0.418,0.079,0.939-0.34,1.182
							c-0.417,0.242-0.965,0.095-1.194-0.341C146.576,199.197,146.734,198.664,147.163,198.442z"/>
					</g>
					<g>
						<path style="fill:#DCF5FF;" d="M148.005,199.971c0.42-0.239,0.952-0.104,1.189,0.301c0.245,0.398,0.124,0.928-0.283,1.191
							c-0.404,0.262-0.954,0.137-1.214-0.286C147.447,200.751,147.585,200.21,148.005,199.971z"/>
					</g>
					<g>
						<path style="fill:#DCF5FF;" d="M148.911,201.464c0.412-0.262,0.932-0.141,1.202,0.238c0.267,0.381,0.166,0.922-0.223,1.208
							c-0.39,0.286-0.938,0.186-1.224-0.224C148.377,202.278,148.508,201.72,148.911,201.464z"/>
					</g>
					<g>
						<path style="fill:#DCF5FF;" d="M149.89,202.909c0.389-0.278,0.931-0.204,1.218,0.159c0.28,0.369,0.217,0.911-0.147,1.22
							c-0.374,0.316-0.931,0.253-1.235-0.146C149.415,203.747,149.493,203.193,149.89,202.909z"/>
					</g>
					<g>
						<path style="fill:#DCF5FF;" d="M150.961,204.288c0.373-0.307,0.921-0.275,1.223,0.073c0.298,0.351,0.298,0.873-0.05,1.22
							c-0.337,0.336-0.922,0.335-1.25-0.048C150.553,205.152,150.588,204.595,150.961,204.288z"/>
					</g>
					<g>
						<path style="fill:#DCF5FF;" d="M152.134,205.58c0.35-0.338,0.885-0.337,1.217-0.022c0.342,0.302,0.366,0.847,0.055,1.217
							c-0.311,0.37-0.872,0.396-1.252,0.059C151.786,206.485,151.789,205.913,152.134,205.58z"/>
					</g>
					<g>
						<path style="fill:#DCF5FF;" d="M153.406,206.775c0.317-0.364,0.846-0.407,1.215-0.141c0.362,0.275,0.43,0.825,0.158,1.219
							c-0.277,0.401-0.827,0.471-1.232,0.162C153.134,207.715,153.088,207.14,153.406,206.775z"/>
					</g>
					<g>
						<path style="fill:#DCF5FF;" d="M154.778,207.854c0.282-0.392,0.814-0.513,1.187-0.268c0.389,0.223,0.527,0.748,0.303,1.177
							c-0.223,0.428-0.769,0.574-1.215,0.316C154.618,208.795,154.496,208.246,154.778,207.854z"/>
					</g>
					<g>
						<path style="fill:#DCF5FF;" d="M156.268,208.763c0.228-0.417,0.745-0.603,1.152-0.406c0.408,0.195,0.612,0.686,0.432,1.14
							c-0.176,0.444-0.708,0.667-1.17,0.446C156.219,209.72,156.033,209.194,156.268,208.763z"/>
					</g>
					<g>
						<path style="fill:#DCF5FF;" d="M157.851,209.497c0.185-0.445,0.674-0.662,1.107-0.517c0.427,0.161,0.676,0.631,0.539,1.097
							c-0.136,0.462-0.643,0.732-1.12,0.554C157.896,210.469,157.665,209.945,157.851,209.497z"/>
					</g>
					<g>
						<path style="fill:#DCF5FF;" d="M159.498,210.076c0.145-0.467,0.612-0.718,1.058-0.611c0.446,0.108,0.728,0.583,0.632,1.05
							c-0.099,0.479-0.576,0.765-1.067,0.645C159.629,211.042,159.355,210.532,159.498,210.076z"/>
					</g>
					<g>
						<path style="fill:#DCF5FF;" d="M161.187,210.515c0.104-0.472,0.555-0.784,1.006-0.696c0.454,0.073,0.775,0.511,0.714,0.992
							c-0.061,0.478-0.515,0.813-1.013,0.733C161.4,211.447,161.083,210.986,161.187,210.515z"/>
					</g>
					<g>
						<path style="fill:#DCF5FF;" d="M162.908,210.81c0.067-0.475,0.492-0.812,0.951-0.773c0.458,0.053,0.812,0.454,0.786,0.939
							c-0.025,0.481-0.454,0.86-0.954,0.803C163.19,211.736,162.84,211.292,162.908,210.81z"/>
					</g>
					<g>
						<path style="fill:#DCF5FF;" d="M164.646,210.976c0.032-0.487,0.43-0.844,0.892-0.838c0.461,0.004,0.843,0.4,0.854,0.882
							c0.01,0.484-0.39,0.872-0.893,0.868C164.995,211.881,164.614,211.454,164.646,210.976z"/>
					</g>
					<g>
						<path style="fill:#DCF5FF;" d="M166.391,211.02c-0.004-0.483,0.367-0.889,0.827-0.906c0.46-0.021,0.869,0.325,0.916,0.81
							c0.046,0.477-0.323,0.914-0.826,0.937C166.805,211.881,166.395,211.504,166.391,211.02z"/>
					</g>
					<g>
						<path style="fill:#DCF5FF;" d="M168.134,210.925c-0.04-0.483,0.301-0.895,0.756-0.963c0.457-0.053,0.892,0.268,0.975,0.741
							c0.084,0.479-0.251,0.936-0.752,0.995C168.614,211.771,168.174,211.406,168.134,210.925z"/>
					</g>
					<g>
						<path style="fill:#DCF5FF;" d="M169.865,210.703c-0.077-0.479,0.228-0.925,0.678-1.016c0.446-0.104,0.908,0.191,1.031,0.658
							c0.123,0.467-0.176,0.94-0.67,1.054C170.409,211.5,169.942,211.178,169.865,210.703z"/>
					</g>
					<g>
						<path style="fill:#DCF5FF;" d="M171.574,210.346c-0.114-0.462,0.147-0.949,0.585-1.075c0.439-0.124,0.915,0.103,1.083,0.563
							c0.164,0.448-0.086,0.972-0.574,1.112C172.18,211.085,171.692,210.822,171.574,210.346z"/>
					</g>
					<g>
						<path style="fill:#DCF5FF;" d="M173.243,209.833c-0.159-0.46,0.067-0.938,0.481-1.121c0.422-0.166,0.922,0.026,1.132,0.457
							c0.213,0.438,0.01,0.973-0.465,1.161C173.922,210.535,173.4,210.287,173.243,209.833z"/>
					</g>
					<g>
						<path style="fill:#DCF5FF;" d="M174.856,209.169c-0.205-0.442-0.034-0.947,0.361-1.162c0.389-0.225,0.916-0.073,1.175,0.333
							c0.261,0.41,0.108,0.948-0.339,1.204C175.601,209.789,175.057,209.603,174.856,209.169z"/>
					</g>
					<g>
						<path style="fill:#DCF5FF;" d="M176.392,208.34c-0.251-0.413-0.154-0.951,0.218-1.199c0.359-0.263,0.888-0.192,1.2,0.181
							c0.308,0.368,0.234,0.938-0.185,1.244C177.195,208.855,176.643,208.753,176.392,208.34z"/>
					</g>
					<g>
						<path style="fill:#DCF5FF;" d="M177.81,207.322c-0.296-0.372-0.265-0.91,0.056-1.214c0.337-0.288,0.843-0.314,1.212,0.017
							c0.352,0.313,0.381,0.916-0.014,1.258C178.684,207.743,178.116,207.706,177.81,207.322z"/>
					</g>
					<g>
						<path style="fill:#DCF5FF;" d="M179.078,206.125c-0.356-0.335-0.379-0.851-0.121-1.206c0.281-0.338,0.798-0.424,1.201-0.163
							c0.408,0.265,0.507,0.84,0.173,1.247C180.018,206.428,179.425,206.453,179.078,206.125z"/>
					</g>
					<g>
						<path style="fill:#DCF5FF;" d="M180.158,204.756c-0.405-0.279-0.512-0.786-0.305-1.17c0.201-0.388,0.733-0.538,1.163-0.348
							c0.453,0.201,0.607,0.736,0.363,1.204C181.127,204.905,180.548,205.027,180.158,204.756z"/>
					</g>
					<g>
						<path style="fill:#DCF5FF;" d="M181.017,203.238c-0.436-0.208-0.656-0.706-0.487-1.11c0.141-0.415,0.617-0.656,1.086-0.529
							c0.464,0.125,0.726,0.638,0.556,1.135C181.971,203.222,181.452,203.447,181.017,203.238z"/>
					</g>
					<g>
						<path style="fill:#DCF5FF;" d="M181.616,201.6c-0.454-0.136-0.733-0.591-0.652-1.026c0.106-0.428,0.523-0.745,1.005-0.682
							c0.476,0.062,0.831,0.527,0.708,1.037C182.579,201.444,182.087,201.741,181.616,201.6z"/>
					</g>
					<g>
						<path style="fill:#DCF5FF;" d="M181.969,199.892c-0.481-0.072-0.812-0.491-0.77-0.935c0.017-0.443,0.426-0.803,0.909-0.804
							c0.483-0.002,0.859,0.42,0.836,0.94C182.895,199.609,182.443,199.964,181.969,199.892z"/>
					</g>
					<g>
						<path style="fill:#DCF5FF;" d="M182.108,198.153c-0.472-0.011-0.877-0.377-0.902-0.814c-0.003-0.44,0.288-0.844,0.779-0.925
							c0.462-0.079,0.958,0.282,0.967,0.809C182.983,197.749,182.602,198.165,182.108,198.153z"/>
					</g>
					<g>
						<path style="fill:#DCF5FF;" d="M181.986,196.414c-0.488,0.066-0.894-0.238-1.016-0.652c-0.09-0.423,0.16-0.881,0.61-1.043
							c0.459-0.164,0.977,0.112,1.091,0.634C182.817,195.869,182.456,196.351,181.986,196.414z"/>
					</g>
					<g>
						<path style="fill:#DCF5FF;" d="M181.58,194.719c-0.47,0.151-0.929-0.069-1.116-0.456c-0.177-0.392,0-0.898,0.409-1.137
							c0.427-0.248,0.968-0.064,1.19,0.424C182.292,194.034,182.031,194.576,181.58,194.719z"/>
					</g>
					<g>
						<path style="fill:#DCF5FF;" d="M180.873,193.126c-0.431,0.233-0.938,0.109-1.182-0.249c-0.255-0.352-0.16-0.891,0.202-1.194
							c0.379-0.316,0.934-0.223,1.243,0.208C181.435,192.33,181.294,192.901,180.873,193.126z"/>
					</g>
					<g>
						<path style="fill:#DCF5FF;" d="M179.894,191.684c-0.382,0.3-0.917,0.27-1.211-0.058c-0.315-0.312-0.305-0.859,0.018-1.216
							c0.325-0.359,0.887-0.352,1.256,0.016C180.308,190.815,180.272,191.387,179.894,191.684z"/>
					</g>
					<g>
						<path style="fill:#DCF5FF;" d="M178.701,190.41c-0.332,0.351-0.877,0.398-1.215,0.103c-0.354-0.28-0.419-0.818-0.134-1.21
							c0.283-0.39,0.844-0.46,1.246-0.141C178.988,189.499,179.034,190.059,178.701,190.41z"/>
					</g>
					<g>
						<path style="fill:#DCF5FF;" d="M177.352,189.303c-0.286,0.381-0.824,0.483-1.202,0.226c-0.376-0.26-0.502-0.78-0.248-1.197
							c0.248-0.409,0.805-0.544,1.223-0.256C177.544,188.36,177.646,188.911,177.352,189.303z"/>
					</g>
					<g>
						<path style="fill:#DCF5FF;" d="M175.902,188.331c-0.256,0.41-0.777,0.541-1.184,0.317c-0.401-0.234-0.557-0.753-0.333-1.181
							c0.224-0.428,0.765-0.593,1.198-0.341C176.02,187.368,176.158,187.922,175.902,188.331z"/>
					</g>
					<g>
						<path style="fill:#DCF5FF;" d="M174.385,187.468c-0.23,0.428-0.745,0.591-1.166,0.384c-0.423-0.205-0.599-0.729-0.396-1.165
							c0.205-0.44,0.73-0.618,1.175-0.402C174.443,186.503,174.612,187.044,174.385,187.468z"/>
					</g>
					<g>
						<path style="fill:#DCF5FF;" d="M172.823,186.687c-0.207,0.437-0.723,0.631-1.152,0.434c-0.432-0.193-0.632-0.704-0.441-1.149
							c0.19-0.443,0.71-0.648,1.158-0.447C172.836,185.73,173.03,186.25,172.823,186.687z"/>
					</g>
					<g>
						<path style="fill:#DCF5FF;" d="M171.23,185.971c-0.193,0.442-0.701,0.648-1.142,0.465c-0.439-0.186-0.651-0.693-0.469-1.141
							c0.182-0.447,0.695-0.663,1.145-0.473C171.215,185.01,171.423,185.528,171.23,185.971z"/>
					</g>
					<g>
						<path style="fill:#DCF5FF;" d="M169.62,185.296c-0.184,0.447-0.69,0.662-1.135,0.484c-0.446-0.179-0.663-0.687-0.484-1.136
							c0.179-0.449,0.688-0.667,1.137-0.487C169.587,184.337,169.803,184.85,169.62,185.296z"/>
					</g>
					<g>
						<path style="fill:#DCF5FF;" d="M168,184.643c-0.179,0.449-0.687,0.668-1.135,0.49c-0.449-0.179-0.667-0.689-0.486-1.137
							c0.181-0.448,0.688-0.667,1.135-0.488C167.961,183.686,168.179,184.194,168,184.643z"/>
					</g>
					<g>
						<path style="fill:#DCF5FF;" d="M166.378,183.996c-0.18,0.449-0.69,0.666-1.141,0.481c-0.451-0.182-0.663-0.7-0.475-1.144
							c0.189-0.445,0.695-0.654,1.138-0.475C166.343,183.039,166.559,183.547,166.378,183.996z"/>
					</g>
					<g>
						<path style="fill:#DCF5FF;" d="M164.763,183.333c-0.186,0.444-0.704,0.658-1.153,0.458c-0.45-0.198-0.651-0.716-0.447-1.158
							c0.202-0.436,0.715-0.636,1.148-0.446C164.743,182.379,164.951,182.885,164.763,183.333z"/>
					</g>
					<g>
						<path style="fill:#DCF5FF;" d="M163.163,182.633c-0.199,0.439-0.725,0.629-1.173,0.415c-0.446-0.223-0.624-0.751-0.398-1.179
							c0.226-0.427,0.747-0.604,1.163-0.395C163.178,181.676,163.363,182.193,163.163,182.633z"/>
					</g>
					<g>
						<path style="fill:#DCF5FF;" d="M161.592,181.87c-0.221,0.43-0.758,0.583-1.2,0.342c-0.437-0.259-0.577-0.804-0.315-1.209
							c0.262-0.407,0.79-0.544,1.182-0.311C161.664,180.912,161.813,181.44,161.592,181.87z"/>
					</g>
					<g>
						<path style="fill:#DCF5FF;" d="M160.077,181.003c-0.257,0.413-0.805,0.518-1.226,0.239c-0.41-0.294-0.504-0.845-0.211-1.23
							c0.292-0.384,0.832-0.479,1.206-0.21C160.23,180.055,160.331,180.595,160.077,181.003z"/>
					</g>
					<g>
						<path style="fill:#DCF5FF;" d="M158.64,180.012c-0.287,0.388-0.843,0.453-1.24,0.143c-0.386-0.325-0.438-0.88-0.116-1.242
							c0.32-0.36,0.867-0.414,1.219-0.117C158.866,179.079,158.928,179.623,158.64,180.012z"/>
					</g>
					<g>
						<path style="fill:#DCF5FF;" d="M157.284,178.912c-0.316,0.366-0.875,0.388-1.247,0.048c-0.36-0.354-0.369-0.913-0.021-1.248
							c0.348-0.335,0.896-0.346,1.224-0.023C157.58,177.998,157.6,178.546,157.284,178.912z"/>
					</g>
					<g>
						<path style="fill:#DCF5FF;" d="M156.016,177.711c-0.343,0.34-0.902,0.318-1.247-0.051c-0.332-0.382-0.295-0.941,0.079-1.247
							c0.374-0.306,0.921-0.272,1.221,0.075C156.383,176.824,156.359,177.371,156.016,177.711z"/>
					</g>
					<g>
						<path style="fill:#DCF5FF;" d="M154.848,176.414c-0.371,0.313-0.925,0.242-1.24-0.155c-0.3-0.41-0.214-0.966,0.186-1.236
							c0.401-0.271,0.94-0.19,1.209,0.179C155.287,175.559,155.216,176.104,154.848,176.414z"/>
					</g>
					<g>
						<path style="fill:#DCF5FF;" d="M153.794,175.023c-0.399,0.28-0.943,0.158-1.222-0.269c-0.262-0.438-0.122-0.985,0.302-1.215
							c0.426-0.23,0.953-0.098,1.185,0.292C154.308,174.211,154.186,174.747,153.794,175.023z"/>
					</g>
					<g>
						<path style="fill:#DCF5FF;" d="M152.874,173.539c-0.425,0.241-0.954,0.062-1.189-0.394c-0.215-0.467-0.018-0.998,0.429-1.178
							c0.449-0.181,0.958,0.006,1.146,0.415C153.468,172.783,153.289,173.304,152.874,173.539z"/>
					</g>
					<g>
						<path style="fill:#DCF5FF;" d="M152.114,171.968c-0.448,0.192-0.955-0.047-1.138-0.531c-0.156-0.495,0.102-0.998,0.569-1.119
							c0.468-0.122,0.953,0.124,1.085,0.549C152.79,171.284,152.554,171.779,152.114,171.968z"/>
					</g>
				</g>
				<g>
					<path style="fill:#929196;" d="M141.286,171.009c-1.467,3.743-2.983,7.469-4.459,11.209c6.085-0.079,12.197-1.634,17.41-4.453
						c8.535-4.616,15.061-15.469,11.329-25.084c-1.45,0.512-2.746,0.58-3.601-0.214c-4.003-3.716-6.275-9.81-11.986-10.016
						c-12.535-0.452-10.117,5.847-7.351,14.347C144.223,161.704,143.123,166.32,141.286,171.009z"/>
					<path style="fill:#FFA18A;" d="M146.545,187.651c-6.882-6.441-18.729-34.931-16.821-37.413
						c2.019-2.627,8.687-5.115,13.499-6.635c3.032-0.958,6.312,0.332,7.896,3.089c2.143,3.729,10.973,20.798,10.343,23.23
						c-0.758,2.929-4.379,5.74-7.407,7.063c0.013,0.016,3.118,8.434,3.157,8.833C157.716,191.034,149.041,189.987,146.545,187.651z"
						/>
					<g>
						<g>
							<path style="fill:#2C324D;" d="M147.066,161.313c-1.039,0.487-1.081,2.191-0.812,3.034c0.16,0.501-0.118-1.979,1.098-2.573
								c0.922-0.451,2.801,1.782,2.544,1.32C149.037,161.554,147.766,160.985,147.066,161.313z"/>
							<path style="fill:#2C324D;" d="M154.81,157.722c-0.867,0.407-0.903,1.829-0.678,2.533c0.133,0.418-0.099-1.652,0.916-2.148
								c0.77-0.376,2.338,1.487,2.123,1.102C156.455,157.924,155.394,157.449,154.81,157.722z"/>
						</g>
						<g>
							<path style="fill:#FF886B;" d="M155.384,164.388c-0.972-0.434-1.717-0.814-2.34-1.702c-1.613-2.296-1.3-3.296-1.55-5.171
								c-0.085-0.637-1.021,3.333,1.5,5.938c0.79,0.816,2.938,1.156,2.87,2.882C156.919,165.729,156.172,164.74,155.384,164.388z"/>
							<g>
								<path style="fill:#FF886B;" d="M145.76,164.473c-1.247-0.02-1.875,0.056-2.463,0.279c-0.599,0.228-0.585-0.068,0.035-0.246
									C144.615,164.138,146.405,164.484,145.76,164.473z"/>
								<path style="fill:#FF886B;" d="M145.638,164.694c-0.506,0.047-1.131,0.167-1.693,0.45c-0.573,0.288-0.588-0.007,0.01-0.248
									C145.193,164.396,146.281,164.634,145.638,164.694z"/>
							</g>
							<path style="fill:#FF886B;" d="M153.508,166.977c-2.458,1.159-3.294,3.173-3.467,4.409c-0.089,0.635-0.533,0.661-0.443,0.022
								C149.783,170.086,151.171,167.464,153.508,166.977z"/>
							<path style="fill:#FF886B;" d="M156.25,165.508c1.594-0.3,3.608,0.684,4.198,1.784
								C160.75,167.857,158.635,165.417,156.25,165.508z"/>
							<path style="fill:#FF886B;" d="M148.208,176.899c-0.217-0.188-0.757-0.065-0.905,0.255c-0.624,1.352-3.731-1.084-3.293-0.61
								c0.969,1.046,2.838,1.992,3.85,0.698c1.773,1.143,4.55,1.645,5.976-0.257C151.515,178.97,149.167,177.729,148.208,176.899z"
								/>
							<path style="fill:#FF886B;" d="M152.313,183.347c-0.358-0.553-0.441-0.553-0.722-1.264c-0.292-0.737,0-2.108-0.057-2.904
								c-0.046-0.641-0.95,2.886-0.215,3.913c0.353,0.493,0.749,0.78,0.97,1.361c0.334,0.879,0.398,1.996,0.583,2.924
								C152.999,188.008,152.972,184.363,152.313,183.347z"/>
						</g>
						<path style="fill:#E8464C;" d="M153.999,170.917c0.335,0.101,0.82-1.421,1.427-1.88c0.585-0.13,1.012,0.346,1.028,0.35
							c-0.004-0.075,0.303-0.813,0.586-0.792c0.531,0.039,1.368,0.771,1.368,0.866c-0.002,0.715-0.613,1.184-1.32,1.555
							C155.118,172.05,153.286,170.701,153.999,170.917z"/>
					</g>
					<g>
						<path style="fill:#9F9EA3;" d="M145.962,182.734c-0.081-0.211-5.958-13.542-4.125-23.188
							c6.945-0.514,13.155-6.17,15.879-12.34c1.117-2.531,1.859-5.665,0.641-8.29c-0.768-1.656-2.189-2.934-3.881-3.598
							c-4.387-1.722-8.121,1.234-11.948,2.876c-4.162,1.786-8.633,2.871-12.55,5.204c-0.197,0.118-0.393,0.238-0.586,0.361
							c-1.865,1.189-3.18,2.903-4.295,4.778c-3.364,5.658-2.54,11.191-4.061,17.278c-0.453,1.814-2.091,4.699-3.074,5.918
							C124.087,185.484,142.899,186.422,145.962,182.734z"/>
						<g>
							<path style="fill:#929196;" d="M127.149,158.422c-0.897,6.295-3.648,11.68-7.182,16.807c0.371,0.516,0.767,0.999,1.175,1.467
								c3.508-5.654,5.806-11.852,6.763-18.573C128.085,156.864,127.331,157.151,127.149,158.422z"/>
							<path style="fill:#929196;" d="M125.587,176.234c-0.488,1.104-1.061,2.107-1.667,3.093c0.228,0.179,0.455,0.358,0.689,0.527
								c0.654-1.226,1.277-2.467,1.839-3.742C126.963,174.946,126.106,175.058,125.587,176.234z"/>
							<path style="fill:#929196;" d="M133.337,162.297c0.144,7.118-1.216,13.867-4.528,19.977c0.52,0.233,1.043,0.443,1.568,0.639
								c2.99-6.541,3.688-13.878,3.538-21.305C133.89,160.322,133.311,161.007,133.337,162.297z"/>
							<path style="fill:#929196;" d="M136.505,166.734c-0.044,3.543-0.864,11.612-1.786,17.392c0.592,0.113,1.177,0.208,1.75,0.277
								c0.555-5.921,0.634-14.077,0.68-17.732C137.166,165.385,136.521,165.446,136.505,166.734z"/>
							<path style="fill:#929196;" d="M139.399,163.172c0.161,7.257,0.409,14.382,2,21.304c0.641-0.07,1.235-0.174,1.776-0.308
								c-1.984-6.797-3.063-13.754-3.222-20.933C139.925,161.949,139.371,161.882,139.399,163.172z"/>
							<path style="fill:#929196;" d="M158.357,138.917c-0.175-0.378-0.388-0.733-0.626-1.068
								c-0.716,11.755-9.869,23.169-22.352,21.135c-1.259-0.205-2.109,0.216-0.84,0.423c2.566,0.418,5.005,0.484,7.283,0.236
								c0.006-0.032,0.01-0.064,0.016-0.096c6.945-0.514,13.155-6.17,15.879-12.34C158.833,144.676,159.575,141.542,158.357,138.917
								z"/>
						</g>
					</g>
				</g>
			</g>
		</g>
	</g>
	<g>
		<ellipse style="fill:#EDF6FA;" cx="360.571" cy="423.724" rx="96.162" ry="15.854"/>
		<g>
			<g>
				<g>
					<path style="fill:#593D1F;" d="M422.409,387.061c1.762-1.956,4.074-5.477,6.46-6.773c3.489-1.897,12.493,5.687,10.939,8.48
						c-1.236,2.221-3.419,5.475-3.419,5.475l-2.082,0.855c0,0-0.245,2.014-0.527,2.619c-2.629,5.639-12.319,16.486-15.388,18.222
						c-2.721,1.539-7.463,4.347-9.743,1.282C406.556,414.407,419.906,389.839,422.409,387.061z"/>
					<g>
						<path style="fill:#FFA18A;" d="M414.779,371.082c5.644,3.955,11.248,7.965,16.82,12.02c-0.629,3.819-2.515,6.608-5.742,8.147
							c-6.808-2.651-13.557-5.441-20.247-8.379C408.763,379.015,411.885,375.137,414.779,371.082z"/>
						<path style="fill:#B0CDD9;" d="M423.56,377.357c2.679,1.917,5.376,3.807,8.04,5.745c-0.629,3.819-2.515,6.608-5.742,8.147
							c-3.206-1.249-6.396-2.533-9.575-3.844C419.727,384.955,422.295,381.461,423.56,377.357z"/>
						<path style="fill:#FFFFFF;" d="M418.042,388.112c-0.585-0.239-1.176-0.466-1.76-0.707c3.445-2.45,6.013-5.944,7.278-10.048
							c0.499,0.357,0.999,0.715,1.499,1.071C423.762,382.516,421.472,385.894,418.042,388.112z"/>
					</g>
				</g>
				<g>
					<path style="fill:#593D1F;" d="M304.232,404.315c2.454-0.952,6.105-3.054,8.819-3.137c3.969-0.122,8.592,10.705,5.946,12.498
						c-2.104,1.426-5.519,3.349-5.519,3.349l-2.244-0.175c0,0-1.125,1.688-1.65,2.101c-4.887,3.851-18.425,9.17-21.946,9.337
						c-3.122,0.148-8.622,0.519-9.277-3.244C277.76,421.588,300.745,405.668,304.232,404.315z"/>
					<g>
						<path style="fill:#FFA18A;" d="M304.617,386.612c3.258,6.073,6.454,12.178,9.603,18.308c-2.282,3.126-5.222,4.767-8.797,4.687
							c-4.883-5.434-9.653-10.965-14.302-16.601C295.673,390.984,300.207,388.928,304.617,386.612z"/>
						<path style="fill:#B0CDD9;" d="M309.63,396.169c1.528,2.918,3.085,5.821,4.59,8.751c-2.282,3.126-5.222,4.767-8.797,4.687
							c-2.3-2.559-4.569-5.143-6.817-7.745C302.786,401.227,306.652,399.264,309.63,396.169z"/>
						<path style="fill:#FFFFFF;" d="M299.859,403.286c-0.415-0.477-0.84-0.945-1.253-1.424c4.18-0.635,8.046-2.598,11.024-5.693
							c0.285,0.544,0.57,1.089,0.856,1.632C307.487,400.867,303.921,402.851,299.859,403.286z"/>
					</g>
				</g>
				<g>
					<path style="fill:#7E5930;" d="M252.758,313.914c5.07-18.427,13.439-35.988,23.729-52.077
						c8.356-13.498,17.513-22.655,31.856-19.279c14.428,3.396,16.996,20.358,11.331,32.106c-2.974,6.167-7.572,11.83-11.271,17.588
						c-4.304,6.699-8.542,13.447-12.545,20.331c-2.587,4.448-5.156,8.952-7.271,13.649c-0.973,2.161-2.914,5.59-2.26,8.084
						c1.297,4.949,10.24,21.229,12.392,25.852c4.102,8.812,8.519,17.473,12.957,26.12c-6.262,7.424-15.341,10.04-24.648,10.181
						c-6.3-11.805-25.823-44.324-30.438-54.46C252.133,332.22,249.829,324.559,252.758,313.914z"/>
					<path style="fill:#7E5930;" d="M334.666,335.171c-9.014-16.852-15.039-35.35-18.657-54.102
						c-3.236-15.542-2.903-28.487,9.822-35.917c15.898-9.282,29.123,7.43,31.624,21.611c2.604,14.76,5.285,29.588,9.122,44.085
						c1.093,4.129,2.414,13.826,5.697,17.338c4.364,4.669,37.538,32.089,45.91,38.012c0.572,9.696-4.209,17.844-10.86,24.356
						C394.627,386.333,339.873,344.907,334.666,335.171z"/>
					<g>
						<path style="fill:#6E4B26;" d="M336.773,331.352c-8.507-15.905-14.767-34.06-18.608-53.968
							c-0.816-3.917-2.103-11.58-2.895-18.715c-0.269,1.007-0.476,2.045-0.631,3.111c0.786,6.244,1.84,12.418,2.545,15.801
							c3.859,20,10.153,38.25,18.708,54.243c3.286,6.144,27.217,27.971,47.855,44.481c4.594,3.218,8.935,6.12,12.712,8.473
							C374.582,368.599,340.483,338.288,336.773,331.352z"/>
						<path style="fill:#6E4B26;" d="M340.773,331.352c-8.507-15.905-14.767-34.06-18.608-53.968
							c-1.105-5.307-3.078-17.49-3.506-25.92c-0.323,0.442-0.628,0.893-0.911,1.354c0.553,8.439,2.384,19.71,3.436,24.763
							c3.859,20,10.153,38.25,18.708,54.243c4.768,8.915,48.876,45.376,68.524,57.624c0.23-0.24,0.454-0.484,0.678-0.728
							C389.749,376.76,345.529,340.243,340.773,331.352z"/>
						<path style="fill:#6E4B26;" d="M344.164,330.189c-11.577-24.639-20.555-68.152-21.85-82.585
							c-0.327,0.272-0.643,0.549-0.948,0.831c1.531,15.809,10.963,58.918,21.894,82.179c3.934,8.374,46.421,43.199,67.372,56.357
							c0.21-0.252,0.414-0.508,0.617-0.765C390.54,373.272,348.078,338.517,344.164,330.189z"/>
						<path style="fill:#6E4B26;" d="M347.531,328.979c-8.528-15.946-20.143-65.518-21.718-83.816
							c-0.326,0.191-0.639,0.387-0.948,0.584c1.761,18.815,13.294,67.828,21.785,83.703c4.496,8.408,45.195,41.974,65.7,55.297
							c0.19-0.263,0.384-0.524,0.567-0.792C392.624,370.817,352.005,337.343,347.531,328.979z"/>
						<path style="fill:#6E4B26;" d="M350.91,327.792c-7.588-14.189-18.124-65.728-20.362-84.672
							c-0.308,0.087-0.618,0.189-0.929,0.296c2.353,19.444,12.835,70.684,20.41,84.848c4.457,8.335,43.433,40.047,64.28,53.463
							c0.173-0.3,0.346-0.6,0.509-0.905C394.223,367.463,355.157,335.733,350.91,327.792z"/>
						<path style="fill:#6E4B26;" d="M354.29,326.605c-7.532-14.083-16.898-65.439-18.595-84.112
							c-0.32-0.014-0.644-0.012-0.968-0.007c1.736,18.935,11.12,70.454,18.682,84.59c4.014,7.506,40.573,36.796,62.556,51.37
							c0.131-0.303,0.255-0.608,0.376-0.915C394.512,363.064,358.268,334.043,354.29,326.605z"/>
						<path style="fill:#6E4B26;" d="M357.669,325.418c-7.038-13.159-16.302-61.189-18.877-82.467
							c-0.327-0.081-0.658-0.15-0.99-0.21c2.57,21.397,11.894,69.891,18.986,83.149c3.941,7.369,38.577,34.785,60.422,49.099
							c0.094-0.328,0.173-0.661,0.254-0.993C395.77,359.767,361.565,332.702,357.669,325.418z"/>
						<path style="fill:#6E4B26;" d="M361.048,324.231c-7.181-13.425-14.744-57.194-17.334-79.204
							c-0.382-0.23-0.769-0.447-1.162-0.649c2.538,22.293,10.73,67.454,17.615,80.325c3.724,6.965,35.461,32.678,57.583,47.995
							c0.067-0.347,0.133-0.694,0.186-1.045C395.988,356.436,364.726,331.108,361.048,324.231z"/>
						<path style="fill:#6E4B26;" d="M407.081,360.167c-2.432-1.821-4.941-3.649-7.483-5.499
							c-11.335-8.251-23.057-16.784-31.425-27.33c-8.815-11.112-15.689-51.359-17.735-76.218c-0.347-0.44-0.706-0.865-1.072-1.281
							c1.942,24.949,8.974,66.715,18.024,78.121c8.452,10.654,20.23,19.227,31.62,27.518c2.538,1.847,5.044,3.672,7.472,5.491
							c2.558,1.916,5.118,4.012,7.596,6.039c1.33,1.088,2.668,2.183,4.022,3.264c0.039-0.401,0.066-0.806,0.086-1.214
							c-1.167-0.938-2.325-1.883-3.475-2.824C412.226,364.199,409.655,362.096,407.081,360.167z"/>
						<path style="fill:#6E4B26;" d="M402.01,354.977c2.538,1.847,5.044,3.672,7.472,5.491c2.558,1.916,5.118,4.012,7.596,6.039
							c0.379,0.31,0.758,0.62,1.138,0.931c-0.005-0.411-0.007-0.822-0.031-1.239c-2.599-1.839-7.59-5.751-13.365-10.409
							c-0.74-0.54-1.475-1.078-2.221-1.621c-10.829-7.883-22.004-16.027-30.277-25.935c-0.013-0.014-0.033-0.034-0.046-0.047
							c-0.207-0.221-0.406-0.468-0.598-0.736c-0.166-0.205-0.34-0.406-0.504-0.612c-8.127-10.244-14.603-45.251-17.168-70.135
							c-0.37-0.719-0.762-1.426-1.179-2.118c2.437,25.182,9.123,62.235,17.564,72.874
							C378.842,338.113,390.62,346.686,402.01,354.977z"/>
					</g>
					<g>
						<path style="fill:#6E4B26;" d="M284.419,251.003c-0.982,1.075-1.94,2.225-2.878,3.444
							c-12.652,24.642-28.657,59.035-28.329,71.218c0.151,5.619,7.263,22.187,15.55,38.735c6.928,12.121,14.707,25.4,18.266,32.069
							c0.229-0.004,0.456-0.016,0.684-0.022c-12.151-18.262-33.258-61.818-33.5-70.81
							C253.869,312.905,271.59,275.613,284.419,251.003z"/>
						<path style="fill:#6E4B26;" d="M292.389,244.499c-0.557,0.306-1.105,0.638-1.645,0.991
							c-12.859,24.058-34.335,67.872-33.955,81.965c0.252,9.383,21.96,50.893,34.203,68.788c0.371-0.036,0.743-0.072,1.112-0.118
							c-12.081-17.441-34.063-59.321-34.315-68.698C257.404,313.156,279.71,268.038,292.389,244.499z"/>
						<path style="fill:#6E4B26;" d="M261.339,327.95c2.171-19.031,24.13-63.691,35.89-85.407c-0.454,0.12-0.9,0.259-1.342,0.409
							c-11.932,22.16-33.39,66.026-35.542,84.885c-1.099,9.635,21.378,49.696,34.117,67.923c0.342-0.063,0.684-0.124,1.023-0.196
							C282.609,377.334,260.344,336.664,261.339,327.95z"/>
						<path style="fill:#6E4B26;" d="M300.771,244.489c0.48-0.909,0.939-1.778,1.387-2.626c-0.391,0.007-0.777,0.025-1.159,0.053
							c-0.361,0.684-0.731,1.384-1.112,2.106c-12.724,24.08-36.407,68.901-35.991,84.337c0.248,9.219,20.898,48.501,33.377,66.783
							c0.35-0.093,0.694-0.2,1.04-0.304c-12.216-17.933-33.177-57.587-33.417-66.506
							C264.485,313.158,288.089,268.488,300.771,244.489z"/>
						<path style="fill:#6E4B26;" d="M306.072,242.127c-0.353-0.052-0.703-0.095-1.05-0.132
							c-13.576,24.573-37.962,72.457-37.575,86.816c0.26,9.681,21.035,47.287,33.387,65.159c0.307-0.121,0.611-0.245,0.913-0.376
							c-12.476-17.97-33.066-56.118-33.3-64.81C268.062,314.473,292.605,266.433,306.072,242.127z"/>
						<path style="fill:#6E4B26;" d="M311.103,243.432c-0.306-0.122-0.621-0.234-0.94-0.342
							c-13.85,23.787-39.562,71.358-39.163,86.173c0.236,8.746,20.027,44.134,32.943,63.269c0.289-0.155,0.576-0.313,0.859-0.479
							C291.98,373.114,272.233,337.9,272,329.235C271.604,314.52,297.344,267.014,311.103,243.432z"/>
						<path style="fill:#6E4B26;" d="M313.482,244.601c-0.293-0.173-0.596-0.336-0.905-0.494
							c-14.143,24.91-38.416,71.075-38.025,85.607c0.197,7.333,13.159,29.993,17.127,36.763
							c5.309,9.059,10.724,17.592,15.276,24.171c0.273-0.197,0.547-0.392,0.815-0.6c-12.823-18.589-31.992-51.983-32.217-60.362
							C275.177,315.723,299.418,269.483,313.482,244.601z"/>
						<path style="fill:#6E4B26;" d="M318.058,248.575c-0.227-0.284-0.463-0.56-0.709-0.83
							c-14.679,24.208-39.458,68.09-39.244,82.415c0.084,5.569,17.698,38.645,30.552,59.149c0.23-0.197,0.461-0.391,0.686-0.597
							c-12.935-20.628-30.166-53.692-30.239-58.567C278.9,316.39,303.435,272.806,318.058,248.575z"/>
						<path style="fill:#6E4B26;" d="M320.84,253.411c-0.146-0.368-0.302-0.731-0.467-1.088
							c-4.956,7.928-10.737,17.472-16.445,27.346c-10.82,18.716-23.455,42.224-22.204,47.923
							c2.583,11.767,17.347,41.135,28.738,60.039c0.235-0.243,0.459-0.505,0.688-0.76c-11.3-18.785-25.889-47.831-28.449-59.494
							C281.125,320.201,304.77,279.169,320.84,253.411z"/>
						<path style="fill:#6E4B26;" d="M285.723,331.754c0.126,0.603,0.3,1.248,0.498,1.914c-0.08-0.866,0.086-1.81,0.375-2.76
							c-1.067-7.937,6.694-25.073,22.516-49.681c4.436-6.9,9.043-13.671,13.338-19.789c-0.017-0.509-0.053-1.016-0.099-1.52
							C305.689,283.56,283.005,318.779,285.723,331.754z"/>
					</g>
				</g>
			</g>
			<g>
				<g>
					<path style="fill:#B0CDD9;" d="M271.741,227.121c8.285-22.687,12.301-47.326,13.907-71.367
						c-10.678-4.865-20.898-9.307-32.409-15.038c-7.382-3.676-18.74-45.568-21.039-54.095c3.254-4.358,12.371-7.521,17.584-4.956
						c2.122,7.87,16.081,38.674,18.537,42.195c2.64,3.784,109.284,48.34,113.846,47.651c4.245-0.641,32.37-13.14,39.541-17.017
						c5.449,2.016,9.428,10.808,8.505,16.168c-7.769,4.2-42.413,27.989-50.16,25.162c-10.872-3.967-21.573-9.073-32.304-13.953
						c2.581,34.489,19.473,84.62,16.852,87.223c-36.288,36.029-96.368-13.411-99.077-17.881c-1.686-2.781-1.667-5.729-0.645-8.736
						C266.667,237.214,269.819,232.385,271.741,227.121z"/>
					<g>
						<g>
							<path style="fill:#06114F;" d="M248.03,82.377c0,0-3.212-0.848-7.011-0.121c-3.798,0.726-6.312,3.415-6.312,3.415
								s3.21,0.953,7.009,0.227C245.514,85.171,248.03,82.377,248.03,82.377z"/>
							<path style="fill:#FFA18A;" d="M237.671,84.56c0,0-0.992-3.004-1.025-3.061c-1.698-3.044-3.098-5.812-3.291-9.304
								c-0.101-1.833-0.447-6.26,1.683-7.233c2.169-0.99,6.553,6.509,7.181,7.968c0.297-0.881,0.38-2.574,1.081-2.591
								c1.48-0.036,2.042,3.931,1.911,5.606c-0.086,1.1-0.133,2.889-0.611,3.693c-0.159,0.268-0.955,0.802-0.955,0.802
								s0.167,0.848,0.707,3.296C242.92,84.538,238.736,85.023,237.671,84.56z"/>
						</g>
						<g>
							<g>
								<polygon style="fill:#FFFFFF;" points="449.527,277.733 449.527,277.733 449.527,277.733 								"/>
								<path style="fill:#222221;" d="M427.904,140.103c-2.193,0.24-3.781,2.219-3.54,4.412l0.418,3.811l-2.485,0.272l-2.485,0.272
									l-0.418-3.811c-0.541-4.933,3.033-9.386,7.966-9.927c4.933-0.541,9.386,3.033,9.927,7.966l14.726,134.362l-2.485,0.272l0,0
									l-2.485,0.272L444.29,252.9l-11.974-109.256C432.076,141.451,430.097,139.863,427.904,140.103z"/>
							</g>
							<g>
								<g>
									<path style="fill:#06114F;" d="M423.382,156.392c0,0,2.654,1.998,4.434,5.432c1.781,3.433,1.225,7.072,1.225,7.072
										s-2.736-1.932-4.516-5.365C422.744,160.098,423.382,156.392,423.382,156.392z"/>
								</g>
								<path style="fill:#FFA18A;" d="M433.813,156.188c0,0,2.331-3.024,1.952-3.53c-0.888-1.185-4.351,0.829-5.586,1.969
									c-0.811,0.748-2.187,1.892-2.523,2.765c-0.112,0.291-0.039,1.246-0.039,1.246s-0.769,0.393-3.027,1.484
									c0.258,1.622,2.467,5.209,3.489,5.759c0,0,2.973-1.079,3.039-1.09c0.693-0.111,2.731-0.802,3.424-0.874L433.813,156.188z"/>
								<path style="fill:#FFA18A;" d="M441.295,154.651c-0.416-1.706-4.692,0.426-5.333,1.667c-0.58,1.121-0.599,3.983,0.077,5.049
									c0.676,1.066,3.837,1.88,4.923,1.117C442.464,161.43,441.849,156.926,441.295,154.651z"/>
							</g>
						</g>
					</g>
				</g>
				<g>
					<path style="fill:#2C324D;" d="M310.551,143.461c-4.347-1.855-16.181-7.069-20.172-8.81c-11.667,14.667-13.667,91.333-33,107.5
						c0.17,1.174,11.333,19.333,29.667,30C301.506,246.146,297.543,164.734,310.551,143.461z"/>
					<path style="fill:#2C324D;" d="M352.626,213.546c-13.747-0.104-14.71-35.582-2.081-53.729c0,0-14.892-5.831-19.762-7.85
						c-19.071,25.683-14.78,115.927-10.738,133.35c14.383,2.158,35.898-3.318,48-15.333
						C369.923,268.12,358.341,240.971,352.626,213.546z"/>
				</g>
			</g>
			<g>
				<g>
					<path style="fill:#FFA18A;" d="M328.188,118.943c-1.739-1.537-3.897-2.662-6.392-3.214c-5.715-1.265-13.299,0.028-15.891,5.974
						c-1.494,3.426-1.934,7.163-2.487,10.824c-0.629,4.157-2.186,9.777-0.447,13.91c1.52,3.613,5.622,4.367,9.116,4.672
						c-0.056,0.153,0.782,5.934,1.888,12.081c0.491,2.726,10.859-6.551,11.987-9.081c0.791-1.772-0.117-3.259,0.656-8.625
						c0,0,5.802-5.333,6.375-14.213C333.309,126.395,331.539,121.905,328.188,118.943z"/>
					<g>
						<path style="fill:#9F9EA3;" d="M338.033,118.377c0-0.768-0.611-1.341-1.286-1.585c-0.15-0.054-0.301-0.084-0.451-0.107
							c0.149-0.443,0.294-0.888,0.413-1.342c0.24-0.918,0.554-2.485-0.622-2.903c-1.792-0.638-2.527,1.691-2.824,3.612
							c-5.993-4.374-16.837-1.42-22.256-6.11c-1.519-1.315-4.841-3.775-6.607-2.271c-4.542,3.87-2.102,13.649,1.229,16.229
							c6.104,4.729,15.253,3.888,16,4.333c2.302,1.371-0.592,8.944,0.864,9.166c0.125-0.317,0.703-3.814,0.703-3.814
							s2.467-1.846,3.669-0.878c1.17,0.942,1.488,2.354,1.265,3.785c-0.229,1.472-0.988,3.693-2.315,4.55
							c-0.54,2.19,0.222,4.284,0.803,4.44c5.291-2.92,12.486-18.029,9.509-25.769C337.076,119.83,338.033,119.529,338.033,118.377z"
							/>
						<path style="fill:#929196;" d="M335.712,121.151c-0.984-0.526-1.966-0.685-2.943-0.622c-4.797-1.916-8.771,1.828-13.4,2.587
							c-6.987,1.146-12.43-4.511-12.657-10.944c-0.023-0.642-0.531-1.254-0.508-0.609c0.18,5.103,2.79,10.046,7.743,11.952
							c2.366,0.91,4.86,0.952,7.273,0.199c3.117-0.972,6.719-3.058,9.993-2.667c-2.67,0.948-5.31,3.236-7.813,4
							c-11.604,3.542-22.226-5.17-18.771-16.646c0.107-0.355,0.138-0.69,0.127-0.969c-0.124,0.065-0.244,0.144-0.356,0.24
							c-0.171,0.146-0.314,0.316-0.466,0.478c-1.689,6.829,0.764,14.584,7.585,17.59c2.905,1.281,6.177,1.478,9.28,0.971
							c1.907-0.312,3.724-0.898,5.501-1.647c0.009-0.004,0.019-0.009,0.029-0.013c0.605,0.177,1.142,0.499,1.611,0.915
							c-1.178,1.102-4.229,2.32-6.54,2.2c0.106,0.019,0.185,0.041,0.23,0.068c0.425,0.253,0.671,0.72,0.802,1.312
							c1.945-0.309,4.434-1.194,5.781-2.749c0.09-0.104,0.163-0.204,0.231-0.302c1.08,1.248,1.714,2.995,1.893,4.411
							c0.21,1.666,0.106,3.056-0.302,4.733c-0.679,2.796-1.869,6.262-4.305,8.013c0.057,0.332,0.132,0.64,0.226,0.898
							c0.083-0.044,0.165-0.084,0.257-0.149c5.519-3.887,8.322-16.016,1.333-19.917c0.535-0.317,1.153-0.686,1.808-1.048
							c1.692,0.673,2.56,2.166,2.886,4.095c0.107,0.633,0.621,1.083,0.514,0.453c-0.338-2-1.021-3.567-2.478-5.036
							c1.867-0.944,3.88-1.65,5.181-0.955C336.592,122.6,336.849,121.759,335.712,121.151z"/>
					</g>
				</g>
				<g>
					<g>
						<g>
							<path style="fill:#FF886B;" d="M317.775,134.588c1.247-0.02,1.875,0.056,2.463,0.279c0.6,0.228,0.585-0.068-0.035-0.246
								C318.919,134.253,317.129,134.598,317.775,134.588z"/>
							<path style="fill:#FF886B;" d="M317.897,134.809c0.506,0.047,1.131,0.167,1.693,0.449c0.573,0.288,0.588-0.007-0.01-0.248
								C318.342,134.511,317.254,134.749,317.897,134.809z"/>
						</g>
						<g>
							<path style="fill:#3C3552;" d="M316.484,131.847c-1.296-0.494-2.179,0.972-2.671,1.917c-0.297,0.57,1.251-1.537,2.458-1.175
								c0.938,0.281,1.086,2.896,1.11,2.254C317.417,133.875,317.637,132.286,316.484,131.847z"/>
							<path style="fill:#3C3552;" d="M306.78,129.702c-1.081-0.412-1.817,0.811-2.227,1.598c-0.248,0.475,1.043-1.281,2.049-0.98
								c0.782,0.234,0.906,2.415,0.926,1.879C307.558,131.394,307.741,130.069,306.78,129.702z"/>
						</g>
						<path style="fill:#FF7857;" d="M311.65,133.078c-0.094,1.25,0.349,5.908-0.063,6.313c-0.475,0.467-1.031,0.205-1.378-0.219
							c-0.486,0.19-2.332,0.844-2.809-0.344c-0.355-2.284,2.156-4.313,2.781-6.219C310.719,132.147,311.441,133.023,311.65,133.078z
							"/>
						<g>
							<g>
								<path style="fill:#FFFFFF;" d="M311.688,133.443c0-2.55,2.075-4.625,4.625-4.625c2.55,0,4.625,2.075,4.625,4.625
									c0,2.55-2.075,4.625-4.625,4.625C313.762,138.068,311.688,135.993,311.688,133.443z M312.688,133.443
									c0,1.999,1.626,3.625,3.625,3.625s3.625-1.626,3.625-3.625c0-1.999-1.626-3.625-3.625-3.625
									S312.688,131.444,312.688,133.443z"/>
							</g>
							<g>
								<path style="fill:#FFFFFF;" d="M301.351,130.693c0-2.55,2.075-4.625,4.625-4.625c2.55,0,4.625,2.075,4.625,4.625
									c0,2.55-2.075,4.625-4.625,4.625C303.426,135.318,301.351,133.243,301.351,130.693z M302.351,130.693
									c0,1.999,1.626,3.625,3.625,3.625c1.999,0,3.625-1.626,3.625-3.625c0-1.999-1.626-3.625-3.625-3.625
									C303.977,127.068,302.351,128.694,302.351,130.693z"/>
							</g>
							<g>
								
									<rect x="310.75" y="131.252" transform="matrix(0.2423 -0.9702 0.9702 0.2423 107.3618 402.2986)" style="fill:#FFFFFF;" width="0.999" height="2.319"/>
							</g>
							<g>
								<polygon style="fill:#FFFFFF;" points="320.629,134.181 322.994,134.765 323.195,133.587 320.414,133.204 								"/>
							</g>
						</g>
						<path style="fill:#FF886B;" d="M313.219,139.724c2.563,0.906,4.417,4.847,4.713,6.06c0.152,0.623,0.596,0.605,0.443-0.022
							C318.059,144.464,315.594,139.974,313.219,139.724z"/>
						<path style="fill:#FF886B;" d="M307.157,137.995c-2.563,0.906-4.15,3.734-4.07,3.094
							C303.15,140.589,304.782,138.245,307.157,137.995z"/>
						<path style="fill:#FF886B;" d="M318.313,149.651c0.101-0.269,0.635-0.418,0.917-0.208c1.194,0.89,2.76-2.734,2.602-2.109
							c-0.352,1.382-1.542,3.105-3.049,2.452c-1.012,1.851-4.893,3.123-6.469,1.032
							C314.638,152.779,317.866,150.838,318.313,149.651z"/>
						<path style="fill:#FF886B;" d="M316.438,157.234c0.186-0.632,0.266-0.655,0.333-1.417c0.07-0.789-0.599-2.022-0.77-2.801
							c-0.138-0.627,1.731,2.498,1.318,3.691c-0.198,0.572-0.497,0.961-0.543,1.58c-0.071,0.938,0.185,2.027,0.271,2.969
							C317.104,161.898,316.095,158.395,316.438,157.234z"/>
					</g>
					<g>
						<path style="fill:#FF7857;" d="M305.283,142.567c-0.774,0.257-0.712,1.769-0.452,2.325c0.833,1.776,3.57,2.393,5.318,2.468
							c1.202,0.052,1.867-1.887,1.724-2.845c-0.134-0.894-0.622-0.784-1.407-0.767c-0.998,0.022-2.015-0.138-2.951-0.488
							C306.898,143.03,305.962,142.341,305.283,142.567z"/>
					</g>
				</g>
			</g>
		</g>
	</g>
</g>
</svg>
